ISO-10303-21;
HEADER;
/*Generated by software containing ST-Developer
 * from STEP Tools, Inc. (www.steptools.com) 
 */
/*OPTION: using custom renumber hook */
/*description */
/*implementation_level */
FILE_DESCRIPTION(('STEP AP242 Edition 2','STEP AP242 Edition 2''CAx-IF Rec.Pracs.---Representation and Presentation of Product Manufa
cturing Information (PMI)---4.0---2014-10-13','STEP AP242 Edition 2''CAx-IF Rec.Pracs.---Representation and Presentation of Product Manufa
cturing Information (PMI)---4.0---2014-10-13''CAx-IF Rec.Pracs.---3D Tessellated Geometry---0.4---2014-09-14','STEP AP242 Edition 2''CAx-IF Rec.Pracs.---Representation and Presentation of Product Manufa
cturing Information (PMI)---4.0---2014-10-13''CAx-IF Rec.Pracs.---3D Tessellated Geometry---0.4---2014-09-14''2;1','STEP AP242 Edition 2''CAx-IF Rec.Pracs.---Representation and Presentation of Product Manufa
cturing Information (PMI)---4.0---2014-10-13''CAx-IF Rec.Pracs.---3D Tessellated Geometry---0.4---2014-09-14''2;1''CAx-IF Rec.Pracs.---User Defined Attributes---1.5---2016-08-15'),'2;1');
/*name */
/*time_stamp */
/*author */
/*organization */
/*preprocessor_version */
/*originating_system */
/*authorisation */
FILE_NAME('/vol/tmp/translate-17654704507129611894/beamsplitter direct mount - Baffle.step','2026-03-03T22:33:28',(''),(''),'ST-DEVELOPER v20','ONSHAPE BY PTC INC, 1.211','  ');
FILE_SCHEMA(('AP242_MANAGED_MODEL_BASED_3D_ENGINEERING_MIM_LF { 1 0 10303 442 3 1 4 }'));
ENDSEC;
DATA;
#10=SHAPE_REPRESENTATION_RELATIONSHIP('','',#1402,#11);
#11=ADVANCED_BREP_SHAPE_REPRESENTATION('',(#1400),#2292);
#12=CYLINDRICAL_SURFACE('',#1455,0.00725);
#13=CYLINDRICAL_SURFACE('',#1456,0.00145);
#14=CYLINDRICAL_SURFACE('',#1457,0.00145);
#15=CYLINDRICAL_SURFACE('',#1458,0.00145);
#16=CYLINDRICAL_SURFACE('',#1459,0.00145);
#17=CYLINDRICAL_SURFACE('',#1466,0.001);
#18=CYLINDRICAL_SURFACE('',#1468,0.001);
#19=CYLINDRICAL_SURFACE('',#1470,0.001);
#20=CYLINDRICAL_SURFACE('',#1472,0.001);
#21=CYLINDRICAL_SURFACE('',#1474,0.0025);
#22=CYLINDRICAL_SURFACE('',#1476,0.0025);
#23=CYLINDRICAL_SURFACE('',#1483,0.0031);
#24=CYLINDRICAL_SURFACE('',#1486,0.0031);
#25=CYLINDRICAL_SURFACE('',#1489,0.0031);
#26=CYLINDRICAL_SURFACE('',#1492,0.0031);
#27=CYLINDRICAL_SURFACE('',#1495,0.0021);
#28=CYLINDRICAL_SURFACE('',#1498,0.0021);
#29=CYLINDRICAL_SURFACE('',#1501,0.0021);
#30=CYLINDRICAL_SURFACE('',#1504,0.0021);
#31=CYLINDRICAL_SURFACE('',#1507,0.0025);
#32=CYLINDRICAL_SURFACE('',#1513,0.0025);
#33=CIRCLE('',#1407,0.0025);
#34=CIRCLE('',#1408,0.0025);
#35=CIRCLE('',#1409,0.0025);
#36=CIRCLE('',#1410,0.0031);
#37=CIRCLE('',#1411,0.0031);
#38=CIRCLE('',#1412,0.0031);
#39=CIRCLE('',#1413,0.0031);
#40=CIRCLE('',#1414,0.0025);
#41=CIRCLE('',#1416,0.0025);
#42=CIRCLE('',#1426,0.001);
#43=CIRCLE('',#1427,0.001);
#44=CIRCLE('',#1428,0.001);
#45=CIRCLE('',#1429,0.001);
#46=CIRCLE('',#1434,0.00145);
#47=CIRCLE('',#1435,0.00145);
#48=CIRCLE('',#1436,0.00145);
#49=CIRCLE('',#1437,0.00145);
#50=CIRCLE('',#1438,0.00725);
#51=CIRCLE('',#1439,0.0025);
#52=CIRCLE('',#1440,0.0025);
#53=CIRCLE('',#1445,0.0021);
#54=CIRCLE('',#1446,0.0021);
#55=CIRCLE('',#1447,0.0021);
#56=CIRCLE('',#1448,0.0021);
#57=CIRCLE('',#1450,0.00145);
#58=CIRCLE('',#1451,0.00145);
#59=CIRCLE('',#1452,0.00145);
#60=CIRCLE('',#1453,0.00145);
#61=CIRCLE('',#1454,0.00725);
#62=CIRCLE('',#1467,0.001);
#63=CIRCLE('',#1469,0.001);
#64=CIRCLE('',#1471,0.001);
#65=CIRCLE('',#1473,0.001);
#66=CIRCLE('',#1475,0.0025);
#67=CIRCLE('',#1477,0.0025);
#68=CIRCLE('',#1482,0.0031);
#69=CIRCLE('',#1485,0.0031);
#70=CIRCLE('',#1488,0.0031);
#71=CIRCLE('',#1491,0.0031);
#72=CIRCLE('',#1494,0.0021);
#73=CIRCLE('',#1497,0.0021);
#74=CIRCLE('',#1500,0.0021);
#75=CIRCLE('',#1503,0.0021);
#76=CIRCLE('',#1506,0.0025);
#77=CIRCLE('',#1511,0.0025);
#78=ORIENTED_EDGE('',*,*,#462,.T.);
#79=ORIENTED_EDGE('',*,*,#463,.F.);
#80=ORIENTED_EDGE('',*,*,#464,.F.);
#81=ORIENTED_EDGE('',*,*,#465,.T.);
#82=ORIENTED_EDGE('',*,*,#466,.F.);
#83=ORIENTED_EDGE('',*,*,#467,.F.);
#84=ORIENTED_EDGE('',*,*,#468,.F.);
#85=ORIENTED_EDGE('',*,*,#469,.T.);
#86=ORIENTED_EDGE('',*,*,#470,.T.);
#87=ORIENTED_EDGE('',*,*,#471,.T.);
#88=ORIENTED_EDGE('',*,*,#472,.T.);
#89=ORIENTED_EDGE('',*,*,#473,.F.);
#90=ORIENTED_EDGE('',*,*,#474,.F.);
#91=ORIENTED_EDGE('',*,*,#475,.T.);
#92=ORIENTED_EDGE('',*,*,#476,.F.);
#93=ORIENTED_EDGE('',*,*,#477,.F.);
#94=ORIENTED_EDGE('',*,*,#478,.F.);
#95=ORIENTED_EDGE('',*,*,#479,.F.);
#96=ORIENTED_EDGE('',*,*,#480,.F.);
#97=ORIENTED_EDGE('',*,*,#481,.F.);
#98=ORIENTED_EDGE('',*,*,#482,.T.);
#99=ORIENTED_EDGE('',*,*,#483,.T.);
#100=ORIENTED_EDGE('',*,*,#484,.F.);
#101=ORIENTED_EDGE('',*,*,#485,.T.);
#102=ORIENTED_EDGE('',*,*,#486,.F.);
#103=ORIENTED_EDGE('',*,*,#487,.F.);
#104=ORIENTED_EDGE('',*,*,#488,.T.);
#105=ORIENTED_EDGE('',*,*,#472,.F.);
#106=ORIENTED_EDGE('',*,*,#489,.F.);
#107=ORIENTED_EDGE('',*,*,#490,.F.);
#108=ORIENTED_EDGE('',*,*,#491,.T.);
#109=ORIENTED_EDGE('',*,*,#492,.F.);
#110=ORIENTED_EDGE('',*,*,#493,.F.);
#111=ORIENTED_EDGE('',*,*,#494,.T.);
#112=ORIENTED_EDGE('',*,*,#495,.T.);
#113=ORIENTED_EDGE('',*,*,#496,.T.);
#114=ORIENTED_EDGE('',*,*,#497,.T.);
#115=ORIENTED_EDGE('',*,*,#498,.T.);
#116=ORIENTED_EDGE('',*,*,#499,.T.);
#117=ORIENTED_EDGE('',*,*,#500,.F.);
#118=ORIENTED_EDGE('',*,*,#501,.T.);
#119=ORIENTED_EDGE('',*,*,#502,.F.);
#120=ORIENTED_EDGE('',*,*,#503,.F.);
#121=ORIENTED_EDGE('',*,*,#504,.F.);
#122=ORIENTED_EDGE('',*,*,#478,.T.);
#123=ORIENTED_EDGE('',*,*,#505,.T.);
#124=ORIENTED_EDGE('',*,*,#506,.F.);
#125=ORIENTED_EDGE('',*,*,#483,.F.);
#126=ORIENTED_EDGE('',*,*,#507,.T.);
#127=ORIENTED_EDGE('',*,*,#463,.T.);
#128=ORIENTED_EDGE('',*,*,#508,.F.);
#129=ORIENTED_EDGE('',*,*,#509,.T.);
#130=ORIENTED_EDGE('',*,*,#485,.F.);
#131=ORIENTED_EDGE('',*,*,#510,.F.);
#132=ORIENTED_EDGE('',*,*,#511,.T.);
#133=ORIENTED_EDGE('',*,*,#469,.F.);
#134=ORIENTED_EDGE('',*,*,#512,.F.);
#135=ORIENTED_EDGE('',*,*,#481,.T.);
#136=ORIENTED_EDGE('',*,*,#513,.T.);
#137=ORIENTED_EDGE('',*,*,#514,.T.);
#138=ORIENTED_EDGE('',*,*,#492,.T.);
#139=ORIENTED_EDGE('',*,*,#515,.F.);
#140=ORIENTED_EDGE('',*,*,#516,.F.);
#141=ORIENTED_EDGE('',*,*,#517,.F.);
#142=ORIENTED_EDGE('',*,*,#518,.T.);
#143=ORIENTED_EDGE('',*,*,#519,.T.);
#144=ORIENTED_EDGE('',*,*,#520,.F.);
#145=ORIENTED_EDGE('',*,*,#521,.F.);
#146=ORIENTED_EDGE('',*,*,#522,.T.);
#147=ORIENTED_EDGE('',*,*,#523,.F.);
#148=ORIENTED_EDGE('',*,*,#524,.F.);
#149=ORIENTED_EDGE('',*,*,#525,.T.);
#150=ORIENTED_EDGE('',*,*,#526,.T.);
#151=ORIENTED_EDGE('',*,*,#527,.T.);
#152=ORIENTED_EDGE('',*,*,#522,.F.);
#153=ORIENTED_EDGE('',*,*,#528,.F.);
#154=ORIENTED_EDGE('',*,*,#529,.T.);
#155=ORIENTED_EDGE('',*,*,#530,.T.);
#156=ORIENTED_EDGE('',*,*,#531,.F.);
#157=ORIENTED_EDGE('',*,*,#532,.F.);
#158=ORIENTED_EDGE('',*,*,#533,.T.);
#159=ORIENTED_EDGE('',*,*,#534,.F.);
#160=ORIENTED_EDGE('',*,*,#535,.T.);
#161=ORIENTED_EDGE('',*,*,#536,.T.);
#162=ORIENTED_EDGE('',*,*,#537,.F.);
#163=ORIENTED_EDGE('',*,*,#538,.F.);
#164=ORIENTED_EDGE('',*,*,#539,.F.);
#165=ORIENTED_EDGE('',*,*,#540,.T.);
#166=ORIENTED_EDGE('',*,*,#541,.T.);
#167=ORIENTED_EDGE('',*,*,#533,.F.);
#168=ORIENTED_EDGE('',*,*,#542,.T.);
#169=ORIENTED_EDGE('',*,*,#543,.T.);
#170=ORIENTED_EDGE('',*,*,#544,.F.);
#171=ORIENTED_EDGE('',*,*,#545,.F.);
#172=ORIENTED_EDGE('',*,*,#546,.F.);
#173=ORIENTED_EDGE('',*,*,#547,.T.);
#174=ORIENTED_EDGE('',*,*,#494,.F.);
#175=ORIENTED_EDGE('',*,*,#548,.F.);
#176=ORIENTED_EDGE('',*,*,#549,.T.);
#177=ORIENTED_EDGE('',*,*,#550,.F.);
#178=ORIENTED_EDGE('',*,*,#551,.F.);
#179=ORIENTED_EDGE('',*,*,#552,.T.);
#180=ORIENTED_EDGE('',*,*,#496,.F.);
#181=ORIENTED_EDGE('',*,*,#553,.T.);
#182=ORIENTED_EDGE('',*,*,#554,.F.);
#183=ORIENTED_EDGE('',*,*,#555,.T.);
#184=ORIENTED_EDGE('',*,*,#556,.T.);
#185=ORIENTED_EDGE('',*,*,#557,.F.);
#186=ORIENTED_EDGE('',*,*,#558,.T.);
#187=ORIENTED_EDGE('',*,*,#502,.T.);
#188=ORIENTED_EDGE('',*,*,#559,.F.);
#189=ORIENTED_EDGE('',*,*,#560,.T.);
#190=ORIENTED_EDGE('',*,*,#561,.F.);
#191=ORIENTED_EDGE('',*,*,#500,.T.);
#192=ORIENTED_EDGE('',*,*,#562,.F.);
#193=ORIENTED_EDGE('',*,*,#550,.T.);
#194=ORIENTED_EDGE('',*,*,#563,.T.);
#195=ORIENTED_EDGE('',*,*,#556,.F.);
#196=ORIENTED_EDGE('',*,*,#564,.F.);
#197=ORIENTED_EDGE('',*,*,#565,.T.);
#198=ORIENTED_EDGE('',*,*,#498,.F.);
#199=ORIENTED_EDGE('',*,*,#566,.T.);
#200=ORIENTED_EDGE('',*,*,#567,.F.);
#201=ORIENTED_EDGE('',*,*,#568,.F.);
#202=ORIENTED_EDGE('',*,*,#569,.F.);
#203=ORIENTED_EDGE('',*,*,#570,.F.);
#204=ORIENTED_EDGE('',*,*,#571,.F.);
#205=ORIENTED_EDGE('',*,*,#572,.T.);
#206=ORIENTED_EDGE('',*,*,#464,.T.);
#207=ORIENTED_EDGE('',*,*,#507,.F.);
#208=ORIENTED_EDGE('',*,*,#482,.F.);
#209=ORIENTED_EDGE('',*,*,#512,.T.);
#210=ORIENTED_EDGE('',*,*,#468,.T.);
#211=ORIENTED_EDGE('',*,*,#573,.F.);
#212=ORIENTED_EDGE('',*,*,#574,.F.);
#213=ORIENTED_EDGE('',*,*,#575,.T.);
#214=ORIENTED_EDGE('',*,*,#576,.F.);
#215=ORIENTED_EDGE('',*,*,#577,.F.);
#216=ORIENTED_EDGE('',*,*,#578,.T.);
#217=ORIENTED_EDGE('',*,*,#525,.F.);
#218=ORIENTED_EDGE('',*,*,#579,.T.);
#219=ORIENTED_EDGE('',*,*,#539,.T.);
#220=ORIENTED_EDGE('',*,*,#580,.F.);
#221=ORIENTED_EDGE('',*,*,#581,.T.);
#222=ORIENTED_EDGE('',*,*,#582,.T.);
#223=ORIENTED_EDGE('',*,*,#583,.F.);
#224=ORIENTED_EDGE('',*,*,#584,.F.);
#225=ORIENTED_EDGE('',*,*,#585,.F.);
#226=ORIENTED_EDGE('',*,*,#586,.T.);
#227=ORIENTED_EDGE('',*,*,#571,.T.);
#228=ORIENTED_EDGE('',*,*,#587,.T.);
#229=ORIENTED_EDGE('',*,*,#588,.F.);
#230=ORIENTED_EDGE('',*,*,#589,.F.);
#231=ORIENTED_EDGE('',*,*,#574,.T.);
#232=ORIENTED_EDGE('',*,*,#590,.F.);
#233=ORIENTED_EDGE('',*,*,#505,.F.);
#234=ORIENTED_EDGE('',*,*,#477,.T.);
#235=ORIENTED_EDGE('',*,*,#591,.T.);
#236=ORIENTED_EDGE('',*,*,#475,.F.);
#237=ORIENTED_EDGE('',*,*,#592,.T.);
#238=ORIENTED_EDGE('',*,*,#593,.T.);
#239=ORIENTED_EDGE('',*,*,#594,.F.);
#240=ORIENTED_EDGE('',*,*,#595,.T.);
#241=ORIENTED_EDGE('',*,*,#596,.T.);
#242=ORIENTED_EDGE('',*,*,#597,.T.);
#243=ORIENTED_EDGE('',*,*,#598,.T.);
#244=ORIENTED_EDGE('',*,*,#599,.T.);
#245=ORIENTED_EDGE('',*,*,#594,.T.);
#246=ORIENTED_EDGE('',*,*,#600,.T.);
#247=ORIENTED_EDGE('',*,*,#557,.T.);
#248=ORIENTED_EDGE('',*,*,#563,.F.);
#249=ORIENTED_EDGE('',*,*,#549,.F.);
#250=ORIENTED_EDGE('',*,*,#601,.T.);
#251=ORIENTED_EDGE('',*,*,#591,.F.);
#252=ORIENTED_EDGE('',*,*,#476,.T.);
#253=ORIENTED_EDGE('',*,*,#602,.F.);
#254=ORIENTED_EDGE('',*,*,#577,.T.);
#255=ORIENTED_EDGE('',*,*,#603,.T.);
#256=ORIENTED_EDGE('',*,*,#604,.F.);
#257=ORIENTED_EDGE('',*,*,#605,.F.);
#258=ORIENTED_EDGE('',*,*,#581,.F.);
#259=ORIENTED_EDGE('',*,*,#606,.T.);
#260=ORIENTED_EDGE('',*,*,#607,.T.);
#261=ORIENTED_EDGE('',*,*,#540,.F.);
#262=ORIENTED_EDGE('',*,*,#579,.F.);
#263=ORIENTED_EDGE('',*,*,#524,.T.);
#264=ORIENTED_EDGE('',*,*,#608,.T.);
#265=ORIENTED_EDGE('',*,*,#609,.F.);
#266=ORIENTED_EDGE('',*,*,#544,.T.);
#267=ORIENTED_EDGE('',*,*,#610,.F.);
#268=ORIENTED_EDGE('',*,*,#530,.F.);
#269=ORIENTED_EDGE('',*,*,#611,.F.);
#270=ORIENTED_EDGE('',*,*,#519,.F.);
#271=ORIENTED_EDGE('',*,*,#612,.F.);
#272=ORIENTED_EDGE('',*,*,#527,.F.);
#273=ORIENTED_EDGE('',*,*,#613,.T.);
#274=ORIENTED_EDGE('',*,*,#604,.T.);
#275=ORIENTED_EDGE('',*,*,#614,.F.);
#276=ORIENTED_EDGE('',*,*,#615,.T.);
#277=ORIENTED_EDGE('',*,*,#588,.T.);
#278=ORIENTED_EDGE('',*,*,#616,.F.);
#279=ORIENTED_EDGE('',*,*,#617,.T.);
#280=ORIENTED_EDGE('',*,*,#607,.F.);
#281=ORIENTED_EDGE('',*,*,#618,.F.);
#282=ORIENTED_EDGE('',*,*,#537,.T.);
#283=ORIENTED_EDGE('',*,*,#619,.F.);
#284=ORIENTED_EDGE('',*,*,#620,.F.);
#285=ORIENTED_EDGE('',*,*,#621,.F.);
#286=ORIENTED_EDGE('',*,*,#622,.F.);
#287=ORIENTED_EDGE('',*,*,#623,.F.);
#288=ORIENTED_EDGE('',*,*,#608,.F.);
#289=ORIENTED_EDGE('',*,*,#523,.T.);
#290=ORIENTED_EDGE('',*,*,#534,.T.);
#291=ORIENTED_EDGE('',*,*,#541,.F.);
#292=ORIENTED_EDGE('',*,*,#599,.F.);
#293=ORIENTED_EDGE('',*,*,#623,.T.);
#294=ORIENTED_EDGE('',*,*,#598,.F.);
#295=ORIENTED_EDGE('',*,*,#622,.T.);
#296=ORIENTED_EDGE('',*,*,#597,.F.);
#297=ORIENTED_EDGE('',*,*,#621,.T.);
#298=ORIENTED_EDGE('',*,*,#596,.F.);
#299=ORIENTED_EDGE('',*,*,#620,.T.);
#300=ORIENTED_EDGE('',*,*,#595,.F.);
#301=ORIENTED_EDGE('',*,*,#619,.T.);
#302=ORIENTED_EDGE('',*,*,#615,.F.);
#303=ORIENTED_EDGE('',*,*,#624,.F.);
#304=ORIENTED_EDGE('',*,*,#575,.F.);
#305=ORIENTED_EDGE('',*,*,#589,.T.);
#306=ORIENTED_EDGE('',*,*,#624,.T.);
#307=ORIENTED_EDGE('',*,*,#614,.T.);
#308=ORIENTED_EDGE('',*,*,#603,.F.);
#309=ORIENTED_EDGE('',*,*,#576,.T.);
#310=ORIENTED_EDGE('',*,*,#613,.F.);
#311=ORIENTED_EDGE('',*,*,#526,.F.);
#312=ORIENTED_EDGE('',*,*,#578,.F.);
#313=ORIENTED_EDGE('',*,*,#602,.T.);
#314=ORIENTED_EDGE('',*,*,#538,.T.);
#315=ORIENTED_EDGE('',*,*,#618,.T.);
#316=ORIENTED_EDGE('',*,*,#606,.F.);
#317=ORIENTED_EDGE('',*,*,#580,.T.);
#318=ORIENTED_EDGE('',*,*,#617,.F.);
#319=ORIENTED_EDGE('',*,*,#625,.F.);
#320=ORIENTED_EDGE('',*,*,#582,.F.);
#321=ORIENTED_EDGE('',*,*,#605,.T.);
#322=ORIENTED_EDGE('',*,*,#625,.T.);
#323=ORIENTED_EDGE('',*,*,#616,.T.);
#324=ORIENTED_EDGE('',*,*,#587,.F.);
#325=ORIENTED_EDGE('',*,*,#583,.T.);
#326=ORIENTED_EDGE('',*,*,#626,.T.);
#327=ORIENTED_EDGE('',*,*,#570,.T.);
#328=ORIENTED_EDGE('',*,*,#627,.T.);
#329=ORIENTED_EDGE('',*,*,#569,.T.);
#330=ORIENTED_EDGE('',*,*,#628,.T.);
#331=ORIENTED_EDGE('',*,*,#568,.T.);
#332=ORIENTED_EDGE('',*,*,#629,.T.);
#333=ORIENTED_EDGE('',*,*,#567,.T.);
#334=ORIENTED_EDGE('',*,*,#593,.F.);
#335=ORIENTED_EDGE('',*,*,#630,.F.);
#336=ORIENTED_EDGE('',*,*,#631,.T.);
#337=ORIENTED_EDGE('',*,*,#503,.T.);
#338=ORIENTED_EDGE('',*,*,#558,.F.);
#339=ORIENTED_EDGE('',*,*,#600,.F.);
#340=ORIENTED_EDGE('',*,*,#590,.T.);
#341=ORIENTED_EDGE('',*,*,#601,.F.);
#342=ORIENTED_EDGE('',*,*,#548,.T.);
#343=ORIENTED_EDGE('',*,*,#493,.T.);
#344=ORIENTED_EDGE('',*,*,#514,.F.);
#345=ORIENTED_EDGE('',*,*,#632,.F.);
#346=ORIENTED_EDGE('',*,*,#479,.T.);
#347=ORIENTED_EDGE('',*,*,#504,.T.);
#348=ORIENTED_EDGE('',*,*,#584,.T.);
#349=ORIENTED_EDGE('',*,*,#573,.T.);
#350=ORIENTED_EDGE('',*,*,#467,.T.);
#351=ORIENTED_EDGE('',*,*,#633,.F.);
#352=ORIENTED_EDGE('',*,*,#585,.T.);
#353=ORIENTED_EDGE('',*,*,#633,.T.);
#354=ORIENTED_EDGE('',*,*,#466,.T.);
#355=ORIENTED_EDGE('',*,*,#634,.F.);
#356=ORIENTED_EDGE('',*,*,#634,.T.);
#357=ORIENTED_EDGE('',*,*,#465,.F.);
#358=ORIENTED_EDGE('',*,*,#572,.F.);
#359=ORIENTED_EDGE('',*,*,#586,.F.);
#360=ORIENTED_EDGE('',*,*,#560,.F.);
#361=ORIENTED_EDGE('',*,*,#635,.T.);
#362=ORIENTED_EDGE('',*,*,#635,.F.);
#363=ORIENTED_EDGE('',*,*,#559,.T.);
#364=ORIENTED_EDGE('',*,*,#501,.F.);
#365=ORIENTED_EDGE('',*,*,#561,.T.);
#366=ORIENTED_EDGE('',*,*,#555,.F.);
#367=ORIENTED_EDGE('',*,*,#636,.T.);
#368=ORIENTED_EDGE('',*,*,#564,.T.);
#369=ORIENTED_EDGE('',*,*,#636,.F.);
#370=ORIENTED_EDGE('',*,*,#554,.T.);
#371=ORIENTED_EDGE('',*,*,#499,.F.);
#372=ORIENTED_EDGE('',*,*,#565,.F.);
#373=ORIENTED_EDGE('',*,*,#637,.T.);
#374=ORIENTED_EDGE('',*,*,#551,.T.);
#375=ORIENTED_EDGE('',*,*,#562,.T.);
#376=ORIENTED_EDGE('',*,*,#552,.F.);
#377=ORIENTED_EDGE('',*,*,#637,.F.);
#378=ORIENTED_EDGE('',*,*,#566,.F.);
#379=ORIENTED_EDGE('',*,*,#497,.F.);
#380=ORIENTED_EDGE('',*,*,#638,.T.);
#381=ORIENTED_EDGE('',*,*,#546,.T.);
#382=ORIENTED_EDGE('',*,*,#547,.F.);
#383=ORIENTED_EDGE('',*,*,#638,.F.);
#384=ORIENTED_EDGE('',*,*,#553,.F.);
#385=ORIENTED_EDGE('',*,*,#495,.F.);
#386=ORIENTED_EDGE('',*,*,#542,.F.);
#387=ORIENTED_EDGE('',*,*,#532,.T.);
#388=ORIENTED_EDGE('',*,*,#639,.F.);
#389=ORIENTED_EDGE('',*,*,#639,.T.);
#390=ORIENTED_EDGE('',*,*,#531,.T.);
#391=ORIENTED_EDGE('',*,*,#610,.T.);
#392=ORIENTED_EDGE('',*,*,#543,.F.);
#393=ORIENTED_EDGE('',*,*,#535,.F.);
#394=ORIENTED_EDGE('',*,*,#640,.F.);
#395=ORIENTED_EDGE('',*,*,#640,.T.);
#396=ORIENTED_EDGE('',*,*,#545,.T.);
#397=ORIENTED_EDGE('',*,*,#609,.T.);
#398=ORIENTED_EDGE('',*,*,#536,.F.);
#399=ORIENTED_EDGE('',*,*,#528,.T.);
#400=ORIENTED_EDGE('',*,*,#521,.T.);
#401=ORIENTED_EDGE('',*,*,#641,.F.);
#402=ORIENTED_EDGE('',*,*,#641,.T.);
#403=ORIENTED_EDGE('',*,*,#520,.T.);
#404=ORIENTED_EDGE('',*,*,#611,.T.);
#405=ORIENTED_EDGE('',*,*,#529,.F.);
#406=ORIENTED_EDGE('',*,*,#642,.F.);
#407=ORIENTED_EDGE('',*,*,#517,.T.);
#408=ORIENTED_EDGE('',*,*,#642,.T.);
#409=ORIENTED_EDGE('',*,*,#516,.T.);
#410=ORIENTED_EDGE('',*,*,#612,.T.);
#411=ORIENTED_EDGE('',*,*,#518,.F.);
#412=ORIENTED_EDGE('',*,*,#629,.F.);
#413=ORIENTED_EDGE('',*,*,#462,.F.);
#414=ORIENTED_EDGE('',*,*,#643,.F.);
#415=ORIENTED_EDGE('',*,*,#644,.T.);
#416=ORIENTED_EDGE('',*,*,#645,.T.);
#417=ORIENTED_EDGE('',*,*,#508,.T.);
#418=ORIENTED_EDGE('',*,*,#646,.T.);
#419=ORIENTED_EDGE('',*,*,#487,.T.);
#420=ORIENTED_EDGE('',*,*,#647,.F.);
#421=ORIENTED_EDGE('',*,*,#644,.F.);
#422=ORIENTED_EDGE('',*,*,#647,.T.);
#423=ORIENTED_EDGE('',*,*,#486,.T.);
#424=ORIENTED_EDGE('',*,*,#509,.F.);
#425=ORIENTED_EDGE('',*,*,#645,.F.);
#426=ORIENTED_EDGE('',*,*,#643,.T.);
#427=ORIENTED_EDGE('',*,*,#473,.T.);
#428=ORIENTED_EDGE('',*,*,#488,.F.);
#429=ORIENTED_EDGE('',*,*,#646,.F.);
#430=ORIENTED_EDGE('',*,*,#628,.F.);
#431=ORIENTED_EDGE('',*,*,#470,.F.);
#432=ORIENTED_EDGE('',*,*,#511,.F.);
#433=ORIENTED_EDGE('',*,*,#648,.F.);
#434=ORIENTED_EDGE('',*,*,#649,.T.);
#435=ORIENTED_EDGE('',*,*,#650,.T.);
#436=ORIENTED_EDGE('',*,*,#648,.T.);
#437=ORIENTED_EDGE('',*,*,#515,.T.);
#438=ORIENTED_EDGE('',*,*,#491,.F.);
#439=ORIENTED_EDGE('',*,*,#651,.F.);
#440=ORIENTED_EDGE('',*,*,#651,.T.);
#441=ORIENTED_EDGE('',*,*,#490,.T.);
#442=ORIENTED_EDGE('',*,*,#652,.F.);
#443=ORIENTED_EDGE('',*,*,#649,.F.);
#444=ORIENTED_EDGE('',*,*,#652,.T.);
#445=ORIENTED_EDGE('',*,*,#489,.T.);
#446=ORIENTED_EDGE('',*,*,#471,.F.);
#447=ORIENTED_EDGE('',*,*,#650,.F.);
#448=ORIENTED_EDGE('',*,*,#480,.T.);
#449=ORIENTED_EDGE('',*,*,#632,.T.);
#450=ORIENTED_EDGE('',*,*,#513,.F.);
#451=ORIENTED_EDGE('',*,*,#627,.F.);
#452=ORIENTED_EDGE('',*,*,#474,.T.);
#453=ORIENTED_EDGE('',*,*,#506,.T.);
#454=ORIENTED_EDGE('',*,*,#653,.T.);
#455=ORIENTED_EDGE('',*,*,#630,.T.);
#456=ORIENTED_EDGE('',*,*,#592,.F.);
#457=ORIENTED_EDGE('',*,*,#626,.F.);
#458=ORIENTED_EDGE('',*,*,#510,.T.);
#459=ORIENTED_EDGE('',*,*,#484,.T.);
#460=ORIENTED_EDGE('',*,*,#631,.F.);
#461=ORIENTED_EDGE('',*,*,#653,.F.);
#462=EDGE_CURVE('',#654,#655,#788,.T.);
#463=EDGE_CURVE('',#656,#655,#789,.T.);
#464=EDGE_CURVE('',#657,#656,#790,.T.);
#465=EDGE_CURVE('',#657,#658,#791,.T.);
#466=EDGE_CURVE('',#659,#658,#792,.T.);
#467=EDGE_CURVE('',#660,#659,#793,.T.);
#468=EDGE_CURVE('',#661,#660,#794,.T.);
#469=EDGE_CURVE('',#661,#662,#795,.T.);
#470=EDGE_CURVE('',#662,#663,#796,.T.);
#471=EDGE_CURVE('',#663,#664,#797,.T.);
#472=EDGE_CURVE('',#664,#665,#798,.T.);
#473=EDGE_CURVE('',#654,#665,#799,.T.);
#474=EDGE_CURVE('',#666,#667,#800,.T.);
#475=EDGE_CURVE('',#666,#668,#801,.T.);
#476=EDGE_CURVE('',#669,#668,#802,.T.);
#477=EDGE_CURVE('',#670,#669,#803,.T.);
#478=EDGE_CURVE('',#671,#670,#804,.T.);
#479=EDGE_CURVE('',#672,#671,#805,.T.);
#480=EDGE_CURVE('',#673,#672,#806,.T.);
#481=EDGE_CURVE('',#674,#673,#807,.T.);
#482=EDGE_CURVE('',#674,#675,#808,.T.);
#483=EDGE_CURVE('',#675,#667,#809,.T.);
#484=EDGE_CURVE('',#676,#677,#810,.T.);
#485=EDGE_CURVE('',#676,#678,#811,.T.);
#486=EDGE_CURVE('',#679,#678,#812,.T.);
#487=EDGE_CURVE('',#680,#679,#33,.T.);
#488=EDGE_CURVE('',#680,#665,#813,.T.);
#489=EDGE_CURVE('',#681,#664,#814,.T.);
#490=EDGE_CURVE('',#682,#681,#34,.T.);
#491=EDGE_CURVE('',#682,#683,#815,.T.);
#492=EDGE_CURVE('',#684,#683,#816,.T.);
#493=EDGE_CURVE('',#685,#684,#35,.T.);
#494=EDGE_CURVE('',#685,#686,#817,.T.);
#495=EDGE_CURVE('',#686,#687,#36,.T.);
#496=EDGE_CURVE('',#687,#688,#818,.T.);
#497=EDGE_CURVE('',#688,#689,#37,.T.);
#498=EDGE_CURVE('',#689,#690,#819,.T.);
#499=EDGE_CURVE('',#690,#691,#38,.T.);
#500=EDGE_CURVE('',#692,#691,#820,.T.);
#501=EDGE_CURVE('',#692,#693,#39,.T.);
#502=EDGE_CURVE('',#694,#693,#821,.T.);
#503=EDGE_CURVE('',#677,#694,#40,.T.);
#504=EDGE_CURVE('',#671,#695,#41,.T.);
#505=EDGE_CURVE('',#670,#695,#822,.T.);
#506=EDGE_CURVE('',#667,#696,#823,.T.);
#507=EDGE_CURVE('',#675,#656,#824,.T.);
#508=EDGE_CURVE('',#697,#655,#825,.T.);
#509=EDGE_CURVE('',#697,#678,#826,.T.);
#510=EDGE_CURVE('',#696,#676,#827,.T.);
#511=EDGE_CURVE('',#698,#662,#828,.T.);
#512=EDGE_CURVE('',#674,#661,#829,.T.);
#513=EDGE_CURVE('',#673,#699,#830,.T.);
#514=EDGE_CURVE('',#699,#684,#831,.T.);
#515=EDGE_CURVE('',#698,#683,#832,.T.);
#516=EDGE_CURVE('',#700,#701,#833,.T.);
#517=EDGE_CURVE('',#702,#700,#834,.T.);
#518=EDGE_CURVE('',#702,#703,#835,.T.);
#519=EDGE_CURVE('',#703,#704,#836,.T.);
#520=EDGE_CURVE('',#705,#704,#837,.T.);
#521=EDGE_CURVE('',#706,#705,#838,.T.);
#522=EDGE_CURVE('',#706,#707,#839,.T.);
#523=EDGE_CURVE('',#708,#707,#840,.T.);
#524=EDGE_CURVE('',#709,#708,#841,.T.);
#525=EDGE_CURVE('',#709,#710,#842,.T.);
#526=EDGE_CURVE('',#710,#711,#843,.T.);
#527=EDGE_CURVE('',#711,#701,#844,.T.);
#528=EDGE_CURVE('',#712,#706,#845,.T.);
#529=EDGE_CURVE('',#712,#713,#846,.T.);
#530=EDGE_CURVE('',#713,#714,#847,.T.);
#531=EDGE_CURVE('',#715,#714,#848,.T.);
#532=EDGE_CURVE('',#716,#715,#849,.T.);
#533=EDGE_CURVE('',#716,#717,#850,.T.);
#534=EDGE_CURVE('',#707,#717,#851,.T.);
#535=EDGE_CURVE('',#718,#719,#852,.T.);
#536=EDGE_CURVE('',#719,#720,#853,.T.);
#537=EDGE_CURVE('',#721,#720,#854,.T.);
#538=EDGE_CURVE('',#722,#721,#855,.T.);
#539=EDGE_CURVE('',#723,#722,#856,.T.);
#540=EDGE_CURVE('',#723,#724,#857,.T.);
#541=EDGE_CURVE('',#724,#717,#858,.T.);
#542=EDGE_CURVE('',#716,#725,#859,.T.);
#543=EDGE_CURVE('',#725,#726,#860,.T.);
#544=EDGE_CURVE('',#727,#726,#861,.T.);
#545=EDGE_CURVE('',#718,#727,#862,.T.);
#546=EDGE_CURVE('',#728,#729,#863,.T.);
#547=EDGE_CURVE('',#728,#686,#864,.T.);
#548=EDGE_CURVE('',#730,#685,#865,.T.);
#549=EDGE_CURVE('',#730,#731,#866,.T.);
#550=EDGE_CURVE('',#732,#731,#867,.T.);
#551=EDGE_CURVE('',#733,#732,#868,.T.);
#552=EDGE_CURVE('',#733,#688,#869,.T.);
#553=EDGE_CURVE('',#687,#729,#870,.F.);
#554=EDGE_CURVE('',#734,#691,#871,.T.);
#555=EDGE_CURVE('',#734,#735,#872,.T.);
#556=EDGE_CURVE('',#735,#736,#873,.T.);
#557=EDGE_CURVE('',#737,#736,#874,.T.);
#558=EDGE_CURVE('',#737,#694,#875,.T.);
#559=EDGE_CURVE('',#738,#693,#876,.T.);
#560=EDGE_CURVE('',#738,#739,#877,.T.);
#561=EDGE_CURVE('',#692,#739,#878,.F.);
#562=EDGE_CURVE('',#732,#740,#879,.T.);
#563=EDGE_CURVE('',#731,#736,#880,.T.);
#564=EDGE_CURVE('',#741,#735,#881,.T.);
#565=EDGE_CURVE('',#741,#690,#882,.T.);
#566=EDGE_CURVE('',#689,#740,#883,.F.);
#567=EDGE_CURVE('',#742,#742,#42,.T.);
#568=EDGE_CURVE('',#743,#743,#43,.T.);
#569=EDGE_CURVE('',#744,#744,#44,.T.);
#570=EDGE_CURVE('',#745,#745,#45,.T.);
#571=EDGE_CURVE('',#746,#747,#884,.T.);
#572=EDGE_CURVE('',#746,#657,#885,.T.);
#573=EDGE_CURVE('',#748,#660,#886,.T.);
#574=EDGE_CURVE('',#749,#748,#887,.T.);
#575=EDGE_CURVE('',#749,#750,#888,.T.);
#576=EDGE_CURVE('',#751,#750,#889,.T.);
#577=EDGE_CURVE('',#752,#751,#890,.T.);
#578=EDGE_CURVE('',#752,#710,#891,.T.);
#579=EDGE_CURVE('',#709,#723,#892,.T.);
#580=EDGE_CURVE('',#753,#722,#893,.T.);
#581=EDGE_CURVE('',#753,#754,#894,.T.);
#582=EDGE_CURVE('',#754,#755,#895,.T.);
#583=EDGE_CURVE('',#747,#755,#896,.T.);
#584=EDGE_CURVE('',#756,#748,#897,.T.);
#585=EDGE_CURVE('',#757,#756,#898,.T.);
#586=EDGE_CURVE('',#757,#746,#899,.T.);
#587=EDGE_CURVE('',#747,#758,#900,.T.);
#588=EDGE_CURVE('',#759,#758,#901,.T.);
#589=EDGE_CURVE('',#749,#759,#902,.T.);
#590=EDGE_CURVE('',#695,#760,#903,.F.);
#591=EDGE_CURVE('',#669,#760,#904,.T.);
#592=EDGE_CURVE('',#666,#761,#905,.T.);
#593=EDGE_CURVE('',#761,#762,#906,.F.);
#594=EDGE_CURVE('',#668,#762,#907,.T.);
#595=EDGE_CURVE('',#763,#763,#46,.T.);
#596=EDGE_CURVE('',#764,#764,#47,.T.);
#597=EDGE_CURVE('',#765,#765,#48,.T.);
#598=EDGE_CURVE('',#766,#766,#49,.T.);
#599=EDGE_CURVE('',#767,#767,#50,.T.);
#600=EDGE_CURVE('',#762,#737,#51,.T.);
#601=EDGE_CURVE('',#730,#760,#52,.T.);
#602=EDGE_CURVE('',#752,#768,#908,.T.);
#603=EDGE_CURVE('',#751,#769,#909,.T.);
#604=EDGE_CURVE('',#768,#769,#910,.T.);
#605=EDGE_CURVE('',#754,#770,#911,.T.);
#606=EDGE_CURVE('',#753,#771,#912,.T.);
#607=EDGE_CURVE('',#771,#770,#913,.T.);
#608=EDGE_CURVE('',#708,#724,#914,.T.);
#609=EDGE_CURVE('',#727,#720,#53,.T.);
#610=EDGE_CURVE('',#714,#726,#54,.T.);
#611=EDGE_CURVE('',#704,#713,#55,.T.);
#612=EDGE_CURVE('',#701,#703,#56,.T.);
#613=EDGE_CURVE('',#711,#768,#915,.T.);
#614=EDGE_CURVE('',#772,#769,#916,.T.);
#615=EDGE_CURVE('',#772,#759,#917,.T.);
#616=EDGE_CURVE('',#773,#758,#918,.T.);
#617=EDGE_CURVE('',#773,#770,#919,.T.);
#618=EDGE_CURVE('',#721,#771,#920,.T.);
#619=EDGE_CURVE('',#774,#774,#57,.T.);
#620=EDGE_CURVE('',#775,#775,#58,.T.);
#621=EDGE_CURVE('',#776,#776,#59,.T.);
#622=EDGE_CURVE('',#777,#777,#60,.T.);
#623=EDGE_CURVE('',#778,#778,#61,.T.);
#624=EDGE_CURVE('',#750,#772,#921,.T.);
#625=EDGE_CURVE('',#755,#773,#922,.T.);
#626=EDGE_CURVE('',#779,#779,#62,.F.);
#627=EDGE_CURVE('',#780,#780,#63,.F.);
#628=EDGE_CURVE('',#781,#781,#64,.F.);
#629=EDGE_CURVE('',#782,#782,#65,.F.);
#630=EDGE_CURVE('',#783,#761,#66,.F.);
#631=EDGE_CURVE('',#783,#677,#923,.T.);
#632=EDGE_CURVE('',#672,#699,#67,.F.);
#633=EDGE_CURVE('',#756,#659,#924,.T.);
#634=EDGE_CURVE('',#757,#658,#925,.T.);
#635=EDGE_CURVE('',#738,#739,#68,.F.);
#636=EDGE_CURVE('',#734,#741,#69,.F.);
#637=EDGE_CURVE('',#740,#733,#70,.F.);
#638=EDGE_CURVE('',#729,#728,#71,.F.);
#639=EDGE_CURVE('',#725,#715,#72,.F.);
#640=EDGE_CURVE('',#719,#718,#73,.F.);
#641=EDGE_CURVE('',#712,#705,#74,.F.);
#642=EDGE_CURVE('',#702,#700,#75,.F.);
#643=EDGE_CURVE('',#784,#654,#926,.T.);
#644=EDGE_CURVE('',#784,#785,#76,.F.);
#645=EDGE_CURVE('',#785,#697,#927,.T.);
#646=EDGE_CURVE('',#784,#680,#928,.T.);
#647=EDGE_CURVE('',#785,#679,#929,.T.);
#648=EDGE_CURVE('',#786,#698,#930,.T.);
#649=EDGE_CURVE('',#786,#787,#77,.F.);
#650=EDGE_CURVE('',#787,#663,#931,.T.);
#651=EDGE_CURVE('',#786,#682,#932,.T.);
#652=EDGE_CURVE('',#787,#681,#933,.T.);
#653=EDGE_CURVE('',#696,#783,#934,.T.);
#654=VERTEX_POINT('',#1898);
#655=VERTEX_POINT('',#1899);
#656=VERTEX_POINT('',#1901);
#657=VERTEX_POINT('',#1903);
#658=VERTEX_POINT('',#1905);
#659=VERTEX_POINT('',#1907);
#660=VERTEX_POINT('',#1909);
#661=VERTEX_POINT('',#1911);
#662=VERTEX_POINT('',#1913);
#663=VERTEX_POINT('',#1915);
#664=VERTEX_POINT('',#1917);
#665=VERTEX_POINT('',#1919);
#666=VERTEX_POINT('',#1923);
#667=VERTEX_POINT('',#1924);
#668=VERTEX_POINT('',#1926);
#669=VERTEX_POINT('',#1928);
#670=VERTEX_POINT('',#1930);
#671=VERTEX_POINT('',#1932);
#672=VERTEX_POINT('',#1934);
#673=VERTEX_POINT('',#1936);
#674=VERTEX_POINT('',#1938);
#675=VERTEX_POINT('',#1940);
#676=VERTEX_POINT('',#1944);
#677=VERTEX_POINT('',#1945);
#678=VERTEX_POINT('',#1947);
#679=VERTEX_POINT('',#1949);
#680=VERTEX_POINT('',#1951);
#681=VERTEX_POINT('',#1954);
#682=VERTEX_POINT('',#1956);
#683=VERTEX_POINT('',#1958);
#684=VERTEX_POINT('',#1960);
#685=VERTEX_POINT('',#1962);
#686=VERTEX_POINT('',#1964);
#687=VERTEX_POINT('',#1966);
#688=VERTEX_POINT('',#1968);
#689=VERTEX_POINT('',#1970);
#690=VERTEX_POINT('',#1972);
#691=VERTEX_POINT('',#1974);
#692=VERTEX_POINT('',#1976);
#693=VERTEX_POINT('',#1978);
#694=VERTEX_POINT('',#1980);
#695=VERTEX_POINT('',#1984);
#696=VERTEX_POINT('',#1988);
#697=VERTEX_POINT('',#1991);
#698=VERTEX_POINT('',#1996);
#699=VERTEX_POINT('',#1999);
#700=VERTEX_POINT('',#2004);
#701=VERTEX_POINT('',#2005);
#702=VERTEX_POINT('',#2007);
#703=VERTEX_POINT('',#2009);
#704=VERTEX_POINT('',#2011);
#705=VERTEX_POINT('',#2013);
#706=VERTEX_POINT('',#2015);
#707=VERTEX_POINT('',#2017);
#708=VERTEX_POINT('',#2019);
#709=VERTEX_POINT('',#2021);
#710=VERTEX_POINT('',#2023);
#711=VERTEX_POINT('',#2025);
#712=VERTEX_POINT('',#2029);
#713=VERTEX_POINT('',#2031);
#714=VERTEX_POINT('',#2033);
#715=VERTEX_POINT('',#2035);
#716=VERTEX_POINT('',#2037);
#717=VERTEX_POINT('',#2039);
#718=VERTEX_POINT('',#2043);
#719=VERTEX_POINT('',#2044);
#720=VERTEX_POINT('',#2046);
#721=VERTEX_POINT('',#2048);
#722=VERTEX_POINT('',#2050);
#723=VERTEX_POINT('',#2052);
#724=VERTEX_POINT('',#2054);
#725=VERTEX_POINT('',#2057);
#726=VERTEX_POINT('',#2059);
#727=VERTEX_POINT('',#2061);
#728=VERTEX_POINT('',#2065);
#729=VERTEX_POINT('',#2066);
#730=VERTEX_POINT('',#2069);
#731=VERTEX_POINT('',#2071);
#732=VERTEX_POINT('',#2073);
#733=VERTEX_POINT('',#2075);
#734=VERTEX_POINT('',#2080);
#735=VERTEX_POINT('',#2082);
#736=VERTEX_POINT('',#2084);
#737=VERTEX_POINT('',#2086);
#738=VERTEX_POINT('',#2089);
#739=VERTEX_POINT('',#2091);
#740=VERTEX_POINT('',#2095);
#741=VERTEX_POINT('',#2098);
#742=VERTEX_POINT('',#2103);
#743=VERTEX_POINT('',#2105);
#744=VERTEX_POINT('',#2107);
#745=VERTEX_POINT('',#2109);
#746=VERTEX_POINT('',#2111);
#747=VERTEX_POINT('',#2112);
#748=VERTEX_POINT('',#2115);
#749=VERTEX_POINT('',#2117);
#750=VERTEX_POINT('',#2119);
#751=VERTEX_POINT('',#2121);
#752=VERTEX_POINT('',#2123);
#753=VERTEX_POINT('',#2127);
#754=VERTEX_POINT('',#2129);
#755=VERTEX_POINT('',#2131);
#756=VERTEX_POINT('',#2135);
#757=VERTEX_POINT('',#2137);
#758=VERTEX_POINT('',#2140);
#759=VERTEX_POINT('',#2142);
#760=VERTEX_POINT('',#2146);
#761=VERTEX_POINT('',#2150);
#762=VERTEX_POINT('',#2152);
#763=VERTEX_POINT('',#2156);
#764=VERTEX_POINT('',#2158);
#765=VERTEX_POINT('',#2160);
#766=VERTEX_POINT('',#2162);
#767=VERTEX_POINT('',#2164);
#768=VERTEX_POINT('',#2169);
#769=VERTEX_POINT('',#2171);
#770=VERTEX_POINT('',#2175);
#771=VERTEX_POINT('',#2177);
#772=VERTEX_POINT('',#2188);
#773=VERTEX_POINT('',#2191);
#774=VERTEX_POINT('',#2196);
#775=VERTEX_POINT('',#2198);
#776=VERTEX_POINT('',#2200);
#777=VERTEX_POINT('',#2202);
#778=VERTEX_POINT('',#2204);
#779=VERTEX_POINT('',#2220);
#780=VERTEX_POINT('',#2223);
#781=VERTEX_POINT('',#2226);
#782=VERTEX_POINT('',#2229);
#783=VERTEX_POINT('',#2232);
#784=VERTEX_POINT('',#2267);
#785=VERTEX_POINT('',#2269);
#786=VERTEX_POINT('',#2278);
#787=VERTEX_POINT('',#2280);
#788=LINE('',#1897,#935);
#789=LINE('',#1900,#936);
#790=LINE('',#1902,#937);
#791=LINE('',#1904,#938);
#792=LINE('',#1906,#939);
#793=LINE('',#1908,#940);
#794=LINE('',#1910,#941);
#795=LINE('',#1912,#942);
#796=LINE('',#1914,#943);
#797=LINE('',#1916,#944);
#798=LINE('',#1918,#945);
#799=LINE('',#1920,#946);
#800=LINE('',#1922,#947);
#801=LINE('',#1925,#948);
#802=LINE('',#1927,#949);
#803=LINE('',#1929,#950);
#804=LINE('',#1931,#951);
#805=LINE('',#1933,#952);
#806=LINE('',#1935,#953);
#807=LINE('',#1937,#954);
#808=LINE('',#1939,#955);
#809=LINE('',#1941,#956);
#810=LINE('',#1943,#957);
#811=LINE('',#1946,#958);
#812=LINE('',#1948,#959);
#813=LINE('',#1952,#960);
#814=LINE('',#1953,#961);
#815=LINE('',#1957,#962);
#816=LINE('',#1959,#963);
#817=LINE('',#1963,#964);
#818=LINE('',#1967,#965);
#819=LINE('',#1971,#966);
#820=LINE('',#1975,#967);
#821=LINE('',#1979,#968);
#822=LINE('',#1985,#969);
#823=LINE('',#1987,#970);
#824=LINE('',#1989,#971);
#825=LINE('',#1990,#972);
#826=LINE('',#1992,#973);
#827=LINE('',#1993,#974);
#828=LINE('',#1995,#975);
#829=LINE('',#1997,#976);
#830=LINE('',#1998,#977);
#831=LINE('',#2000,#978);
#832=LINE('',#2001,#979);
#833=LINE('',#2003,#980);
#834=LINE('',#2006,#981);
#835=LINE('',#2008,#982);
#836=LINE('',#2010,#983);
#837=LINE('',#2012,#984);
#838=LINE('',#2014,#985);
#839=LINE('',#2016,#986);
#840=LINE('',#2018,#987);
#841=LINE('',#2020,#988);
#842=LINE('',#2022,#989);
#843=LINE('',#2024,#990);
#844=LINE('',#2026,#991);
#845=LINE('',#2028,#992);
#846=LINE('',#2030,#993);
#847=LINE('',#2032,#994);
#848=LINE('',#2034,#995);
#849=LINE('',#2036,#996);
#850=LINE('',#2038,#997);
#851=LINE('',#2040,#998);
#852=LINE('',#2042,#999);
#853=LINE('',#2045,#1000);
#854=LINE('',#2047,#1001);
#855=LINE('',#2049,#1002);
#856=LINE('',#2051,#1003);
#857=LINE('',#2053,#1004);
#858=LINE('',#2055,#1005);
#859=LINE('',#2056,#1006);
#860=LINE('',#2058,#1007);
#861=LINE('',#2060,#1008);
#862=LINE('',#2062,#1009);
#863=LINE('',#2064,#1010);
#864=LINE('',#2067,#1011);
#865=LINE('',#2068,#1012);
#866=LINE('',#2070,#1013);
#867=LINE('',#2072,#1014);
#868=LINE('',#2074,#1015);
#869=LINE('',#2076,#1016);
#870=LINE('',#2077,#1017);
#871=LINE('',#2079,#1018);
#872=LINE('',#2081,#1019);
#873=LINE('',#2083,#1020);
#874=LINE('',#2085,#1021);
#875=LINE('',#2087,#1022);
#876=LINE('',#2088,#1023);
#877=LINE('',#2090,#1024);
#878=LINE('',#2092,#1025);
#879=LINE('',#2094,#1026);
#880=LINE('',#2096,#1027);
#881=LINE('',#2097,#1028);
#882=LINE('',#2099,#1029);
#883=LINE('',#2100,#1030);
#884=LINE('',#2110,#1031);
#885=LINE('',#2113,#1032);
#886=LINE('',#2114,#1033);
#887=LINE('',#2116,#1034);
#888=LINE('',#2118,#1035);
#889=LINE('',#2120,#1036);
#890=LINE('',#2122,#1037);
#891=LINE('',#2124,#1038);
#892=LINE('',#2125,#1039);
#893=LINE('',#2126,#1040);
#894=LINE('',#2128,#1041);
#895=LINE('',#2130,#1042);
#896=LINE('',#2132,#1043);
#897=LINE('',#2134,#1044);
#898=LINE('',#2136,#1045);
#899=LINE('',#2138,#1046);
#900=LINE('',#2139,#1047);
#901=LINE('',#2141,#1048);
#902=LINE('',#2143,#1049);
#903=LINE('',#2145,#1050);
#904=LINE('',#2147,#1051);
#905=LINE('',#2149,#1052);
#906=LINE('',#2151,#1053);
#907=LINE('',#2153,#1054);
#908=LINE('',#2168,#1055);
#909=LINE('',#2170,#1056);
#910=LINE('',#2172,#1057);
#911=LINE('',#2174,#1058);
#912=LINE('',#2176,#1059);
#913=LINE('',#2178,#1060);
#914=LINE('',#2180,#1061);
#915=LINE('',#2186,#1062);
#916=LINE('',#2187,#1063);
#917=LINE('',#2189,#1064);
#918=LINE('',#2190,#1065);
#919=LINE('',#2192,#1066);
#920=LINE('',#2193,#1067);
#921=LINE('',#2211,#1068);
#922=LINE('',#2216,#1069);
#923=LINE('',#2233,#1070);
#924=LINE('',#2237,#1071);
#925=LINE('',#2239,#1072);
#926=LINE('',#2266,#1073);
#927=LINE('',#2270,#1074);
#928=LINE('',#2272,#1075);
#929=LINE('',#2273,#1076);
#930=LINE('',#2277,#1077);
#931=LINE('',#2281,#1078);
#932=LINE('',#2283,#1079);
#933=LINE('',#2285,#1080);
#934=LINE('',#2289,#1081);
#935=VECTOR('',#1522,1.);
#936=VECTOR('',#1523,1.);
#937=VECTOR('',#1524,1.);
#938=VECTOR('',#1525,1.);
#939=VECTOR('',#1526,1.);
#940=VECTOR('',#1527,1.);
#941=VECTOR('',#1528,1.);
#942=VECTOR('',#1529,1.);
#943=VECTOR('',#1530,1.);
#944=VECTOR('',#1531,1.);
#945=VECTOR('',#1532,1.);
#946=VECTOR('',#1533,1.);
#947=VECTOR('',#1536,1.);
#948=VECTOR('',#1537,1.);
#949=VECTOR('',#1538,1.);
#950=VECTOR('',#1539,1.);
#951=VECTOR('',#1540,1.);
#952=VECTOR('',#1541,1.);
#953=VECTOR('',#1542,1.);
#954=VECTOR('',#1543,1.);
#955=VECTOR('',#1544,1.);
#956=VECTOR('',#1545,1.);
#957=VECTOR('',#1548,1.);
#958=VECTOR('',#1549,1.);
#959=VECTOR('',#1550,1.);
#960=VECTOR('',#1553,1.);
#961=VECTOR('',#1554,1.);
#962=VECTOR('',#1557,1.);
#963=VECTOR('',#1558,1.);
#964=VECTOR('',#1561,1.);
#965=VECTOR('',#1564,1.);
#966=VECTOR('',#1567,1.);
#967=VECTOR('',#1570,1.);
#968=VECTOR('',#1573,1.);
#969=VECTOR('',#1580,1.);
#970=VECTOR('',#1583,1.);
#971=VECTOR('',#1584,1.);
#972=VECTOR('',#1585,1.);
#973=VECTOR('',#1586,1.);
#974=VECTOR('',#1587,1.);
#975=VECTOR('',#1590,1.);
#976=VECTOR('',#1591,1.);
#977=VECTOR('',#1592,1.);
#978=VECTOR('',#1593,1.);
#979=VECTOR('',#1594,1.);
#980=VECTOR('',#1597,1.);
#981=VECTOR('',#1598,1.);
#982=VECTOR('',#1599,1.);
#983=VECTOR('',#1600,1.);
#984=VECTOR('',#1601,1.);
#985=VECTOR('',#1602,1.);
#986=VECTOR('',#1603,1.);
#987=VECTOR('',#1604,1.);
#988=VECTOR('',#1605,1.);
#989=VECTOR('',#1606,1.);
#990=VECTOR('',#1607,1.);
#991=VECTOR('',#1608,1.);
#992=VECTOR('',#1611,1.);
#993=VECTOR('',#1612,1.);
#994=VECTOR('',#1613,1.);
#995=VECTOR('',#1614,1.);
#996=VECTOR('',#1615,1.);
#997=VECTOR('',#1616,1.);
#998=VECTOR('',#1617,1.);
#999=VECTOR('',#1620,1.);
#1000=VECTOR('',#1621,1.);
#1001=VECTOR('',#1622,1.);
#1002=VECTOR('',#1623,1.);
#1003=VECTOR('',#1624,1.);
#1004=VECTOR('',#1625,1.);
#1005=VECTOR('',#1626,1.);
#1006=VECTOR('',#1627,1.);
#1007=VECTOR('',#1628,1.);
#1008=VECTOR('',#1629,1.);
#1009=VECTOR('',#1630,1.);
#1010=VECTOR('',#1633,1.);
#1011=VECTOR('',#1634,1.);
#1012=VECTOR('',#1635,1.);
#1013=VECTOR('',#1636,1.);
#1014=VECTOR('',#1637,1.);
#1015=VECTOR('',#1638,1.);
#1016=VECTOR('',#1639,1.);
#1017=VECTOR('',#1640,1.);
#1018=VECTOR('',#1643,1.);
#1019=VECTOR('',#1644,1.);
#1020=VECTOR('',#1645,1.);
#1021=VECTOR('',#1646,1.);
#1022=VECTOR('',#1647,1.);
#1023=VECTOR('',#1648,1.);
#1024=VECTOR('',#1649,1.);
#1025=VECTOR('',#1650,1.);
#1026=VECTOR('',#1653,1.);
#1027=VECTOR('',#1654,1.);
#1028=VECTOR('',#1655,1.);
#1029=VECTOR('',#1656,1.);
#1030=VECTOR('',#1657,1.);
#1031=VECTOR('',#1668,1.);
#1032=VECTOR('',#1669,1.);
#1033=VECTOR('',#1670,1.);
#1034=VECTOR('',#1671,1.);
#1035=VECTOR('',#1672,1.);
#1036=VECTOR('',#1673,1.);
#1037=VECTOR('',#1674,1.);
#1038=VECTOR('',#1675,1.);
#1039=VECTOR('',#1676,1.);
#1040=VECTOR('',#1677,1.);
#1041=VECTOR('',#1678,1.);
#1042=VECTOR('',#1679,1.);
#1043=VECTOR('',#1680,1.);
#1044=VECTOR('',#1683,1.);
#1045=VECTOR('',#1684,1.);
#1046=VECTOR('',#1685,1.);
#1047=VECTOR('',#1686,1.);
#1048=VECTOR('',#1687,1.);
#1049=VECTOR('',#1688,1.);
#1050=VECTOR('',#1691,1.);
#1051=VECTOR('',#1692,1.);
#1052=VECTOR('',#1695,1.);
#1053=VECTOR('',#1696,1.);
#1054=VECTOR('',#1697,1.);
#1055=VECTOR('',#1716,1.);
#1056=VECTOR('',#1717,1.);
#1057=VECTOR('',#1718,1.);
#1058=VECTOR('',#1721,1.);
#1059=VECTOR('',#1722,1.);
#1060=VECTOR('',#1723,1.);
#1061=VECTOR('',#1726,1.);
#1062=VECTOR('',#1737,1.);
#1063=VECTOR('',#1738,1.);
#1064=VECTOR('',#1739,1.);
#1065=VECTOR('',#1740,1.);
#1066=VECTOR('',#1741,1.);
#1067=VECTOR('',#1742,1.);
#1068=VECTOR('',#1767,1.);
#1069=VECTOR('',#1776,1.);
#1070=VECTOR('',#1799,1.);
#1071=VECTOR('',#1806,1.);
#1072=VECTOR('',#1809,1.);
#1073=VECTOR('',#1862,1.);
#1074=VECTOR('',#1865,1.);
#1075=VECTOR('',#1868,1.);
#1076=VECTOR('',#1869,1.);
#1077=VECTOR('',#1876,1.);
#1078=VECTOR('',#1879,1.);
#1079=VECTOR('',#1882,1.);
#1080=VECTOR('',#1885,1.);
#1081=VECTOR('',#1892,1.);
#1082=EDGE_LOOP('',(#78,#79,#80,#81,#82,#83,#84,#85,#86,#87,#88,#89));
#1083=EDGE_LOOP('',(#90,#91,#92,#93,#94,#95,#96,#97,#98,#99));
#1084=EDGE_LOOP('',(#100,#101,#102,#103,#104,#105,#106,#107,#108,#109,#110,#111,#112,#113,#114,#115,#116,#117,#118,#119,#120));
#1085=EDGE_LOOP('',(#121,#122,#123));
#1086=EDGE_LOOP('',(#124,#125,#126,#127,#128,#129,#130,#131));
#1087=EDGE_LOOP('',(#132,#133,#134,#135,#136,#137,#138,#139));
#1088=EDGE_LOOP('',(#140,#141,#142,#143,#144,#145,#146,#147,#148,#149,#150,#151));
#1089=EDGE_LOOP('',(#152,#153,#154,#155,#156,#157,#158,#159));
#1090=EDGE_LOOP('',(#160,#161,#162,#163,#164,#165,#166,#167,#168,#169,#170,#171));
#1091=EDGE_LOOP('',(#172,#173,#174,#175,#176,#177,#178,#179,#180,#181));
#1092=EDGE_LOOP('',(#182,#183,#184,#185,#186,#187,#188,#189,#190,#191));
#1093=EDGE_LOOP('',(#192,#193,#194,#195,#196,#197,#198,#199));
#1094=EDGE_LOOP('',(#200));
#1095=EDGE_LOOP('',(#201));
#1096=EDGE_LOOP('',(#202));
#1097=EDGE_LOOP('',(#203));
#1098=EDGE_LOOP('',(#204,#205,#206,#207,#208,#209,#210,#211,#212,#213,#214,#215,#216,#217,#218,#219,#220,#221,#222,#223));
#1099=EDGE_LOOP('',(#224,#225,#226,#227,#228,#229,#230,#231));
#1100=EDGE_LOOP('',(#232,#233,#234,#235));
#1101=EDGE_LOOP('',(#236,#237,#238,#239));
#1102=EDGE_LOOP('',(#240));
#1103=EDGE_LOOP('',(#241));
#1104=EDGE_LOOP('',(#242));
#1105=EDGE_LOOP('',(#243));
#1106=EDGE_LOOP('',(#244));
#1107=EDGE_LOOP('',(#245,#246,#247,#248,#249,#250,#251,#252));
#1108=EDGE_LOOP('',(#253,#254,#255,#256));
#1109=EDGE_LOOP('',(#257,#258,#259,#260));
#1110=EDGE_LOOP('',(#261,#262,#263,#264));
#1111=EDGE_LOOP('',(#265,#266,#267,#268,#269,#270,#271,#272,#273,#274,#275,#276,#277,#278,#279,#280,#281,#282));
#1112=EDGE_LOOP('',(#283));
#1113=EDGE_LOOP('',(#284));
#1114=EDGE_LOOP('',(#285));
#1115=EDGE_LOOP('',(#286));
#1116=EDGE_LOOP('',(#287));
#1117=EDGE_LOOP('',(#288,#289,#290,#291));
#1118=EDGE_LOOP('',(#292));
#1119=EDGE_LOOP('',(#293));
#1120=EDGE_LOOP('',(#294));
#1121=EDGE_LOOP('',(#295));
#1122=EDGE_LOOP('',(#296));
#1123=EDGE_LOOP('',(#297));
#1124=EDGE_LOOP('',(#298));
#1125=EDGE_LOOP('',(#299));
#1126=EDGE_LOOP('',(#300));
#1127=EDGE_LOOP('',(#301));
#1128=EDGE_LOOP('',(#302,#303,#304,#305));
#1129=EDGE_LOOP('',(#306,#307,#308,#309));
#1130=EDGE_LOOP('',(#310,#311,#312,#313));
#1131=EDGE_LOOP('',(#314,#315,#316,#317));
#1132=EDGE_LOOP('',(#318,#319,#320,#321));
#1133=EDGE_LOOP('',(#322,#323,#324,#325));
#1134=EDGE_LOOP('',(#326));
#1135=EDGE_LOOP('',(#327));
#1136=EDGE_LOOP('',(#328));
#1137=EDGE_LOOP('',(#329));
#1138=EDGE_LOOP('',(#330));
#1139=EDGE_LOOP('',(#331));
#1140=EDGE_LOOP('',(#332));
#1141=EDGE_LOOP('',(#333));
#1142=EDGE_LOOP('',(#334,#335,#336,#337,#338,#339));
#1143=EDGE_LOOP('',(#340,#341,#342,#343,#344,#345,#346,#347));
#1144=EDGE_LOOP('',(#348,#349,#350,#351));
#1145=EDGE_LOOP('',(#352,#353,#354,#355));
#1146=EDGE_LOOP('',(#356,#357,#358,#359));
#1147=EDGE_LOOP('',(#360,#361));
#1148=EDGE_LOOP('',(#362,#363,#364,#365));
#1149=EDGE_LOOP('',(#366,#367,#368));
#1150=EDGE_LOOP('',(#369,#370,#371,#372));
#1151=EDGE_LOOP('',(#373,#374,#375));
#1152=EDGE_LOOP('',(#376,#377,#378,#379));
#1153=EDGE_LOOP('',(#380,#381));
#1154=EDGE_LOOP('',(#382,#383,#384,#385));
#1155=EDGE_LOOP('',(#386,#387,#388));
#1156=EDGE_LOOP('',(#389,#390,#391,#392));
#1157=EDGE_LOOP('',(#393,#394));
#1158=EDGE_LOOP('',(#395,#396,#397,#398));
#1159=EDGE_LOOP('',(#399,#400,#401));
#1160=EDGE_LOOP('',(#402,#403,#404,#405));
#1161=EDGE_LOOP('',(#406,#407));
#1162=EDGE_LOOP('',(#408,#409,#410,#411));
#1163=EDGE_LOOP('',(#412));
#1164=EDGE_LOOP('',(#413,#414,#415,#416,#417));
#1165=EDGE_LOOP('',(#418,#419,#420,#421));
#1166=EDGE_LOOP('',(#422,#423,#424,#425));
#1167=EDGE_LOOP('',(#426,#427,#428,#429));
#1168=EDGE_LOOP('',(#430));
#1169=EDGE_LOOP('',(#431,#432,#433,#434,#435));
#1170=EDGE_LOOP('',(#436,#437,#438,#439));
#1171=EDGE_LOOP('',(#440,#441,#442,#443));
#1172=EDGE_LOOP('',(#444,#445,#446,#447));
#1173=EDGE_LOOP('',(#448,#449,#450));
#1174=EDGE_LOOP('',(#451));
#1175=EDGE_LOOP('',(#452,#453,#454,#455,#456));
#1176=EDGE_LOOP('',(#457));
#1177=EDGE_LOOP('',(#458,#459,#460,#461));
#1178=FACE_BOUND('',#1082,.T.);
#1179=FACE_BOUND('',#1083,.T.);
#1180=FACE_BOUND('',#1084,.T.);
#1181=FACE_BOUND('',#1085,.T.);
#1182=FACE_BOUND('',#1086,.T.);
#1183=FACE_BOUND('',#1087,.T.);
#1184=FACE_BOUND('',#1088,.T.);
#1185=FACE_BOUND('',#1089,.T.);
#1186=FACE_BOUND('',#1090,.T.);
#1187=FACE_BOUND('',#1091,.T.);
#1188=FACE_BOUND('',#1092,.T.);
#1189=FACE_BOUND('',#1093,.T.);
#1190=FACE_BOUND('',#1094,.T.);
#1191=FACE_BOUND('',#1095,.T.);
#1192=FACE_BOUND('',#1096,.T.);
#1193=FACE_BOUND('',#1097,.T.);
#1194=FACE_BOUND('',#1098,.T.);
#1195=FACE_BOUND('',#1099,.T.);
#1196=FACE_BOUND('',#1100,.T.);
#1197=FACE_BOUND('',#1101,.T.);
#1198=FACE_BOUND('',#1102,.T.);
#1199=FACE_BOUND('',#1103,.T.);
#1200=FACE_BOUND('',#1104,.T.);
#1201=FACE_BOUND('',#1105,.T.);
#1202=FACE_BOUND('',#1106,.T.);
#1203=FACE_BOUND('',#1107,.T.);
#1204=FACE_BOUND('',#1108,.T.);
#1205=FACE_BOUND('',#1109,.T.);
#1206=FACE_BOUND('',#1110,.T.);
#1207=FACE_BOUND('',#1111,.T.);
#1208=FACE_BOUND('',#1112,.T.);
#1209=FACE_BOUND('',#1113,.T.);
#1210=FACE_BOUND('',#1114,.T.);
#1211=FACE_BOUND('',#1115,.T.);
#1212=FACE_BOUND('',#1116,.T.);
#1213=FACE_BOUND('',#1117,.T.);
#1214=FACE_BOUND('',#1118,.T.);
#1215=FACE_BOUND('',#1119,.T.);
#1216=FACE_BOUND('',#1120,.T.);
#1217=FACE_BOUND('',#1121,.T.);
#1218=FACE_BOUND('',#1122,.T.);
#1219=FACE_BOUND('',#1123,.T.);
#1220=FACE_BOUND('',#1124,.T.);
#1221=FACE_BOUND('',#1125,.T.);
#1222=FACE_BOUND('',#1126,.T.);
#1223=FACE_BOUND('',#1127,.T.);
#1224=FACE_BOUND('',#1128,.T.);
#1225=FACE_BOUND('',#1129,.T.);
#1226=FACE_BOUND('',#1130,.T.);
#1227=FACE_BOUND('',#1131,.T.);
#1228=FACE_BOUND('',#1132,.T.);
#1229=FACE_BOUND('',#1133,.T.);
#1230=FACE_BOUND('',#1134,.T.);
#1231=FACE_BOUND('',#1135,.T.);
#1232=FACE_BOUND('',#1136,.T.);
#1233=FACE_BOUND('',#1137,.T.);
#1234=FACE_BOUND('',#1138,.T.);
#1235=FACE_BOUND('',#1139,.T.);
#1236=FACE_BOUND('',#1140,.T.);
#1237=FACE_BOUND('',#1141,.T.);
#1238=FACE_BOUND('',#1142,.T.);
#1239=FACE_BOUND('',#1143,.T.);
#1240=FACE_BOUND('',#1144,.T.);
#1241=FACE_BOUND('',#1145,.T.);
#1242=FACE_BOUND('',#1146,.T.);
#1243=FACE_BOUND('',#1147,.T.);
#1244=FACE_BOUND('',#1148,.T.);
#1245=FACE_BOUND('',#1149,.T.);
#1246=FACE_BOUND('',#1150,.T.);
#1247=FACE_BOUND('',#1151,.T.);
#1248=FACE_BOUND('',#1152,.T.);
#1249=FACE_BOUND('',#1153,.T.);
#1250=FACE_BOUND('',#1154,.T.);
#1251=FACE_BOUND('',#1155,.T.);
#1252=FACE_BOUND('',#1156,.T.);
#1253=FACE_BOUND('',#1157,.T.);
#1254=FACE_BOUND('',#1158,.T.);
#1255=FACE_BOUND('',#1159,.T.);
#1256=FACE_BOUND('',#1160,.T.);
#1257=FACE_BOUND('',#1161,.T.);
#1258=FACE_BOUND('',#1162,.T.);
#1259=FACE_BOUND('',#1163,.T.);
#1260=FACE_BOUND('',#1164,.T.);
#1261=FACE_BOUND('',#1165,.T.);
#1262=FACE_BOUND('',#1166,.T.);
#1263=FACE_BOUND('',#1167,.T.);
#1264=FACE_BOUND('',#1168,.T.);
#1265=FACE_BOUND('',#1169,.T.);
#1266=FACE_BOUND('',#1170,.T.);
#1267=FACE_BOUND('',#1171,.T.);
#1268=FACE_BOUND('',#1172,.T.);
#1269=FACE_BOUND('',#1173,.T.);
#1270=FACE_BOUND('',#1174,.T.);
#1271=FACE_BOUND('',#1175,.T.);
#1272=FACE_BOUND('',#1176,.T.);
#1273=FACE_BOUND('',#1177,.T.);
#1274=PLANE('',#1404);
#1275=PLANE('',#1405);
#1276=PLANE('',#1406);
#1277=PLANE('',#1415);
#1278=PLANE('',#1417);
#1279=PLANE('',#1418);
#1280=PLANE('',#1419);
#1281=PLANE('',#1420);
#1282=PLANE('',#1421);
#1283=PLANE('',#1422);
#1284=PLANE('',#1423);
#1285=PLANE('',#1424);
#1286=PLANE('',#1425);
#1287=PLANE('',#1430);
#1288=PLANE('',#1431);
#1289=PLANE('',#1432);
#1290=PLANE('',#1433);
#1291=PLANE('',#1441);
#1292=PLANE('',#1442);
#1293=PLANE('',#1443);
#1294=PLANE('',#1444);
#1295=PLANE('',#1449);
#1296=PLANE('',#1460);
#1297=PLANE('',#1461);
#1298=PLANE('',#1462);
#1299=PLANE('',#1463);
#1300=PLANE('',#1464);
#1301=PLANE('',#1465);
#1302=PLANE('',#1478);
#1303=PLANE('',#1479);
#1304=PLANE('',#1480);
#1305=PLANE('',#1481);
#1306=PLANE('',#1484);
#1307=PLANE('',#1487);
#1308=PLANE('',#1490);
#1309=PLANE('',#1493);
#1310=PLANE('',#1496);
#1311=PLANE('',#1499);
#1312=PLANE('',#1502);
#1313=PLANE('',#1505);
#1314=PLANE('',#1508);
#1315=PLANE('',#1509);
#1316=PLANE('',#1510);
#1317=PLANE('',#1512);
#1318=PLANE('',#1514);
#1319=PLANE('',#1515);
#1320=PLANE('',#1516);
#1321=PLANE('',#1517);
#1322=ADVANCED_FACE('',(#1178),#1274,.F.);
#1323=ADVANCED_FACE('',(#1179),#1275,.T.);
#1324=ADVANCED_FACE('',(#1180),#1276,.F.);
#1325=ADVANCED_FACE('',(#1181),#1277,.F.);
#1326=ADVANCED_FACE('',(#1182),#1278,.T.);
#1327=ADVANCED_FACE('',(#1183),#1279,.F.);
#1328=ADVANCED_FACE('',(#1184),#1280,.T.);
#1329=ADVANCED_FACE('',(#1185),#1281,.T.);
#1330=ADVANCED_FACE('',(#1186),#1282,.F.);
#1331=ADVANCED_FACE('',(#1187),#1283,.F.);
#1332=ADVANCED_FACE('',(#1188),#1284,.T.);
#1333=ADVANCED_FACE('',(#1189),#1285,.F.);
#1334=ADVANCED_FACE('',(#1190,#1191,#1192,#1193,#1194),#1286,.T.);
#1335=ADVANCED_FACE('',(#1195),#1287,.F.);
#1336=ADVANCED_FACE('',(#1196),#1288,.F.);
#1337=ADVANCED_FACE('',(#1197),#1289,.T.);
#1338=ADVANCED_FACE('',(#1198,#1199,#1200,#1201,#1202,#1203),#1290,.F.);
#1339=ADVANCED_FACE('',(#1204),#1291,.F.);
#1340=ADVANCED_FACE('',(#1205),#1292,.T.);
#1341=ADVANCED_FACE('',(#1206),#1293,.F.);
#1342=ADVANCED_FACE('',(#1207),#1294,.T.);
#1343=ADVANCED_FACE('',(#1208,#1209,#1210,#1211,#1212,#1213),#1295,.T.);
#1344=ADVANCED_FACE('',(#1214,#1215),#12,.F.);
#1345=ADVANCED_FACE('',(#1216,#1217),#13,.F.);
#1346=ADVANCED_FACE('',(#1218,#1219),#14,.F.);
#1347=ADVANCED_FACE('',(#1220,#1221),#15,.F.);
#1348=ADVANCED_FACE('',(#1222,#1223),#16,.F.);
#1349=ADVANCED_FACE('',(#1224),#1296,.F.);
#1350=ADVANCED_FACE('',(#1225),#1297,.T.);
#1351=ADVANCED_FACE('',(#1226),#1298,.F.);
#1352=ADVANCED_FACE('',(#1227),#1299,.T.);
#1353=ADVANCED_FACE('',(#1228),#1300,.F.);
#1354=ADVANCED_FACE('',(#1229),#1301,.T.);
#1355=ADVANCED_FACE('',(#1230,#1231),#17,.F.);
#1356=ADVANCED_FACE('',(#1232,#1233),#18,.F.);
#1357=ADVANCED_FACE('',(#1234,#1235),#19,.F.);
#1358=ADVANCED_FACE('',(#1236,#1237),#20,.F.);
#1359=ADVANCED_FACE('',(#1238),#21,.F.);
#1360=ADVANCED_FACE('',(#1239),#22,.F.);
#1361=ADVANCED_FACE('',(#1240),#1302,.F.);
#1362=ADVANCED_FACE('',(#1241),#1303,.F.);
#1363=ADVANCED_FACE('',(#1242),#1304,.T.);
#1364=ADVANCED_FACE('',(#1243),#1305,.F.);
#1365=ADVANCED_FACE('',(#1244),#23,.T.);
#1366=ADVANCED_FACE('',(#1245),#1306,.F.);
#1367=ADVANCED_FACE('',(#1246),#24,.T.);
#1368=ADVANCED_FACE('',(#1247),#1307,.F.);
#1369=ADVANCED_FACE('',(#1248),#25,.T.);
#1370=ADVANCED_FACE('',(#1249),#1308,.F.);
#1371=ADVANCED_FACE('',(#1250),#26,.T.);
#1372=ADVANCED_FACE('',(#1251),#1309,.T.);
#1373=ADVANCED_FACE('',(#1252),#27,.F.);
#1374=ADVANCED_FACE('',(#1253),#1310,.T.);
#1375=ADVANCED_FACE('',(#1254),#28,.F.);
#1376=ADVANCED_FACE('',(#1255),#1311,.T.);
#1377=ADVANCED_FACE('',(#1256),#29,.F.);
#1378=ADVANCED_FACE('',(#1257),#1312,.T.);
#1379=ADVANCED_FACE('',(#1258),#30,.F.);
#1380=ADVANCED_FACE('',(#1259,#1260),#1313,.F.);
#1381=ADVANCED_FACE('',(#1261),#31,.F.);
#1382=ADVANCED_FACE('',(#1262),#1314,.F.);
#1383=ADVANCED_FACE('',(#1263),#1315,.T.);
#1384=ADVANCED_FACE('',(#1264,#1265),#1316,.F.);
#1385=ADVANCED_FACE('',(#1266),#1317,.T.);
#1386=ADVANCED_FACE('',(#1267),#32,.F.);
#1387=ADVANCED_FACE('',(#1268),#1318,.F.);
#1388=ADVANCED_FACE('',(#1269,#1270),#1319,.F.);
#1389=ADVANCED_FACE('',(#1271,#1272),#1320,.F.);
#1390=ADVANCED_FACE('',(#1273),#1321,.F.);
#1391=CLOSED_SHELL('',(#1322,#1323,#1324,#1325,#1326,#1327,#1328,#1329,#1330,#1331,#1332,#1333,#1334,#1335,#1336,#1337,#1338,#1339,#1340,#1341,#1342,#1343,#1344,#1345,#1346,#1347,#1348,#1349,#1350,#1351,#1352,#1353,#1354,#1355,#1356,#1357,#1358,#1359,#1360,#1361,#1362,#1363,#1364,#1365,#1366,#1367,#1368,#1369,#1370,#1371,#1372,#1373,#1374,#1375,#1376,#1377,#1378,#1379,#1380,#1381,#1382,#1383,#1384,#1385,#1386,#1387,#1388,#1389,#1390));
#1392=STYLED_ITEM('',(#1393),#1400);
#1393=PRESENTATION_STYLE_ASSIGNMENT((#1394));
#1394=SURFACE_STYLE_USAGE(.BOTH.,#1395);
#1395=SURFACE_SIDE_STYLE('',(#1396));
#1396=SURFACE_STYLE_FILL_AREA(#1397);
#1397=FILL_AREA_STYLE('',(#1398));
#1398=FILL_AREA_STYLE_COLOUR('',#1399);
#1399=COLOUR_RGB('',0.615686274509804,0.811764705882353,0.929411764705882);
#1400=MANIFOLD_SOLID_BREP('Baffle',#1391);
#1401=SHAPE_DEFINITION_REPRESENTATION(#2297,#1402);
#1402=SHAPE_REPRESENTATION('Baffle',(#1403),#2292);
#1403=AXIS2_PLACEMENT_3D('',#1895,#1518,#1519);
#1404=AXIS2_PLACEMENT_3D('',#1896,#1520,#1521);
#1405=AXIS2_PLACEMENT_3D('',#1921,#1534,#1535);
#1406=AXIS2_PLACEMENT_3D('',#1942,#1546,#1547);
#1407=AXIS2_PLACEMENT_3D('',#1950,#1551,#1552);
#1408=AXIS2_PLACEMENT_3D('',#1955,#1555,#1556);
#1409=AXIS2_PLACEMENT_3D('',#1961,#1559,#1560);
#1410=AXIS2_PLACEMENT_3D('',#1965,#1562,#1563);
#1411=AXIS2_PLACEMENT_3D('',#1969,#1565,#1566);
#1412=AXIS2_PLACEMENT_3D('',#1973,#1568,#1569);
#1413=AXIS2_PLACEMENT_3D('',#1977,#1571,#1572);
#1414=AXIS2_PLACEMENT_3D('',#1981,#1574,#1575);
#1415=AXIS2_PLACEMENT_3D('',#1982,#1576,#1577);
#1416=AXIS2_PLACEMENT_3D('',#1983,#1578,#1579);
#1417=AXIS2_PLACEMENT_3D('',#1986,#1581,#1582);
#1418=AXIS2_PLACEMENT_3D('',#1994,#1588,#1589);
#1419=AXIS2_PLACEMENT_3D('',#2002,#1595,#1596);
#1420=AXIS2_PLACEMENT_3D('',#2027,#1609,#1610);
#1421=AXIS2_PLACEMENT_3D('',#2041,#1618,#1619);
#1422=AXIS2_PLACEMENT_3D('',#2063,#1631,#1632);
#1423=AXIS2_PLACEMENT_3D('',#2078,#1641,#1642);
#1424=AXIS2_PLACEMENT_3D('',#2093,#1651,#1652);
#1425=AXIS2_PLACEMENT_3D('',#2101,#1658,#1659);
#1426=AXIS2_PLACEMENT_3D('',#2102,#1660,#1661);
#1427=AXIS2_PLACEMENT_3D('',#2104,#1662,#1663);
#1428=AXIS2_PLACEMENT_3D('',#2106,#1664,#1665);
#1429=AXIS2_PLACEMENT_3D('',#2108,#1666,#1667);
#1430=AXIS2_PLACEMENT_3D('',#2133,#1681,#1682);
#1431=AXIS2_PLACEMENT_3D('',#2144,#1689,#1690);
#1432=AXIS2_PLACEMENT_3D('',#2148,#1693,#1694);
#1433=AXIS2_PLACEMENT_3D('',#2154,#1698,#1699);
#1434=AXIS2_PLACEMENT_3D('',#2155,#1700,#1701);
#1435=AXIS2_PLACEMENT_3D('',#2157,#1702,#1703);
#1436=AXIS2_PLACEMENT_3D('',#2159,#1704,#1705);
#1437=AXIS2_PLACEMENT_3D('',#2161,#1706,#1707);
#1438=AXIS2_PLACEMENT_3D('',#2163,#1708,#1709);
#1439=AXIS2_PLACEMENT_3D('',#2165,#1710,#1711);
#1440=AXIS2_PLACEMENT_3D('',#2166,#1712,#1713);
#1441=AXIS2_PLACEMENT_3D('',#2167,#1714,#1715);
#1442=AXIS2_PLACEMENT_3D('',#2173,#1719,#1720);
#1443=AXIS2_PLACEMENT_3D('',#2179,#1724,#1725);
#1444=AXIS2_PLACEMENT_3D('',#2181,#1727,#1728);
#1445=AXIS2_PLACEMENT_3D('',#2182,#1729,#1730);
#1446=AXIS2_PLACEMENT_3D('',#2183,#1731,#1732);
#1447=AXIS2_PLACEMENT_3D('',#2184,#1733,#1734);
#1448=AXIS2_PLACEMENT_3D('',#2185,#1735,#1736);
#1449=AXIS2_PLACEMENT_3D('',#2194,#1743,#1744);
#1450=AXIS2_PLACEMENT_3D('',#2195,#1745,#1746);
#1451=AXIS2_PLACEMENT_3D('',#2197,#1747,#1748);
#1452=AXIS2_PLACEMENT_3D('',#2199,#1749,#1750);
#1453=AXIS2_PLACEMENT_3D('',#2201,#1751,#1752);
#1454=AXIS2_PLACEMENT_3D('',#2203,#1753,#1754);
#1455=AXIS2_PLACEMENT_3D('',#2205,#1755,#1756);
#1456=AXIS2_PLACEMENT_3D('',#2206,#1757,#1758);
#1457=AXIS2_PLACEMENT_3D('',#2207,#1759,#1760);
#1458=AXIS2_PLACEMENT_3D('',#2208,#1761,#1762);
#1459=AXIS2_PLACEMENT_3D('',#2209,#1763,#1764);
#1460=AXIS2_PLACEMENT_3D('',#2210,#1765,#1766);
#1461=AXIS2_PLACEMENT_3D('',#2212,#1768,#1769);
#1462=AXIS2_PLACEMENT_3D('',#2213,#1770,#1771);
#1463=AXIS2_PLACEMENT_3D('',#2214,#1772,#1773);
#1464=AXIS2_PLACEMENT_3D('',#2215,#1774,#1775);
#1465=AXIS2_PLACEMENT_3D('',#2217,#1777,#1778);
#1466=AXIS2_PLACEMENT_3D('',#2218,#1779,#1780);
#1467=AXIS2_PLACEMENT_3D('',#2219,#1781,#1782);
#1468=AXIS2_PLACEMENT_3D('',#2221,#1783,#1784);
#1469=AXIS2_PLACEMENT_3D('',#2222,#1785,#1786);
#1470=AXIS2_PLACEMENT_3D('',#2224,#1787,#1788);
#1471=AXIS2_PLACEMENT_3D('',#2225,#1789,#1790);
#1472=AXIS2_PLACEMENT_3D('',#2227,#1791,#1792);
#1473=AXIS2_PLACEMENT_3D('',#2228,#1793,#1794);
#1474=AXIS2_PLACEMENT_3D('',#2230,#1795,#1796);
#1475=AXIS2_PLACEMENT_3D('',#2231,#1797,#1798);
#1476=AXIS2_PLACEMENT_3D('',#2234,#1800,#1801);
#1477=AXIS2_PLACEMENT_3D('',#2235,#1802,#1803);
#1478=AXIS2_PLACEMENT_3D('',#2236,#1804,#1805);
#1479=AXIS2_PLACEMENT_3D('',#2238,#1807,#1808);
#1480=AXIS2_PLACEMENT_3D('',#2240,#1810,#1811);
#1481=AXIS2_PLACEMENT_3D('',#2241,#1812,#1813);
#1482=AXIS2_PLACEMENT_3D('',#2242,#1814,#1815);
#1483=AXIS2_PLACEMENT_3D('',#2243,#1816,#1817);
#1484=AXIS2_PLACEMENT_3D('',#2244,#1818,#1819);
#1485=AXIS2_PLACEMENT_3D('',#2245,#1820,#1821);
#1486=AXIS2_PLACEMENT_3D('',#2246,#1822,#1823);
#1487=AXIS2_PLACEMENT_3D('',#2247,#1824,#1825);
#1488=AXIS2_PLACEMENT_3D('',#2248,#1826,#1827);
#1489=AXIS2_PLACEMENT_3D('',#2249,#1828,#1829);
#1490=AXIS2_PLACEMENT_3D('',#2250,#1830,#1831);
#1491=AXIS2_PLACEMENT_3D('',#2251,#1832,#1833);
#1492=AXIS2_PLACEMENT_3D('',#2252,#1834,#1835);
#1493=AXIS2_PLACEMENT_3D('',#2253,#1836,#1837);
#1494=AXIS2_PLACEMENT_3D('',#2254,#1838,#1839);
#1495=AXIS2_PLACEMENT_3D('',#2255,#1840,#1841);
#1496=AXIS2_PLACEMENT_3D('',#2256,#1842,#1843);
#1497=AXIS2_PLACEMENT_3D('',#2257,#1844,#1845);
#1498=AXIS2_PLACEMENT_3D('',#2258,#1846,#1847);
#1499=AXIS2_PLACEMENT_3D('',#2259,#1848,#1849);
#1500=AXIS2_PLACEMENT_3D('',#2260,#1850,#1851);
#1501=AXIS2_PLACEMENT_3D('',#2261,#1852,#1853);
#1502=AXIS2_PLACEMENT_3D('',#2262,#1854,#1855);
#1503=AXIS2_PLACEMENT_3D('',#2263,#1856,#1857);
#1504=AXIS2_PLACEMENT_3D('',#2264,#1858,#1859);
#1505=AXIS2_PLACEMENT_3D('',#2265,#1860,#1861);
#1506=AXIS2_PLACEMENT_3D('',#2268,#1863,#1864);
#1507=AXIS2_PLACEMENT_3D('',#2271,#1866,#1867);
#1508=AXIS2_PLACEMENT_3D('',#2274,#1870,#1871);
#1509=AXIS2_PLACEMENT_3D('',#2275,#1872,#1873);
#1510=AXIS2_PLACEMENT_3D('',#2276,#1874,#1875);
#1511=AXIS2_PLACEMENT_3D('',#2279,#1877,#1878);
#1512=AXIS2_PLACEMENT_3D('',#2282,#1880,#1881);
#1513=AXIS2_PLACEMENT_3D('',#2284,#1883,#1884);
#1514=AXIS2_PLACEMENT_3D('',#2286,#1886,#1887);
#1515=AXIS2_PLACEMENT_3D('',#2287,#1888,#1889);
#1516=AXIS2_PLACEMENT_3D('',#2288,#1890,#1891);
#1517=AXIS2_PLACEMENT_3D('',#2290,#1893,#1894);
#1518=DIRECTION('',(0.,0.,1.));
#1519=DIRECTION('',(1.,0.,0.));
#1520=DIRECTION('',(0.,0.,1.));
#1521=DIRECTION('',(1.,0.,0.));
#1522=DIRECTION('',(1.,0.,0.));
#1523=DIRECTION('',(0.,1.,0.));
#1524=DIRECTION('',(1.,0.,0.));
#1525=DIRECTION('',(0.,1.,0.));
#1526=DIRECTION('',(1.,-1.82123199577617E-16,0.));
#1527=DIRECTION('',(0.,1.,0.));
#1528=DIRECTION('',(1.,0.,0.));
#1529=DIRECTION('',(0.,1.,0.));
#1530=DIRECTION('',(1.,0.,0.));
#1531=DIRECTION('',(0.,1.,0.));
#1532=DIRECTION('',(1.,0.,0.));
#1533=DIRECTION('',(0.,1.,0.));
#1534=DIRECTION('',(5.78241158658936E-17,0.,1.));
#1535=DIRECTION('',(1.,0.,-5.78241158658936E-17));
#1536=DIRECTION('',(1.,0.,-5.78241158658936E-17));
#1537=DIRECTION('',(0.,1.,0.));
#1538=DIRECTION('',(1.,0.,-5.78241158658936E-17));
#1539=DIRECTION('',(0.,1.,0.));
#1540=DIRECTION('',(1.,0.,0.));
#1541=DIRECTION('',(0.,1.,0.));
#1542=DIRECTION('',(1.,0.,-5.78241158658936E-17));
#1543=DIRECTION('',(0.,1.,0.));
#1544=DIRECTION('',(1.,0.,0.));
#1545=DIRECTION('',(0.,1.,0.));
#1546=DIRECTION('',(0.,-1.,0.));
#1547=DIRECTION('',(1.,0.,0.));
#1548=DIRECTION('',(-1.,0.,0.));
#1549=DIRECTION('',(0.,0.,-1.));
#1550=DIRECTION('',(1.,0.,0.));
#1551=DIRECTION('',(0.,1.,0.));
#1552=DIRECTION('',(0.,0.,1.));
#1553=DIRECTION('',(0.,0.,-1.));
#1554=DIRECTION('',(0.,0.,-1.));
#1555=DIRECTION('',(0.,1.,0.));
#1556=DIRECTION('',(0.,0.,1.));
#1557=DIRECTION('',(-1.,0.,0.));
#1558=DIRECTION('',(0.,0.,-1.));
#1559=DIRECTION('',(0.,1.,0.));
#1560=DIRECTION('',(0.,0.,1.));
#1561=DIRECTION('',(0.,0.,-1.));
#1562=DIRECTION('',(0.,-1.,0.));
#1563=DIRECTION('',(0.,0.,-1.));
#1564=DIRECTION('',(0.,0.,-1.));
#1565=DIRECTION('',(0.,-1.,0.));
#1566=DIRECTION('',(0.,0.,-1.));
#1567=DIRECTION('',(1.,0.,0.));
#1568=DIRECTION('',(0.,-1.,0.));
#1569=DIRECTION('',(0.,0.,-1.));
#1570=DIRECTION('',(0.,0.,-1.));
#1571=DIRECTION('',(0.,-1.,0.));
#1572=DIRECTION('',(0.,0.,-1.));
#1573=DIRECTION('',(0.,0.,-1.));
#1574=DIRECTION('',(0.,1.,0.));
#1575=DIRECTION('',(0.,0.,1.));
#1576=DIRECTION('',(0.,-1.,0.));
#1577=DIRECTION('',(1.,0.,0.));
#1578=DIRECTION('',(0.,1.,0.));
#1579=DIRECTION('',(0.,0.,1.));
#1580=DIRECTION('',(0.,0.,-1.));
#1581=DIRECTION('',(1.,0.,0.));
#1582=DIRECTION('',(0.,0.,-1.));
#1583=DIRECTION('',(0.,0.,-1.));
#1584=DIRECTION('',(0.,0.,-1.));
#1585=DIRECTION('',(0.,0.,-1.));
#1586=DIRECTION('',(0.,1.,0.));
#1587=DIRECTION('',(0.,1.,0.));
#1588=DIRECTION('',(1.,0.,0.));
#1589=DIRECTION('',(0.,0.,-1.));
#1590=DIRECTION('',(0.,0.,-1.));
#1591=DIRECTION('',(0.,0.,-1.));
#1592=DIRECTION('',(0.,0.,-1.));
#1593=DIRECTION('',(0.,1.,0.));
#1594=DIRECTION('',(0.,1.,0.));
#1595=DIRECTION('',(1.,0.,0.));
#1596=DIRECTION('',(0.,0.,-1.));
#1597=DIRECTION('',(0.,-1.,0.));
#1598=DIRECTION('',(0.,0.,1.));
#1599=DIRECTION('',(0.,-1.,0.));
#1600=DIRECTION('',(0.,0.,-1.));
#1601=DIRECTION('',(0.,-1.,0.));
#1602=DIRECTION('',(0.,0.,1.));
#1603=DIRECTION('',(0.,1.,0.));
#1604=DIRECTION('',(0.,0.,-1.));
#1605=DIRECTION('',(0.,1.,0.));
#1606=DIRECTION('',(0.,0.,-1.));
#1607=DIRECTION('',(0.,1.,0.));
#1608=DIRECTION('',(0.,0.,-1.));
#1609=DIRECTION('',(0.,0.,1.));
#1610=DIRECTION('',(1.,0.,0.));
#1611=DIRECTION('',(-1.,0.,0.));
#1612=DIRECTION('',(0.,-1.,0.));
#1613=DIRECTION('',(1.,0.,0.));
#1614=DIRECTION('',(0.,-1.,0.));
#1615=DIRECTION('',(-1.,0.,0.));
#1616=DIRECTION('',(0.,1.,0.));
#1617=DIRECTION('',(1.,0.,0.));
#1618=DIRECTION('',(1.,0.,0.));
#1619=DIRECTION('',(0.,0.,-1.));
#1620=DIRECTION('',(0.,0.,1.));
#1621=DIRECTION('',(0.,-1.,0.));
#1622=DIRECTION('',(0.,0.,-1.));
#1623=DIRECTION('',(0.,1.,0.));
#1624=DIRECTION('',(4.33680868994202E-16,0.,-1.));
#1625=DIRECTION('',(0.,1.,0.));
#1626=DIRECTION('',(0.,0.,-1.));
#1627=DIRECTION('',(0.,0.,1.));
#1628=DIRECTION('',(0.,-1.,0.));
#1629=DIRECTION('',(0.,0.,-1.));
#1630=DIRECTION('',(0.,-1.,0.));
#1631=DIRECTION('',(1.,0.,0.));
#1632=DIRECTION('',(0.,0.,-1.));
#1633=DIRECTION('',(0.,0.,-1.));
#1634=DIRECTION('',(0.,-1.,0.));
#1635=DIRECTION('',(0.,-1.,0.));
#1636=DIRECTION('',(0.,0.,-1.));
#1637=DIRECTION('',(0.,1.,0.));
#1638=DIRECTION('',(0.,0.,-1.));
#1639=DIRECTION('',(0.,-1.,0.));
#1640=DIRECTION('',(0.,-1.,0.));
#1641=DIRECTION('',(1.,0.,0.));
#1642=DIRECTION('',(0.,0.,-1.));
#1643=DIRECTION('',(0.,-1.,0.));
#1644=DIRECTION('',(0.,0.,-1.));
#1645=DIRECTION('',(0.,1.,0.));
#1646=DIRECTION('',(0.,0.,-1.));
#1647=DIRECTION('',(0.,-1.,0.));
#1648=DIRECTION('',(0.,-1.,0.));
#1649=DIRECTION('',(0.,0.,-1.));
#1650=DIRECTION('',(0.,-1.,0.));
#1651=DIRECTION('',(0.,0.,1.));
#1652=DIRECTION('',(1.,0.,0.));
#1653=DIRECTION('',(1.,0.,0.));
#1654=DIRECTION('',(1.,0.,0.));
#1655=DIRECTION('',(1.,0.,0.));
#1656=DIRECTION('',(0.,-1.,0.));
#1657=DIRECTION('',(0.,-1.,0.));
#1658=DIRECTION('',(0.,-1.,0.));
#1659=DIRECTION('',(1.,0.,0.));
#1660=DIRECTION('',(0.,-1.,0.));
#1661=DIRECTION('',(0.,0.,-1.));
#1662=DIRECTION('',(0.,-1.,0.));
#1663=DIRECTION('',(0.,0.,-1.));
#1664=DIRECTION('',(0.,-1.,0.));
#1665=DIRECTION('',(0.,0.,-1.));
#1666=DIRECTION('',(0.,-1.,0.));
#1667=DIRECTION('',(0.,0.,-1.));
#1668=DIRECTION('',(1.,0.,0.));
#1669=DIRECTION('',(0.,0.,-1.));
#1670=DIRECTION('',(0.,0.,-1.));
#1671=DIRECTION('',(1.,0.,0.));
#1672=DIRECTION('',(0.,0.,1.));
#1673=DIRECTION('',(1.,0.,0.));
#1674=DIRECTION('',(0.,0.,-1.));
#1675=DIRECTION('',(1.,0.,0.));
#1676=DIRECTION('',(1.,0.,-5.78241158658936E-17));
#1677=DIRECTION('',(-1.,0.,-2.16840434497101E-16));
#1678=DIRECTION('',(0.,0.,-1.));
#1679=DIRECTION('',(-1.,0.,0.));
#1680=DIRECTION('',(0.,0.,1.));
#1681=DIRECTION('',(0.,0.,-1.));
#1682=DIRECTION('',(-1.,0.,0.));
#1683=DIRECTION('',(0.,-1.,0.));
#1684=DIRECTION('',(-1.,1.82123199577617E-16,0.));
#1685=DIRECTION('',(0.,-1.,0.));
#1686=DIRECTION('',(0.,1.,0.));
#1687=DIRECTION('',(1.,0.,0.));
#1688=DIRECTION('',(0.,1.,0.));
#1689=DIRECTION('',(1.,0.,0.));
#1690=DIRECTION('',(0.,0.,-1.));
#1691=DIRECTION('',(0.,-1.,0.));
#1692=DIRECTION('',(0.,0.,-1.));
#1693=DIRECTION('',(1.,0.,0.));
#1694=DIRECTION('',(0.,0.,-1.));
#1695=DIRECTION('',(0.,0.,-1.));
#1696=DIRECTION('',(0.,-1.,0.));
#1697=DIRECTION('',(0.,0.,-1.));
#1698=DIRECTION('',(0.,-1.,0.));
#1699=DIRECTION('',(1.,0.,0.));
#1700=DIRECTION('',(0.,-1.,0.));
#1701=DIRECTION('',(0.,0.,-1.));
#1702=DIRECTION('',(0.,-1.,0.));
#1703=DIRECTION('',(0.,0.,-1.));
#1704=DIRECTION('',(0.,-1.,0.));
#1705=DIRECTION('',(0.,0.,-1.));
#1706=DIRECTION('',(0.,-1.,0.));
#1707=DIRECTION('',(0.,0.,-1.));
#1708=DIRECTION('',(0.,-1.,0.));
#1709=DIRECTION('',(0.,0.,-1.));
#1710=DIRECTION('',(0.,-1.,0.));
#1711=DIRECTION('',(0.,0.,-1.));
#1712=DIRECTION('',(0.,-1.,0.));
#1713=DIRECTION('',(0.,0.,-1.));
#1714=DIRECTION('',(-1.,0.,0.));
#1715=DIRECTION('',(0.,0.,1.));
#1716=DIRECTION('',(0.,1.,0.));
#1717=DIRECTION('',(0.,1.,0.));
#1718=DIRECTION('',(0.,0.,-1.));
#1719=DIRECTION('',(-1.,0.,0.));
#1720=DIRECTION('',(0.,0.,1.));
#1721=DIRECTION('',(0.,1.,0.));
#1722=DIRECTION('',(0.,1.,0.));
#1723=DIRECTION('',(0.,0.,-1.));
#1724=DIRECTION('',(5.78241158658936E-17,0.,1.));
#1725=DIRECTION('',(1.,0.,-5.78241158658936E-17));
#1726=DIRECTION('',(1.,0.,-5.78241158658936E-17));
#1727=DIRECTION('',(0.,-1.,0.));
#1728=DIRECTION('',(1.,0.,0.));
#1729=DIRECTION('',(0.,-1.,0.));
#1730=DIRECTION('',(0.,0.,-1.));
#1731=DIRECTION('',(0.,-1.,0.));
#1732=DIRECTION('',(0.,0.,-1.));
#1733=DIRECTION('',(0.,-1.,0.));
#1734=DIRECTION('',(0.,0.,-1.));
#1735=DIRECTION('',(0.,-1.,0.));
#1736=DIRECTION('',(0.,0.,-1.));
#1737=DIRECTION('',(-1.,0.,0.));
#1738=DIRECTION('',(-1.,0.,0.));
#1739=DIRECTION('',(0.,0.,-1.));
#1740=DIRECTION('',(0.,0.,-1.));
#1741=DIRECTION('',(1.,0.,0.));
#1742=DIRECTION('',(1.,0.,2.16840434497101E-16));
#1743=DIRECTION('',(0.,-1.,0.));
#1744=DIRECTION('',(1.,0.,0.));
#1745=DIRECTION('',(0.,-1.,0.));
#1746=DIRECTION('',(0.,0.,-1.));
#1747=DIRECTION('',(0.,-1.,0.));
#1748=DIRECTION('',(0.,0.,-1.));
#1749=DIRECTION('',(0.,-1.,0.));
#1750=DIRECTION('',(0.,0.,-1.));
#1751=DIRECTION('',(0.,-1.,0.));
#1752=DIRECTION('',(0.,0.,-1.));
#1753=DIRECTION('',(0.,-1.,0.));
#1754=DIRECTION('',(0.,0.,-1.));
#1755=DIRECTION('',(0.,1.,0.));
#1756=DIRECTION('',(0.,0.,1.));
#1757=DIRECTION('',(0.,1.,0.));
#1758=DIRECTION('',(0.,0.,1.));
#1759=DIRECTION('',(0.,1.,0.));
#1760=DIRECTION('',(0.,0.,1.));
#1761=DIRECTION('',(0.,1.,0.));
#1762=DIRECTION('',(0.,0.,1.));
#1763=DIRECTION('',(0.,1.,0.));
#1764=DIRECTION('',(0.,0.,1.));
#1765=DIRECTION('',(-1.,0.,0.));
#1766=DIRECTION('',(0.,0.,1.));
#1767=DIRECTION('',(0.,1.,0.));
#1768=DIRECTION('',(0.,0.,1.));
#1769=DIRECTION('',(1.,0.,0.));
#1770=DIRECTION('',(0.,0.,1.));
#1771=DIRECTION('',(1.,0.,0.));
#1772=DIRECTION('',(2.16840434497101E-16,0.,-1.));
#1773=DIRECTION('',(-1.,0.,-2.16840434497101E-16));
#1774=DIRECTION('',(0.,0.,-1.));
#1775=DIRECTION('',(-1.,0.,0.));
#1776=DIRECTION('',(0.,1.,0.));
#1777=DIRECTION('',(-1.,0.,0.));
#1778=DIRECTION('',(0.,0.,1.));
#1779=DIRECTION('',(0.,-1.,0.));
#1780=DIRECTION('',(0.,0.,-1.));
#1781=DIRECTION('',(0.,-1.,0.));
#1782=DIRECTION('',(0.,0.,-1.));
#1783=DIRECTION('',(0.,-1.,0.));
#1784=DIRECTION('',(0.,0.,-1.));
#1785=DIRECTION('',(0.,-1.,0.));
#1786=DIRECTION('',(0.,0.,-1.));
#1787=DIRECTION('',(0.,-1.,0.));
#1788=DIRECTION('',(0.,0.,-1.));
#1789=DIRECTION('',(0.,-1.,0.));
#1790=DIRECTION('',(0.,0.,-1.));
#1791=DIRECTION('',(0.,-1.,0.));
#1792=DIRECTION('',(0.,0.,-1.));
#1793=DIRECTION('',(0.,-1.,0.));
#1794=DIRECTION('',(0.,0.,-1.));
#1795=DIRECTION('',(0.,-1.,0.));
#1796=DIRECTION('',(0.,0.,-1.));
#1797=DIRECTION('',(0.,-1.,0.));
#1798=DIRECTION('',(0.,0.,-1.));
#1799=DIRECTION('',(0.,1.,0.));
#1800=DIRECTION('',(0.,-1.,0.));
#1801=DIRECTION('',(0.,0.,-1.));
#1802=DIRECTION('',(0.,-1.,0.));
#1803=DIRECTION('',(0.,0.,-1.));
#1804=DIRECTION('',(-1.,0.,0.));
#1805=DIRECTION('',(0.,0.,1.));
#1806=DIRECTION('',(0.,0.,-1.));
#1807=DIRECTION('',(1.82123199577617E-16,1.,0.));
#1808=DIRECTION('',(-1.,1.82123199577617E-16,0.));
#1809=DIRECTION('',(0.,0.,-1.));
#1810=DIRECTION('',(-1.,0.,0.));
#1811=DIRECTION('',(0.,0.,1.));
#1812=DIRECTION('',(0.,-1.,0.));
#1813=DIRECTION('',(1.,0.,0.));
#1814=DIRECTION('',(0.,-1.,0.));
#1815=DIRECTION('',(0.,0.,-1.));
#1816=DIRECTION('',(0.,-1.,0.));
#1817=DIRECTION('',(0.,0.,-1.));
#1818=DIRECTION('',(0.,-1.,0.));
#1819=DIRECTION('',(1.,0.,0.));
#1820=DIRECTION('',(0.,-1.,0.));
#1821=DIRECTION('',(0.,0.,-1.));
#1822=DIRECTION('',(0.,-1.,0.));
#1823=DIRECTION('',(0.,0.,-1.));
#1824=DIRECTION('',(0.,-1.,0.));
#1825=DIRECTION('',(1.,0.,0.));
#1826=DIRECTION('',(0.,-1.,0.));
#1827=DIRECTION('',(0.,0.,-1.));
#1828=DIRECTION('',(0.,-1.,0.));
#1829=DIRECTION('',(0.,0.,-1.));
#1830=DIRECTION('',(0.,-1.,0.));
#1831=DIRECTION('',(1.,0.,0.));
#1832=DIRECTION('',(0.,-1.,0.));
#1833=DIRECTION('',(0.,0.,-1.));
#1834=DIRECTION('',(0.,-1.,0.));
#1835=DIRECTION('',(0.,0.,-1.));
#1836=DIRECTION('',(0.,-1.,0.));
#1837=DIRECTION('',(1.,0.,0.));
#1838=DIRECTION('',(0.,-1.,0.));
#1839=DIRECTION('',(0.,0.,-1.));
#1840=DIRECTION('',(0.,-1.,0.));
#1841=DIRECTION('',(0.,0.,-1.));
#1842=DIRECTION('',(0.,-1.,0.));
#1843=DIRECTION('',(1.,0.,0.));
#1844=DIRECTION('',(0.,-1.,0.));
#1845=DIRECTION('',(0.,0.,-1.));
#1846=DIRECTION('',(0.,-1.,0.));
#1847=DIRECTION('',(0.,0.,-1.));
#1848=DIRECTION('',(0.,-1.,0.));
#1849=DIRECTION('',(1.,0.,0.));
#1850=DIRECTION('',(0.,-1.,0.));
#1851=DIRECTION('',(0.,0.,-1.));
#1852=DIRECTION('',(0.,-1.,0.));
#1853=DIRECTION('',(0.,0.,-1.));
#1854=DIRECTION('',(0.,-1.,0.));
#1855=DIRECTION('',(1.,0.,0.));
#1856=DIRECTION('',(0.,-1.,0.));
#1857=DIRECTION('',(0.,0.,-1.));
#1858=DIRECTION('',(0.,-1.,0.));
#1859=DIRECTION('',(0.,0.,-1.));
#1860=DIRECTION('',(0.,-1.,0.));
#1861=DIRECTION('',(1.,0.,0.));
#1862=DIRECTION('',(0.,0.,-1.));
#1863=DIRECTION('',(0.,-1.,0.));
#1864=DIRECTION('',(0.,0.,-1.));
#1865=DIRECTION('',(1.,0.,0.));
#1866=DIRECTION('',(0.,1.,0.));
#1867=DIRECTION('',(0.,0.,1.));
#1868=DIRECTION('',(0.,1.,0.));
#1869=DIRECTION('',(0.,1.,0.));
#1870=DIRECTION('',(0.,0.,1.));
#1871=DIRECTION('',(1.,0.,0.));
#1872=DIRECTION('',(1.,0.,0.));
#1873=DIRECTION('',(0.,0.,-1.));
#1874=DIRECTION('',(0.,-1.,0.));
#1875=DIRECTION('',(1.,0.,0.));
#1876=DIRECTION('',(-1.,0.,0.));
#1877=DIRECTION('',(0.,-1.,0.));
#1878=DIRECTION('',(0.,0.,-1.));
#1879=DIRECTION('',(0.,0.,-1.));
#1880=DIRECTION('',(0.,0.,-1.));
#1881=DIRECTION('',(-1.,0.,0.));
#1882=DIRECTION('',(0.,1.,0.));
#1883=DIRECTION('',(0.,1.,0.));
#1884=DIRECTION('',(0.,0.,1.));
#1885=DIRECTION('',(0.,1.,0.));
#1886=DIRECTION('',(1.,0.,0.));
#1887=DIRECTION('',(0.,0.,-1.));
#1888=DIRECTION('',(0.,-1.,0.));
#1889=DIRECTION('',(1.,0.,0.));
#1890=DIRECTION('',(0.,-1.,0.));
#1891=DIRECTION('',(1.,0.,0.));
#1892=DIRECTION('',(-1.,0.,0.));
#1893=DIRECTION('',(0.,0.,-1.));
#1894=DIRECTION('',(-1.,0.,0.));
#1895=CARTESIAN_POINT('',(0.,0.,0.));
#1896=CARTESIAN_POINT('',(-2.08166817117217E-17,-0.0085,-0.02457));
#1897=CARTESIAN_POINT('',(-2.08166817117217E-17,-0.0105,-0.02457));
#1898=CARTESIAN_POINT('',(0.0143,-0.0105,-0.02457));
#1899=CARTESIAN_POINT('',(0.019,-0.0105,-0.02457));
#1900=CARTESIAN_POINT('',(0.019,-0.0085,-0.02457));
#1901=CARTESIAN_POINT('',(0.019,-0.0135,-0.02457));
#1902=CARTESIAN_POINT('',(-2.08166817117217E-17,-0.0135,-0.02457));
#1903=CARTESIAN_POINT('',(0.009525,-0.0135,-0.02457));
#1904=CARTESIAN_POINT('',(0.009525,-0.0125,-0.02457));
#1905=CARTESIAN_POINT('',(0.009525,-0.0115,-0.02457));
#1906=CARTESIAN_POINT('',(0.,-0.0115,-0.02457));
#1907=CARTESIAN_POINT('',(-0.009525,-0.0115,-0.02457));
#1908=CARTESIAN_POINT('',(-0.009525,-0.0125,-0.02457));
#1909=CARTESIAN_POINT('',(-0.009525,-0.0135,-0.02457));
#1910=CARTESIAN_POINT('',(-2.08166817117217E-17,-0.0135,-0.02457));
#1911=CARTESIAN_POINT('',(-0.019,-0.0135,-0.02457));
#1912=CARTESIAN_POINT('',(-0.019,-0.0085,-0.02457));
#1913=CARTESIAN_POINT('',(-0.019,-0.0105,-0.02457));
#1914=CARTESIAN_POINT('',(-2.08166817117217E-17,-0.0105,-0.02457));
#1915=CARTESIAN_POINT('',(-0.0143,-0.0105,-0.02457));
#1916=CARTESIAN_POINT('',(-0.0143,-0.262817621135332,-0.02457));
#1917=CARTESIAN_POINT('',(-0.0143,-0.006,-0.02457));
#1918=CARTESIAN_POINT('',(-2.08166817117217E-17,-0.006,-0.02457));
#1919=CARTESIAN_POINT('',(0.0143,-0.006,-0.02457));
#1920=CARTESIAN_POINT('',(0.0143,-0.262817621135332,-0.02457));
#1921=CARTESIAN_POINT('',(-1.7347234759768E-18,-0.006,0.0137));
#1922=CARTESIAN_POINT('',(-1.7347234759768E-18,-0.0105,0.0137));
#1923=CARTESIAN_POINT('',(0.015,-0.0105,0.0137));
#1924=CARTESIAN_POINT('',(0.019,-0.0105,0.0137));
#1925=CARTESIAN_POINT('',(0.015,-0.006,0.0137));
#1926=CARTESIAN_POINT('',(0.015,0.,0.0137));
#1927=CARTESIAN_POINT('',(-1.7347234759768E-18,0.,0.0137));
#1928=CARTESIAN_POINT('',(-0.015,0.,0.0137));
#1929=CARTESIAN_POINT('',(-0.015,-0.006,0.0137));
#1930=CARTESIAN_POINT('',(-0.015,-0.006,0.0137));
#1931=CARTESIAN_POINT('',(-2.08166817117217E-17,-0.006,0.0137));
#1932=CARTESIAN_POINT('',(-0.0156125657912962,-0.006,0.0137));
#1933=CARTESIAN_POINT('',(-0.0156125657912962,-0.262817621135332,0.0137));
#1934=CARTESIAN_POINT('',(-0.0156125657912962,-0.0105,0.0137));
#1935=CARTESIAN_POINT('',(-1.7347234759768E-18,-0.0105,0.0137));
#1936=CARTESIAN_POINT('',(-0.019,-0.0105,0.0137));
#1937=CARTESIAN_POINT('',(-0.019,-0.0085,0.0137));
#1938=CARTESIAN_POINT('',(-0.019,-0.0135,0.0137));
#1939=CARTESIAN_POINT('',(-2.08166817117217E-17,-0.0135,0.0137));
#1940=CARTESIAN_POINT('',(0.019,-0.0135,0.0137));
#1941=CARTESIAN_POINT('',(0.019,-0.0085,0.0137));
#1942=CARTESIAN_POINT('',(-2.08166817117217E-17,-0.006,-0.005435));
#1943=CARTESIAN_POINT('',(0.0179,-0.006,0.009));
#1944=CARTESIAN_POINT('',(0.019,-0.006,0.009));
#1945=CARTESIAN_POINT('',(0.0168,-0.006,0.009));
#1946=CARTESIAN_POINT('',(0.019,-0.006,-0.005435));
#1947=CARTESIAN_POINT('',(0.019,-0.006,-0.01987));
#1948=CARTESIAN_POINT('',(0.0179,-0.006,-0.01987));
#1949=CARTESIAN_POINT('',(0.0168,-0.006,-0.01987));
#1950=CARTESIAN_POINT('',(0.0168,-0.006,-0.02237));
#1951=CARTESIAN_POINT('',(0.0143,-0.006,-0.02237));
#1952=CARTESIAN_POINT('',(0.0143,-0.006,-0.02347));
#1953=CARTESIAN_POINT('',(-0.0143,-0.006,-0.02347));
#1954=CARTESIAN_POINT('',(-0.0143,-0.006,-0.02237));
#1955=CARTESIAN_POINT('',(-0.0168,-0.006,-0.02237));
#1956=CARTESIAN_POINT('',(-0.0168,-0.006,-0.01987));
#1957=CARTESIAN_POINT('',(-0.0179,-0.006,-0.01987));
#1958=CARTESIAN_POINT('',(-0.019,-0.006,-0.01987));
#1959=CARTESIAN_POINT('',(-0.019,-0.006,-0.005435));
#1960=CARTESIAN_POINT('',(-0.019,-0.006,0.0103125657912962));
#1961=CARTESIAN_POINT('',(-0.0168,-0.006,0.0115));
#1962=CARTESIAN_POINT('',(-0.015,-0.006,0.00976506484271026));
#1963=CARTESIAN_POINT('',(-0.015,-0.006,-0.0013));
#1964=CARTESIAN_POINT('',(-0.015,-0.006,0.00379854385646542));
#1965=CARTESIAN_POINT('',(-0.013,-0.006,0.00142999999999996));
#1966=CARTESIAN_POINT('',(-0.015,-0.006,-0.000938543856465494));
#1967=CARTESIAN_POINT('',(-0.015,-0.006,-0.0013));
#1968=CARTESIAN_POINT('',(-0.015,-0.006,-0.0122014561435346));
#1969=CARTESIAN_POINT('',(-0.013,-0.006,-0.01457));
#1970=CARTESIAN_POINT('',(-0.0104276275541827,-0.006,-0.0163));
#1971=CARTESIAN_POINT('',(0.,-0.006,-0.0163));
#1972=CARTESIAN_POINT('',(0.0104276275541827,-0.006,-0.0163));
#1973=CARTESIAN_POINT('',(0.013,-0.006,-0.01457));
#1974=CARTESIAN_POINT('',(0.015,-0.006,-0.0122014561435346));
#1975=CARTESIAN_POINT('',(0.015,-0.006,-0.0013));
#1976=CARTESIAN_POINT('',(0.015,-0.006,-0.000938543856465419));
#1977=CARTESIAN_POINT('',(0.013,-0.006,0.00143));
#1978=CARTESIAN_POINT('',(0.015,-0.006,0.0037985438564654));
#1979=CARTESIAN_POINT('',(0.015,-0.006,-0.0013));
#1980=CARTESIAN_POINT('',(0.015,-0.006,0.00976506484271023));
#1981=CARTESIAN_POINT('',(0.0168,-0.006,0.0115));
#1982=CARTESIAN_POINT('',(-2.08166817117217E-17,-0.006,-0.005435));
#1983=CARTESIAN_POINT('',(-0.0168,-0.006,0.0115));
#1984=CARTESIAN_POINT('',(-0.015,-0.006,0.0132349351572897));
#1985=CARTESIAN_POINT('',(-0.015,-0.006,-0.0013));
#1986=CARTESIAN_POINT('',(0.019,-0.0085,-0.005435));
#1987=CARTESIAN_POINT('',(0.019,-0.0105,-0.005435));
#1988=CARTESIAN_POINT('',(0.019,-0.0105,0.009));
#1989=CARTESIAN_POINT('',(0.019,-0.0135,-0.005435));
#1990=CARTESIAN_POINT('',(0.019,-0.0105,-0.005435));
#1991=CARTESIAN_POINT('',(0.019,-0.0105,-0.01987));
#1992=CARTESIAN_POINT('',(0.019,-0.262817621135332,-0.01987));
#1993=CARTESIAN_POINT('',(0.019,-0.262817621135332,0.009));
#1994=CARTESIAN_POINT('',(-0.019,-0.0085,-0.005435));
#1995=CARTESIAN_POINT('',(-0.019,-0.0105,-0.005435));
#1996=CARTESIAN_POINT('',(-0.019,-0.0105,-0.01987));
#1997=CARTESIAN_POINT('',(-0.019,-0.0135,-0.005435));
#1998=CARTESIAN_POINT('',(-0.019,-0.0105,-0.005435));
#1999=CARTESIAN_POINT('',(-0.019,-0.0105,0.0103125657912962));
#2000=CARTESIAN_POINT('',(-0.019,-0.262817621135332,0.0103125657912962));
#2001=CARTESIAN_POINT('',(-0.019,-0.262817621135332,-0.01987));
#2002=CARTESIAN_POINT('',(-0.0125,-0.006,-0.0013));
#2003=CARTESIAN_POINT('',(-0.0125,0.249317621135331,0.00346960780543706));
#2004=CARTESIAN_POINT('',(-0.0125,-0.0045,0.00346960780543706));
#2005=CARTESIAN_POINT('',(-0.0125,-0.0085,0.00346960780543706));
#2006=CARTESIAN_POINT('',(-0.0125,-0.0045,-0.0013));
#2007=CARTESIAN_POINT('',(-0.0125,-0.0045,-0.000609607805437134));
#2008=CARTESIAN_POINT('',(-0.0125,0.249317621135331,-0.000609607805437134));
#2009=CARTESIAN_POINT('',(-0.0125,-0.0085,-0.000609607805437134));
#2010=CARTESIAN_POINT('',(-0.0125,-0.0085,-0.0013));
#2011=CARTESIAN_POINT('',(-0.0125,-0.0085,-0.012530392194563));
#2012=CARTESIAN_POINT('',(-0.0125,0.249317621135331,-0.012530392194563));
#2013=CARTESIAN_POINT('',(-0.0125,-0.0045,-0.012530392194563));
#2014=CARTESIAN_POINT('',(-0.0125,-0.0045,-0.0013));
#2015=CARTESIAN_POINT('',(-0.0125,-0.0045,-0.0138));
#2016=CARTESIAN_POINT('',(-0.0125,-0.006,-0.0138));
#2017=CARTESIAN_POINT('',(-0.0125,-0.0025,-0.0138));
#2018=CARTESIAN_POINT('',(-0.0125,-0.0025,-0.0013));
#2019=CARTESIAN_POINT('',(-0.0125,-0.0025,0.0112));
#2020=CARTESIAN_POINT('',(-0.0125,-0.006,0.0112));
#2021=CARTESIAN_POINT('',(-0.0125,-0.0135,0.0112));
#2022=CARTESIAN_POINT('',(-0.0125,-0.0135,0.0092));
#2023=CARTESIAN_POINT('',(-0.0125,-0.0135,0.0072));
#2024=CARTESIAN_POINT('',(-0.0125,-0.013502,0.0072));
#2025=CARTESIAN_POINT('',(-0.0125,-0.0085,0.0072));
#2026=CARTESIAN_POINT('',(-0.0125,-0.0085,-0.0013));
#2027=CARTESIAN_POINT('',(0.,-0.006,-0.0138));
#2028=CARTESIAN_POINT('',(0.,-0.0045,-0.0138));
#2029=CARTESIAN_POINT('',(-0.0110462599968267,-0.0045,-0.0138));
#2030=CARTESIAN_POINT('',(-0.0110462599968267,0.249317621135331,-0.0138));
#2031=CARTESIAN_POINT('',(-0.0110462599968267,-0.0085,-0.0138));
#2032=CARTESIAN_POINT('',(0.,-0.0085,-0.0138));
#2033=CARTESIAN_POINT('',(0.0110462599968266,-0.0085,-0.0138));
#2034=CARTESIAN_POINT('',(0.0110462599968266,0.249317621135331,-0.0138));
#2035=CARTESIAN_POINT('',(0.0110462599968266,-0.0045,-0.0138));
#2036=CARTESIAN_POINT('',(0.,-0.0045,-0.0138));
#2037=CARTESIAN_POINT('',(0.0125,-0.0045,-0.0138));
#2038=CARTESIAN_POINT('',(0.0125,-0.006,-0.0138));
#2039=CARTESIAN_POINT('',(0.0125,-0.0025,-0.0138));
#2040=CARTESIAN_POINT('',(0.,-0.0025,-0.0138));
#2041=CARTESIAN_POINT('',(0.0125,-0.006,-0.0013));
#2042=CARTESIAN_POINT('',(0.0125,-0.0045,-0.0013));
#2043=CARTESIAN_POINT('',(0.0125,-0.0045,-0.000609607805437121));
#2044=CARTESIAN_POINT('',(0.0125,-0.0045,0.00346960780543711));
#2045=CARTESIAN_POINT('',(0.0125,0.249317621135331,0.00346960780543711));
#2046=CARTESIAN_POINT('',(0.0125,-0.0085,0.00346960780543711));
#2047=CARTESIAN_POINT('',(0.0125,-0.0085,-0.0013));
#2048=CARTESIAN_POINT('',(0.0125,-0.0085,0.0072));
#2049=CARTESIAN_POINT('',(0.0125,-0.013502,0.0072));
#2050=CARTESIAN_POINT('',(0.0125,-0.0135,0.0072));
#2051=CARTESIAN_POINT('',(0.0125,-0.0135,0.0092));
#2052=CARTESIAN_POINT('',(0.0125,-0.0135,0.0112));
#2053=CARTESIAN_POINT('',(0.0125,-0.006,0.0112));
#2054=CARTESIAN_POINT('',(0.0125,-0.0025,0.0112));
#2055=CARTESIAN_POINT('',(0.0125,-0.0025,-0.0013));
#2056=CARTESIAN_POINT('',(0.0125,-0.0045,-0.0013));
#2057=CARTESIAN_POINT('',(0.0125,-0.0045,-0.0125303921945629));
#2058=CARTESIAN_POINT('',(0.0125,0.249317621135331,-0.0125303921945629));
#2059=CARTESIAN_POINT('',(0.0125,-0.0085,-0.0125303921945629));
#2060=CARTESIAN_POINT('',(0.0125,-0.0085,-0.0013));
#2061=CARTESIAN_POINT('',(0.0125,-0.0085,-0.000609607805437121));
#2062=CARTESIAN_POINT('',(0.0125,0.249317621135331,-0.000609607805437121));
#2063=CARTESIAN_POINT('',(-0.015,-0.006,-0.0013));
#2064=CARTESIAN_POINT('',(-0.015,-0.0025,-0.0013));
#2065=CARTESIAN_POINT('',(-0.015,-0.0025,0.00379854385646542));
#2066=CARTESIAN_POINT('',(-0.015,-0.0025,-0.000938543856465494));
#2067=CARTESIAN_POINT('',(-0.015,-0.002498,0.00379854385646542));
#2068=CARTESIAN_POINT('',(-0.015,2.00000000000027E-06,0.00976506484271026));
#2069=CARTESIAN_POINT('',(-0.015,0.,0.00976506484271026));
#2070=CARTESIAN_POINT('',(-0.015,0.,-0.0013));
#2071=CARTESIAN_POINT('',(-0.015,0.,-0.0163));
#2072=CARTESIAN_POINT('',(-0.015,-0.006,-0.0163));
#2073=CARTESIAN_POINT('',(-0.015,-0.0025,-0.0163));
#2074=CARTESIAN_POINT('',(-0.015,-0.0025,-0.0013));
#2075=CARTESIAN_POINT('',(-0.015,-0.0025,-0.0122014561435346));
#2076=CARTESIAN_POINT('',(-0.015,-0.002498,-0.0122014561435346));
#2077=CARTESIAN_POINT('',(-0.015,-0.002498,-0.000938543856465493));
#2078=CARTESIAN_POINT('',(0.015,-0.006,-0.0013));
#2079=CARTESIAN_POINT('',(0.015,-0.002498,-0.0122014561435346));
#2080=CARTESIAN_POINT('',(0.015,-0.0025,-0.0122014561435346));
#2081=CARTESIAN_POINT('',(0.015,-0.0025,-0.0013));
#2082=CARTESIAN_POINT('',(0.015,-0.0025,-0.0163));
#2083=CARTESIAN_POINT('',(0.015,-0.006,-0.0163));
#2084=CARTESIAN_POINT('',(0.015,0.,-0.0163));
#2085=CARTESIAN_POINT('',(0.015,0.,-0.0013));
#2086=CARTESIAN_POINT('',(0.015,0.,0.00976506484271023));
#2087=CARTESIAN_POINT('',(0.015,2.00000000000027E-06,0.00976506484271023));
#2088=CARTESIAN_POINT('',(0.015,-0.002498,0.0037985438564654));
#2089=CARTESIAN_POINT('',(0.015,-0.0025,0.0037985438564654));
#2090=CARTESIAN_POINT('',(0.015,-0.0025,-0.0013));
#2091=CARTESIAN_POINT('',(0.015,-0.0025,-0.000938543856465419));
#2092=CARTESIAN_POINT('',(0.015,-0.002498,-0.000938543856465419));
#2093=CARTESIAN_POINT('',(0.,-0.006,-0.0163));
#2094=CARTESIAN_POINT('',(0.,-0.0025,-0.0163));
#2095=CARTESIAN_POINT('',(-0.0104276275541827,-0.0025,-0.0163));
#2096=CARTESIAN_POINT('',(0.,0.,-0.0163));
#2097=CARTESIAN_POINT('',(0.,-0.0025,-0.0163));
#2098=CARTESIAN_POINT('',(0.0104276275541827,-0.0025,-0.0163));
#2099=CARTESIAN_POINT('',(0.0104276275541827,-0.002498,-0.0163));
#2100=CARTESIAN_POINT('',(-0.0104276275541827,-0.002498,-0.0163));
#2101=CARTESIAN_POINT('',(-2.08166817117217E-17,-0.0135,-0.005435));
#2102=CARTESIAN_POINT('',(0.0168,-0.0135,-0.02237));
#2103=CARTESIAN_POINT('',(0.0168,-0.0135,-0.02337));
#2104=CARTESIAN_POINT('',(-0.0168,-0.0135,-0.02237));
#2105=CARTESIAN_POINT('',(-0.0168,-0.0135,-0.02337));
#2106=CARTESIAN_POINT('',(-0.0168,-0.0135,0.0115));
#2107=CARTESIAN_POINT('',(-0.0168,-0.0135,0.0105));
#2108=CARTESIAN_POINT('',(0.0168,-0.0135,0.0115));
#2109=CARTESIAN_POINT('',(0.0168,-0.0135,0.0105));
#2110=CARTESIAN_POINT('',(-2.08166817117217E-17,-0.0135,-0.02207));
#2111=CARTESIAN_POINT('',(0.009525,-0.0135,-0.02207));
#2112=CARTESIAN_POINT('',(0.0125,-0.0135,-0.02207));
#2113=CARTESIAN_POINT('',(0.009525,-0.0135,0.013702));
#2114=CARTESIAN_POINT('',(-0.009525,-0.0135,0.013702));
#2115=CARTESIAN_POINT('',(-0.009525,-0.0135,-0.02207));
#2116=CARTESIAN_POINT('',(-2.08166817117217E-17,-0.0135,-0.02207));
#2117=CARTESIAN_POINT('',(-0.0125,-0.0135,-0.02207));
#2118=CARTESIAN_POINT('',(-0.0125,-0.0135,-0.02007));
#2119=CARTESIAN_POINT('',(-0.0125,-0.0135,-0.01807));
#2120=CARTESIAN_POINT('',(-0.0145,-0.0135,-0.01807));
#2121=CARTESIAN_POINT('',(-0.0165,-0.0135,-0.01807));
#2122=CARTESIAN_POINT('',(-0.0165,-0.0135,-0.005435));
#2123=CARTESIAN_POINT('',(-0.0165,-0.0135,0.0072));
#2124=CARTESIAN_POINT('',(-0.0145,-0.0135,0.0072));
#2125=CARTESIAN_POINT('',(-1.87928376564154E-18,-0.0135,0.0112));
#2126=CARTESIAN_POINT('',(0.0145,-0.0135,0.0072));
#2127=CARTESIAN_POINT('',(0.0165,-0.0135,0.0072));
#2128=CARTESIAN_POINT('',(0.0165,-0.0135,-0.005435));
#2129=CARTESIAN_POINT('',(0.0165,-0.0135,-0.01807));
#2130=CARTESIAN_POINT('',(0.0145,-0.0135,-0.01807));
#2131=CARTESIAN_POINT('',(0.0125,-0.0135,-0.01807));
#2132=CARTESIAN_POINT('',(0.0125,-0.0135,-0.02007));
#2133=CARTESIAN_POINT('',(-2.08166817117217E-17,-0.0085,-0.02207));
#2134=CARTESIAN_POINT('',(-0.009525,-0.0125,-0.02207));
#2135=CARTESIAN_POINT('',(-0.009525,-0.0115,-0.02207));
#2136=CARTESIAN_POINT('',(0.,-0.0115,-0.02207));
#2137=CARTESIAN_POINT('',(0.009525,-0.0115,-0.02207));
#2138=CARTESIAN_POINT('',(0.009525,-0.0125,-0.02207));
#2139=CARTESIAN_POINT('',(0.0125,-0.013502,-0.02207));
#2140=CARTESIAN_POINT('',(0.0125,-0.0085,-0.02207));
#2141=CARTESIAN_POINT('',(-2.08166817117217E-17,-0.0085,-0.02207));
#2142=CARTESIAN_POINT('',(-0.0125,-0.0085,-0.02207));
#2143=CARTESIAN_POINT('',(-0.0125,-0.013502,-0.02207));
#2144=CARTESIAN_POINT('',(-0.015,-0.006,-0.0013));
#2145=CARTESIAN_POINT('',(-0.015,2.00000000000027E-06,0.0132349351572897));
#2146=CARTESIAN_POINT('',(-0.015,0.,0.0132349351572897));
#2147=CARTESIAN_POINT('',(-0.015,0.,-0.0013));
#2148=CARTESIAN_POINT('',(0.015,-0.006,-0.0013));
#2149=CARTESIAN_POINT('',(0.015,-0.0105,-0.0013));
#2150=CARTESIAN_POINT('',(0.015,-0.0105,0.0132349351572898));
#2151=CARTESIAN_POINT('',(0.015,2.00000000000027E-06,0.0132349351572898));
#2152=CARTESIAN_POINT('',(0.015,0.,0.0132349351572898));
#2153=CARTESIAN_POINT('',(0.015,0.,-0.0013));
#2154=CARTESIAN_POINT('',(0.,0.,-0.0013));
#2155=CARTESIAN_POINT('',(-0.008,0.,-0.008));
#2156=CARTESIAN_POINT('',(-0.008,0.,-0.00945));
#2157=CARTESIAN_POINT('',(-0.008,0.,0.008));
#2158=CARTESIAN_POINT('',(-0.008,0.,0.00655));
#2159=CARTESIAN_POINT('',(0.008,0.,0.008));
#2160=CARTESIAN_POINT('',(0.008,0.,0.00655));
#2161=CARTESIAN_POINT('',(0.008,0.,-0.008));
#2162=CARTESIAN_POINT('',(0.008,0.,-0.00945));
#2163=CARTESIAN_POINT('',(0.,0.,4.43934464690916E-19));
#2164=CARTESIAN_POINT('',(0.,0.,-0.00725));
#2165=CARTESIAN_POINT('',(0.0168,0.,0.0115));
#2166=CARTESIAN_POINT('',(-0.0168,0.,0.0115));
#2167=CARTESIAN_POINT('',(-0.0165,-0.0085,-0.005435));
#2168=CARTESIAN_POINT('',(-0.0165,-0.013502,0.0072));
#2169=CARTESIAN_POINT('',(-0.0165,-0.0085,0.0072));
#2170=CARTESIAN_POINT('',(-0.0165,-0.013502,-0.01807));
#2171=CARTESIAN_POINT('',(-0.0165,-0.0085,-0.01807));
#2172=CARTESIAN_POINT('',(-0.0165,-0.0085,-0.005435));
#2173=CARTESIAN_POINT('',(0.0165,-0.0085,-0.005435));
#2174=CARTESIAN_POINT('',(0.0165,-0.013502,-0.01807));
#2175=CARTESIAN_POINT('',(0.0165,-0.0085,-0.01807));
#2176=CARTESIAN_POINT('',(0.0165,-0.013502,0.0072));
#2177=CARTESIAN_POINT('',(0.0165,-0.0085,0.0072));
#2178=CARTESIAN_POINT('',(0.0165,-0.0085,-0.005435));
#2179=CARTESIAN_POINT('',(-1.87928376564154E-18,-0.006,0.0112));
#2180=CARTESIAN_POINT('',(-1.87928376564154E-18,-0.0025,0.0112));
#2181=CARTESIAN_POINT('',(-2.08166817117217E-17,-0.0085,-0.005435));
#2182=CARTESIAN_POINT('',(0.013,-0.0085,0.00143));
#2183=CARTESIAN_POINT('',(0.013,-0.0085,-0.01457));
#2184=CARTESIAN_POINT('',(-0.013,-0.0085,-0.01457));
#2185=CARTESIAN_POINT('',(-0.013,-0.0085,0.00142999999999996));
#2186=CARTESIAN_POINT('',(-2.08166817117217E-17,-0.0085,0.0072));
#2187=CARTESIAN_POINT('',(-2.08166817117217E-17,-0.0085,-0.01807));
#2188=CARTESIAN_POINT('',(-0.0125,-0.0085,-0.01807));
#2189=CARTESIAN_POINT('',(-0.0125,-0.0085,-0.005435));
#2190=CARTESIAN_POINT('',(0.0125,-0.0085,-0.005435));
#2191=CARTESIAN_POINT('',(0.0125,-0.0085,-0.01807));
#2192=CARTESIAN_POINT('',(-2.08166817117217E-17,-0.0085,-0.01807));
#2193=CARTESIAN_POINT('',(-2.35564606015925E-17,-0.0085,0.0072));
#2194=CARTESIAN_POINT('',(0.,-0.0025,-0.0013));
#2195=CARTESIAN_POINT('',(-0.008,-0.0025,-0.008));
#2196=CARTESIAN_POINT('',(-0.008,-0.0025,-0.00945));
#2197=CARTESIAN_POINT('',(-0.008,-0.0025,0.008));
#2198=CARTESIAN_POINT('',(-0.008,-0.0025,0.00655));
#2199=CARTESIAN_POINT('',(0.008,-0.0025,0.008));
#2200=CARTESIAN_POINT('',(0.008,-0.0025,0.00655));
#2201=CARTESIAN_POINT('',(0.008,-0.0025,-0.008));
#2202=CARTESIAN_POINT('',(0.008,-0.0025,-0.00945));
#2203=CARTESIAN_POINT('',(0.,-0.0025,4.43934464690916E-19));
#2204=CARTESIAN_POINT('',(0.,-0.0025,-0.00725));
#2205=CARTESIAN_POINT('',(0.,-0.006002,4.43934464690916E-19));
#2206=CARTESIAN_POINT('',(0.008,-0.006002,-0.008));
#2207=CARTESIAN_POINT('',(0.008,-0.006002,0.008));
#2208=CARTESIAN_POINT('',(-0.008,-0.006002,0.008));
#2209=CARTESIAN_POINT('',(-0.008,-0.006002,-0.008));
#2210=CARTESIAN_POINT('',(-0.0125,-0.013502,-0.02007));
#2211=CARTESIAN_POINT('',(-0.0125,-0.013502,-0.01807));
#2212=CARTESIAN_POINT('',(-0.0145,-0.013502,-0.01807));
#2213=CARTESIAN_POINT('',(-0.0145,-0.013502,0.0072));
#2214=CARTESIAN_POINT('',(0.0145,-0.013502,0.0072));
#2215=CARTESIAN_POINT('',(0.0145,-0.013502,-0.01807));
#2216=CARTESIAN_POINT('',(0.0125,-0.013502,-0.01807));
#2217=CARTESIAN_POINT('',(0.0125,-0.013502,-0.02007));
#2218=CARTESIAN_POINT('',(0.0168,2.00000000000027E-06,0.0115));
#2219=CARTESIAN_POINT('',(0.0168,-0.0105,0.0115));
#2220=CARTESIAN_POINT('',(0.0168,-0.0105,0.0105));
#2221=CARTESIAN_POINT('',(-0.0168,2.00000000000027E-06,0.0115));
#2222=CARTESIAN_POINT('',(-0.0168,-0.0105,0.0115));
#2223=CARTESIAN_POINT('',(-0.0168,-0.0105,0.0105));
#2224=CARTESIAN_POINT('',(-0.0168,2.00000000000027E-06,-0.02237));
#2225=CARTESIAN_POINT('',(-0.0168,-0.0105,-0.02237));
#2226=CARTESIAN_POINT('',(-0.0168,-0.0105,-0.02337));
#2227=CARTESIAN_POINT('',(0.0168,2.00000000000027E-06,-0.02237));
#2228=CARTESIAN_POINT('',(0.0168,-0.0105,-0.02237));
#2229=CARTESIAN_POINT('',(0.0168,-0.0105,-0.02337));
#2230=CARTESIAN_POINT('',(0.0168,2.00000000000027E-06,0.0115));
#2231=CARTESIAN_POINT('',(0.0168,-0.0105,0.0115));
#2232=CARTESIAN_POINT('',(0.0168,-0.0105,0.009));
#2233=CARTESIAN_POINT('',(0.0168,-0.262817621135332,0.009));
#2234=CARTESIAN_POINT('',(-0.0168,2.00000000000027E-06,0.0115));
#2235=CARTESIAN_POINT('',(-0.0168,-0.0105,0.0115));
#2236=CARTESIAN_POINT('',(-0.009525,-0.0125,0.013702));
#2237=CARTESIAN_POINT('',(-0.009525,-0.0115,0.013702));
#2238=CARTESIAN_POINT('',(0.,-0.0115,0.013702));
#2239=CARTESIAN_POINT('',(0.009525,-0.0115,0.013702));
#2240=CARTESIAN_POINT('',(0.009525,-0.0125,0.013702));
#2241=CARTESIAN_POINT('',(0.,-0.0025,-0.0013));
#2242=CARTESIAN_POINT('',(0.013,-0.0025,0.00143));
#2243=CARTESIAN_POINT('',(0.013,-0.002498,0.00143));
#2244=CARTESIAN_POINT('',(0.,-0.0025,-0.0013));
#2245=CARTESIAN_POINT('',(0.013,-0.0025,-0.01457));
#2246=CARTESIAN_POINT('',(0.013,-0.002498,-0.01457));
#2247=CARTESIAN_POINT('',(0.,-0.0025,-0.0013));
#2248=CARTESIAN_POINT('',(-0.013,-0.0025,-0.01457));
#2249=CARTESIAN_POINT('',(-0.013,-0.002498,-0.01457));
#2250=CARTESIAN_POINT('',(0.,-0.0025,-0.0013));
#2251=CARTESIAN_POINT('',(-0.013,-0.0025,0.00142999999999996));
#2252=CARTESIAN_POINT('',(-0.013,-0.002498,0.00142999999999996));
#2253=CARTESIAN_POINT('',(0.,-0.0045,-0.0013));
#2254=CARTESIAN_POINT('',(0.013,-0.0045,-0.01457));
#2255=CARTESIAN_POINT('',(0.013,0.249317621135331,-0.01457));
#2256=CARTESIAN_POINT('',(0.,-0.0045,-0.0013));
#2257=CARTESIAN_POINT('',(0.013,-0.0045,0.00143));
#2258=CARTESIAN_POINT('',(0.013,0.249317621135331,0.00143));
#2259=CARTESIAN_POINT('',(0.,-0.0045,-0.0013));
#2260=CARTESIAN_POINT('',(-0.013,-0.0045,-0.01457));
#2261=CARTESIAN_POINT('',(-0.013,0.249317621135331,-0.01457));
#2262=CARTESIAN_POINT('',(0.,-0.0045,-0.0013));
#2263=CARTESIAN_POINT('',(-0.013,-0.0045,0.00142999999999996));
#2264=CARTESIAN_POINT('',(-0.013,0.249317621135331,0.00142999999999996));
#2265=CARTESIAN_POINT('',(-2.08166817117217E-17,-0.0105,-0.005435));
#2266=CARTESIAN_POINT('',(0.0143,-0.0105,-0.02347));
#2267=CARTESIAN_POINT('',(0.0143,-0.0105,-0.02237));
#2268=CARTESIAN_POINT('',(0.0168,-0.0105,-0.02237));
#2269=CARTESIAN_POINT('',(0.0168,-0.0105,-0.01987));
#2270=CARTESIAN_POINT('',(0.0179,-0.0105,-0.01987));
#2271=CARTESIAN_POINT('',(0.0168,-0.262817621135332,-0.02237));
#2272=CARTESIAN_POINT('',(0.0143,-0.262817621135332,-0.02237));
#2273=CARTESIAN_POINT('',(0.0168,-0.262817621135332,-0.01987));
#2274=CARTESIAN_POINT('',(0.0179,-0.262817621135332,-0.01987));
#2275=CARTESIAN_POINT('',(0.0143,-0.262817621135332,-0.02347));
#2276=CARTESIAN_POINT('',(-2.08166817117217E-17,-0.0105,-0.005435));
#2277=CARTESIAN_POINT('',(-0.0179,-0.0105,-0.01987));
#2278=CARTESIAN_POINT('',(-0.0168,-0.0105,-0.01987));
#2279=CARTESIAN_POINT('',(-0.0168,-0.0105,-0.02237));
#2280=CARTESIAN_POINT('',(-0.0143,-0.0105,-0.02237));
#2281=CARTESIAN_POINT('',(-0.0143,-0.0105,-0.02347));
#2282=CARTESIAN_POINT('',(-0.0179,-0.262817621135332,-0.01987));
#2283=CARTESIAN_POINT('',(-0.0168,-0.262817621135332,-0.01987));
#2284=CARTESIAN_POINT('',(-0.0168,-0.262817621135332,-0.02237));
#2285=CARTESIAN_POINT('',(-0.0143,-0.262817621135332,-0.02237));
#2286=CARTESIAN_POINT('',(-0.0143,-0.262817621135332,-0.02347));
#2287=CARTESIAN_POINT('',(-2.08166817117217E-17,-0.0105,-0.005435));
#2288=CARTESIAN_POINT('',(-2.08166817117217E-17,-0.0105,-0.005435));
#2289=CARTESIAN_POINT('',(0.0179,-0.0105,0.009));
#2290=CARTESIAN_POINT('',(0.0179,-0.262817621135332,0.009));
#2291=MECHANICAL_DESIGN_GEOMETRIC_PRESENTATION_REPRESENTATION('',(#1392),#2292);
#2292=(
GEOMETRIC_REPRESENTATION_CONTEXT(3)
GLOBAL_UNCERTAINTY_ASSIGNED_CONTEXT((#2293))
GLOBAL_UNIT_ASSIGNED_CONTEXT((#2296,#2295,#2294))
REPRESENTATION_CONTEXT('Baffle','TOP_LEVEL_ASSEMBLY_PART')
);
#2293=UNCERTAINTY_MEASURE_WITH_UNIT(LENGTH_MEASURE(1.E-08),#2296,'DISTANCE_ACCURACY_VALUE','Maximum Tolerance applied to model');
#2294=(
NAMED_UNIT(*)
SI_UNIT($,.STERADIAN.)
SOLID_ANGLE_UNIT()
);
#2295=(
NAMED_UNIT(*)
PLANE_ANGLE_UNIT()
SI_UNIT($,.RADIAN.)
);
#2296=(
LENGTH_UNIT()
NAMED_UNIT(*)
SI_UNIT($,.METRE.)
);
#2297=PRODUCT_DEFINITION_SHAPE('','',#2298);
#2298=PRODUCT_DEFINITION('','',#2300,#2299);
#2299=PRODUCT_DEFINITION_CONTEXT('',#2306,'design');
#2300=PRODUCT_DEFINITION_FORMATION_WITH_SPECIFIED_SOURCE('','',#2302,.NOT_KNOWN.);
#2301=PRODUCT_RELATED_PRODUCT_CATEGORY('','',(#2302));
#2302=PRODUCT('Baffle','Baffle','Baffle',(#2304));
#2303=PRODUCT_CATEGORY('','');
#2304=PRODUCT_CONTEXT('',#2306,'mechanical');
#2305=APPLICATION_PROTOCOL_DEFINITION('international standard','ap242_managed_model_based_3d_engineering',2020,#2306);
#2306=APPLICATION_CONTEXT('managed model based 3d engineering');
ENDSEC;
END-ISO-10303-21;
