ISO-10303-21;
HEADER;
/*Generated by software containing ST-Developer
 * from STEP Tools, Inc. (www.steptools.com) 
 */
/*OPTION: using custom renumber hook */
/*description */
/*implementation_level */
FILE_DESCRIPTION(('STEP AP242 Edition 2','STEP AP242 Edition 2''CAx-IF Rec.Pracs.---Representation and Presentation of Product Manufa
cturing Information (PMI)---4.0---2014-10-13','STEP AP242 Edition 2''CAx-IF Rec.Pracs.---Representation and Presentation of Product Manufa
cturing Information (PMI)---4.0---2014-10-13''CAx-IF Rec.Pracs.---3D Tessellated Geometry---0.4---2014-09-14','STEP AP242 Edition 2''CAx-IF Rec.Pracs.---Representation and Presentation of Product Manufa
cturing Information (PMI)---4.0---2014-10-13''CAx-IF Rec.Pracs.---3D Tessellated Geometry---0.4---2014-09-14''2;1','STEP AP242 Edition 2''CAx-IF Rec.Pracs.---Representation and Presentation of Product Manufa
cturing Information (PMI)---4.0---2014-10-13''CAx-IF Rec.Pracs.---3D Tessellated Geometry---0.4---2014-09-14''2;1''CAx-IF Rec.Pracs.---User Defined Attributes---1.5---2016-08-15'),'2;1');
/*name */
/*time_stamp */
/*author */
/*organization */
/*preprocessor_version */
/*originating_system */
/*authorisation */
FILE_NAME('/vol/tmp/translate-4766789816606369519/Beamsplitter direct mount iris - Lid.step','2026-03-03T22:33:22',(''),(''),'ST-DEVELOPER v20','ONSHAPE BY PTC INC, 1.211','  ');
FILE_SCHEMA(('AP242_MANAGED_MODEL_BASED_3D_ENGINEERING_MIM_LF { 1 0 10303 442 3 1 4 }'));
ENDSEC;
DATA;
#10=SHAPE_REPRESENTATION_RELATIONSHIP('','',#973,#11);
#11=ADVANCED_BREP_SHAPE_REPRESENTATION('',(#971),#1547);
#12=CYLINDRICAL_SURFACE('',#989,0.001);
#13=CYLINDRICAL_SURFACE('',#991,0.001);
#14=CYLINDRICAL_SURFACE('',#993,0.001);
#15=CYLINDRICAL_SURFACE('',#995,0.001);
#16=CYLINDRICAL_SURFACE('',#1008,0.0008);
#17=CYLINDRICAL_SURFACE('',#1009,0.0008);
#18=CYLINDRICAL_SURFACE('',#1010,0.0008);
#19=CYLINDRICAL_SURFACE('',#1011,0.0008);
#20=CIRCLE('',#976,0.001);
#21=CIRCLE('',#977,0.001);
#22=CIRCLE('',#978,0.001);
#23=CIRCLE('',#979,0.001);
#24=CIRCLE('',#980,0.0008);
#25=CIRCLE('',#981,0.0008);
#26=CIRCLE('',#982,0.0008);
#27=CIRCLE('',#983,0.0008);
#28=CIRCLE('',#990,0.001);
#29=CIRCLE('',#992,0.001);
#30=CIRCLE('',#994,0.001);
#31=CIRCLE('',#996,0.001);
#32=CIRCLE('',#999,0.0008);
#33=CIRCLE('',#1000,0.0008);
#34=CIRCLE('',#1001,0.0008);
#35=CIRCLE('',#1002,0.0008);
#36=ORIENTED_EDGE('',*,*,#284,.F.);
#37=ORIENTED_EDGE('',*,*,#285,.T.);
#38=ORIENTED_EDGE('',*,*,#286,.T.);
#39=ORIENTED_EDGE('',*,*,#287,.F.);
#40=ORIENTED_EDGE('',*,*,#288,.T.);
#41=ORIENTED_EDGE('',*,*,#289,.T.);
#42=ORIENTED_EDGE('',*,*,#290,.T.);
#43=ORIENTED_EDGE('',*,*,#291,.T.);
#44=ORIENTED_EDGE('',*,*,#292,.F.);
#45=ORIENTED_EDGE('',*,*,#293,.F.);
#46=ORIENTED_EDGE('',*,*,#294,.T.);
#47=ORIENTED_EDGE('',*,*,#295,.T.);
#48=ORIENTED_EDGE('',*,*,#296,.T.);
#49=ORIENTED_EDGE('',*,*,#297,.T.);
#50=ORIENTED_EDGE('',*,*,#298,.T.);
#51=ORIENTED_EDGE('',*,*,#299,.T.);
#52=ORIENTED_EDGE('',*,*,#300,.F.);
#53=ORIENTED_EDGE('',*,*,#301,.T.);
#54=ORIENTED_EDGE('',*,*,#302,.T.);
#55=ORIENTED_EDGE('',*,*,#303,.F.);
#56=ORIENTED_EDGE('',*,*,#304,.F.);
#57=ORIENTED_EDGE('',*,*,#305,.F.);
#58=ORIENTED_EDGE('',*,*,#306,.F.);
#59=ORIENTED_EDGE('',*,*,#307,.T.);
#60=ORIENTED_EDGE('',*,*,#308,.T.);
#61=ORIENTED_EDGE('',*,*,#309,.F.);
#62=ORIENTED_EDGE('',*,*,#310,.T.);
#63=ORIENTED_EDGE('',*,*,#311,.F.);
#64=ORIENTED_EDGE('',*,*,#312,.F.);
#65=ORIENTED_EDGE('',*,*,#313,.T.);
#66=ORIENTED_EDGE('',*,*,#314,.T.);
#67=ORIENTED_EDGE('',*,*,#315,.T.);
#68=ORIENTED_EDGE('',*,*,#316,.F.);
#69=ORIENTED_EDGE('',*,*,#317,.F.);
#70=ORIENTED_EDGE('',*,*,#318,.T.);
#71=ORIENTED_EDGE('',*,*,#319,.F.);
#72=ORIENTED_EDGE('',*,*,#320,.F.);
#73=ORIENTED_EDGE('',*,*,#321,.T.);
#74=ORIENTED_EDGE('',*,*,#322,.T.);
#75=ORIENTED_EDGE('',*,*,#323,.F.);
#76=ORIENTED_EDGE('',*,*,#324,.T.);
#77=ORIENTED_EDGE('',*,*,#325,.T.);
#78=ORIENTED_EDGE('',*,*,#310,.F.);
#79=ORIENTED_EDGE('',*,*,#326,.F.);
#80=ORIENTED_EDGE('',*,*,#327,.F.);
#81=ORIENTED_EDGE('',*,*,#328,.F.);
#82=ORIENTED_EDGE('',*,*,#329,.T.);
#83=ORIENTED_EDGE('',*,*,#304,.T.);
#84=ORIENTED_EDGE('',*,*,#308,.F.);
#85=ORIENTED_EDGE('',*,*,#330,.F.);
#86=ORIENTED_EDGE('',*,*,#331,.T.);
#87=ORIENTED_EDGE('',*,*,#332,.T.);
#88=ORIENTED_EDGE('',*,*,#307,.F.);
#89=ORIENTED_EDGE('',*,*,#333,.F.);
#90=ORIENTED_EDGE('',*,*,#334,.T.);
#91=ORIENTED_EDGE('',*,*,#330,.T.);
#92=ORIENTED_EDGE('',*,*,#306,.T.);
#93=ORIENTED_EDGE('',*,*,#335,.F.);
#94=ORIENTED_EDGE('',*,*,#336,.F.);
#95=ORIENTED_EDGE('',*,*,#333,.T.);
#96=ORIENTED_EDGE('',*,*,#337,.T.);
#97=ORIENTED_EDGE('',*,*,#288,.F.);
#98=ORIENTED_EDGE('',*,*,#338,.T.);
#99=ORIENTED_EDGE('',*,*,#289,.F.);
#100=ORIENTED_EDGE('',*,*,#339,.T.);
#101=ORIENTED_EDGE('',*,*,#290,.F.);
#102=ORIENTED_EDGE('',*,*,#340,.T.);
#103=ORIENTED_EDGE('',*,*,#291,.F.);
#104=ORIENTED_EDGE('',*,*,#305,.T.);
#105=ORIENTED_EDGE('',*,*,#329,.F.);
#106=ORIENTED_EDGE('',*,*,#341,.T.);
#107=ORIENTED_EDGE('',*,*,#326,.T.);
#108=ORIENTED_EDGE('',*,*,#309,.T.);
#109=ORIENTED_EDGE('',*,*,#332,.F.);
#110=ORIENTED_EDGE('',*,*,#342,.F.);
#111=ORIENTED_EDGE('',*,*,#335,.T.);
#112=ORIENTED_EDGE('',*,*,#343,.F.);
#113=ORIENTED_EDGE('',*,*,#344,.F.);
#114=ORIENTED_EDGE('',*,*,#345,.F.);
#115=ORIENTED_EDGE('',*,*,#346,.F.);
#116=ORIENTED_EDGE('',*,*,#340,.F.);
#117=ORIENTED_EDGE('',*,*,#339,.F.);
#118=ORIENTED_EDGE('',*,*,#338,.F.);
#119=ORIENTED_EDGE('',*,*,#337,.F.);
#120=ORIENTED_EDGE('',*,*,#331,.F.);
#121=ORIENTED_EDGE('',*,*,#334,.F.);
#122=ORIENTED_EDGE('',*,*,#336,.T.);
#123=ORIENTED_EDGE('',*,*,#342,.T.);
#124=ORIENTED_EDGE('',*,*,#293,.T.);
#125=ORIENTED_EDGE('',*,*,#347,.F.);
#126=ORIENTED_EDGE('',*,*,#348,.F.);
#127=ORIENTED_EDGE('',*,*,#349,.T.);
#128=ORIENTED_EDGE('',*,*,#294,.F.);
#129=ORIENTED_EDGE('',*,*,#349,.F.);
#130=ORIENTED_EDGE('',*,*,#350,.T.);
#131=ORIENTED_EDGE('',*,*,#351,.T.);
#132=ORIENTED_EDGE('',*,*,#295,.F.);
#133=ORIENTED_EDGE('',*,*,#351,.F.);
#134=ORIENTED_EDGE('',*,*,#352,.T.);
#135=ORIENTED_EDGE('',*,*,#353,.T.);
#136=ORIENTED_EDGE('',*,*,#292,.T.);
#137=ORIENTED_EDGE('',*,*,#353,.F.);
#138=ORIENTED_EDGE('',*,*,#354,.F.);
#139=ORIENTED_EDGE('',*,*,#347,.T.);
#140=ORIENTED_EDGE('',*,*,#348,.T.);
#141=ORIENTED_EDGE('',*,*,#354,.T.);
#142=ORIENTED_EDGE('',*,*,#352,.F.);
#143=ORIENTED_EDGE('',*,*,#350,.F.);
#144=ORIENTED_EDGE('',*,*,#296,.F.);
#145=ORIENTED_EDGE('',*,*,#346,.T.);
#146=ORIENTED_EDGE('',*,*,#297,.F.);
#147=ORIENTED_EDGE('',*,*,#345,.T.);
#148=ORIENTED_EDGE('',*,*,#298,.F.);
#149=ORIENTED_EDGE('',*,*,#344,.T.);
#150=ORIENTED_EDGE('',*,*,#299,.F.);
#151=ORIENTED_EDGE('',*,*,#343,.T.);
#152=ORIENTED_EDGE('',*,*,#355,.F.);
#153=ORIENTED_EDGE('',*,*,#356,.T.);
#154=ORIENTED_EDGE('',*,*,#357,.T.);
#155=ORIENTED_EDGE('',*,*,#314,.F.);
#156=ORIENTED_EDGE('',*,*,#315,.F.);
#157=ORIENTED_EDGE('',*,*,#357,.F.);
#158=ORIENTED_EDGE('',*,*,#358,.T.);
#159=ORIENTED_EDGE('',*,*,#359,.T.);
#160=ORIENTED_EDGE('',*,*,#360,.F.);
#161=ORIENTED_EDGE('',*,*,#361,.T.);
#162=ORIENTED_EDGE('',*,*,#300,.T.);
#163=ORIENTED_EDGE('',*,*,#359,.F.);
#164=ORIENTED_EDGE('',*,*,#356,.F.);
#165=ORIENTED_EDGE('',*,*,#362,.T.);
#166=ORIENTED_EDGE('',*,*,#363,.T.);
#167=ORIENTED_EDGE('',*,*,#364,.F.);
#168=ORIENTED_EDGE('',*,*,#324,.F.);
#169=ORIENTED_EDGE('',*,*,#341,.F.);
#170=ORIENTED_EDGE('',*,*,#328,.T.);
#171=ORIENTED_EDGE('',*,*,#365,.F.);
#172=ORIENTED_EDGE('',*,*,#366,.F.);
#173=ORIENTED_EDGE('',*,*,#367,.T.);
#174=ORIENTED_EDGE('',*,*,#360,.T.);
#175=ORIENTED_EDGE('',*,*,#358,.F.);
#176=ORIENTED_EDGE('',*,*,#368,.T.);
#177=ORIENTED_EDGE('',*,*,#366,.T.);
#178=ORIENTED_EDGE('',*,*,#369,.F.);
#179=ORIENTED_EDGE('',*,*,#370,.F.);
#180=ORIENTED_EDGE('',*,*,#361,.F.);
#181=ORIENTED_EDGE('',*,*,#367,.F.);
#182=ORIENTED_EDGE('',*,*,#368,.F.);
#183=ORIENTED_EDGE('',*,*,#371,.T.);
#184=ORIENTED_EDGE('',*,*,#372,.T.);
#185=ORIENTED_EDGE('',*,*,#301,.F.);
#186=ORIENTED_EDGE('',*,*,#365,.T.);
#187=ORIENTED_EDGE('',*,*,#327,.T.);
#188=ORIENTED_EDGE('',*,*,#303,.T.);
#189=ORIENTED_EDGE('',*,*,#373,.F.);
#190=ORIENTED_EDGE('',*,*,#374,.F.);
#191=ORIENTED_EDGE('',*,*,#369,.T.);
#192=ORIENTED_EDGE('',*,*,#302,.F.);
#193=ORIENTED_EDGE('',*,*,#372,.F.);
#194=ORIENTED_EDGE('',*,*,#375,.T.);
#195=ORIENTED_EDGE('',*,*,#373,.T.);
#196=ORIENTED_EDGE('',*,*,#370,.T.);
#197=ORIENTED_EDGE('',*,*,#374,.T.);
#198=ORIENTED_EDGE('',*,*,#375,.F.);
#199=ORIENTED_EDGE('',*,*,#371,.F.);
#200=ORIENTED_EDGE('',*,*,#363,.F.);
#201=ORIENTED_EDGE('',*,*,#376,.F.);
#202=ORIENTED_EDGE('',*,*,#377,.T.);
#203=ORIENTED_EDGE('',*,*,#378,.T.);
#204=ORIENTED_EDGE('',*,*,#312,.T.);
#205=ORIENTED_EDGE('',*,*,#379,.F.);
#206=ORIENTED_EDGE('',*,*,#380,.F.);
#207=ORIENTED_EDGE('',*,*,#381,.T.);
#208=ORIENTED_EDGE('',*,*,#362,.F.);
#209=ORIENTED_EDGE('',*,*,#355,.T.);
#210=ORIENTED_EDGE('',*,*,#313,.F.);
#211=ORIENTED_EDGE('',*,*,#381,.F.);
#212=ORIENTED_EDGE('',*,*,#382,.T.);
#213=ORIENTED_EDGE('',*,*,#376,.T.);
#214=ORIENTED_EDGE('',*,*,#325,.F.);
#215=ORIENTED_EDGE('',*,*,#364,.T.);
#216=ORIENTED_EDGE('',*,*,#378,.F.);
#217=ORIENTED_EDGE('',*,*,#383,.F.);
#218=ORIENTED_EDGE('',*,*,#379,.T.);
#219=ORIENTED_EDGE('',*,*,#311,.T.);
#220=ORIENTED_EDGE('',*,*,#380,.T.);
#221=ORIENTED_EDGE('',*,*,#383,.T.);
#222=ORIENTED_EDGE('',*,*,#377,.F.);
#223=ORIENTED_EDGE('',*,*,#382,.F.);
#224=ORIENTED_EDGE('',*,*,#316,.T.);
#225=ORIENTED_EDGE('',*,*,#384,.F.);
#226=ORIENTED_EDGE('',*,*,#385,.F.);
#227=ORIENTED_EDGE('',*,*,#386,.T.);
#228=ORIENTED_EDGE('',*,*,#317,.T.);
#229=ORIENTED_EDGE('',*,*,#386,.F.);
#230=ORIENTED_EDGE('',*,*,#387,.F.);
#231=ORIENTED_EDGE('',*,*,#388,.T.);
#232=ORIENTED_EDGE('',*,*,#318,.F.);
#233=ORIENTED_EDGE('',*,*,#388,.F.);
#234=ORIENTED_EDGE('',*,*,#389,.T.);
#235=ORIENTED_EDGE('',*,*,#390,.T.);
#236=ORIENTED_EDGE('',*,*,#319,.T.);
#237=ORIENTED_EDGE('',*,*,#390,.F.);
#238=ORIENTED_EDGE('',*,*,#391,.F.);
#239=ORIENTED_EDGE('',*,*,#384,.T.);
#240=ORIENTED_EDGE('',*,*,#385,.T.);
#241=ORIENTED_EDGE('',*,*,#391,.T.);
#242=ORIENTED_EDGE('',*,*,#389,.F.);
#243=ORIENTED_EDGE('',*,*,#387,.T.);
#244=ORIENTED_EDGE('',*,*,#284,.T.);
#245=ORIENTED_EDGE('',*,*,#392,.F.);
#246=ORIENTED_EDGE('',*,*,#393,.F.);
#247=ORIENTED_EDGE('',*,*,#394,.T.);
#248=ORIENTED_EDGE('',*,*,#285,.F.);
#249=ORIENTED_EDGE('',*,*,#394,.F.);
#250=ORIENTED_EDGE('',*,*,#395,.T.);
#251=ORIENTED_EDGE('',*,*,#396,.T.);
#252=ORIENTED_EDGE('',*,*,#286,.F.);
#253=ORIENTED_EDGE('',*,*,#396,.F.);
#254=ORIENTED_EDGE('',*,*,#397,.T.);
#255=ORIENTED_EDGE('',*,*,#398,.T.);
#256=ORIENTED_EDGE('',*,*,#287,.T.);
#257=ORIENTED_EDGE('',*,*,#398,.F.);
#258=ORIENTED_EDGE('',*,*,#399,.F.);
#259=ORIENTED_EDGE('',*,*,#392,.T.);
#260=ORIENTED_EDGE('',*,*,#393,.T.);
#261=ORIENTED_EDGE('',*,*,#399,.T.);
#262=ORIENTED_EDGE('',*,*,#397,.F.);
#263=ORIENTED_EDGE('',*,*,#395,.F.);
#264=ORIENTED_EDGE('',*,*,#320,.T.);
#265=ORIENTED_EDGE('',*,*,#400,.F.);
#266=ORIENTED_EDGE('',*,*,#401,.F.);
#267=ORIENTED_EDGE('',*,*,#402,.T.);
#268=ORIENTED_EDGE('',*,*,#321,.F.);
#269=ORIENTED_EDGE('',*,*,#402,.F.);
#270=ORIENTED_EDGE('',*,*,#403,.T.);
#271=ORIENTED_EDGE('',*,*,#404,.T.);
#272=ORIENTED_EDGE('',*,*,#322,.F.);
#273=ORIENTED_EDGE('',*,*,#404,.F.);
#274=ORIENTED_EDGE('',*,*,#405,.T.);
#275=ORIENTED_EDGE('',*,*,#406,.T.);
#276=ORIENTED_EDGE('',*,*,#323,.T.);
#277=ORIENTED_EDGE('',*,*,#406,.F.);
#278=ORIENTED_EDGE('',*,*,#407,.F.);
#279=ORIENTED_EDGE('',*,*,#400,.T.);
#280=ORIENTED_EDGE('',*,*,#401,.T.);
#281=ORIENTED_EDGE('',*,*,#407,.T.);
#282=ORIENTED_EDGE('',*,*,#405,.F.);
#283=ORIENTED_EDGE('',*,*,#403,.F.);
#284=EDGE_CURVE('',#408,#409,#496,.T.);
#285=EDGE_CURVE('',#408,#410,#497,.T.);
#286=EDGE_CURVE('',#410,#411,#498,.T.);
#287=EDGE_CURVE('',#409,#411,#499,.T.);
#288=EDGE_CURVE('',#412,#412,#20,.T.);
#289=EDGE_CURVE('',#413,#413,#21,.T.);
#290=EDGE_CURVE('',#414,#414,#22,.T.);
#291=EDGE_CURVE('',#415,#415,#23,.T.);
#292=EDGE_CURVE('',#416,#417,#500,.T.);
#293=EDGE_CURVE('',#418,#416,#501,.T.);
#294=EDGE_CURVE('',#418,#419,#502,.T.);
#295=EDGE_CURVE('',#419,#417,#503,.T.);
#296=EDGE_CURVE('',#420,#420,#24,.T.);
#297=EDGE_CURVE('',#421,#421,#25,.T.);
#298=EDGE_CURVE('',#422,#422,#26,.T.);
#299=EDGE_CURVE('',#423,#423,#27,.T.);
#300=EDGE_CURVE('',#424,#425,#504,.T.);
#301=EDGE_CURVE('',#424,#426,#505,.T.);
#302=EDGE_CURVE('',#426,#427,#506,.T.);
#303=EDGE_CURVE('',#428,#427,#507,.T.);
#304=EDGE_CURVE('',#429,#428,#508,.T.);
#305=EDGE_CURVE('',#430,#429,#509,.T.);
#306=EDGE_CURVE('',#431,#430,#510,.T.);
#307=EDGE_CURVE('',#431,#432,#511,.T.);
#308=EDGE_CURVE('',#432,#433,#512,.T.);
#309=EDGE_CURVE('',#434,#433,#513,.T.);
#310=EDGE_CURVE('',#434,#435,#514,.T.);
#311=EDGE_CURVE('',#436,#435,#515,.T.);
#312=EDGE_CURVE('',#437,#436,#516,.T.);
#313=EDGE_CURVE('',#437,#438,#517,.T.);
#314=EDGE_CURVE('',#438,#439,#518,.T.);
#315=EDGE_CURVE('',#439,#425,#519,.T.);
#316=EDGE_CURVE('',#440,#441,#520,.T.);
#317=EDGE_CURVE('',#442,#440,#521,.T.);
#318=EDGE_CURVE('',#442,#443,#522,.T.);
#319=EDGE_CURVE('',#441,#443,#523,.T.);
#320=EDGE_CURVE('',#444,#445,#524,.T.);
#321=EDGE_CURVE('',#444,#446,#525,.T.);
#322=EDGE_CURVE('',#446,#447,#526,.T.);
#323=EDGE_CURVE('',#445,#447,#527,.T.);
#324=EDGE_CURVE('',#448,#449,#528,.T.);
#325=EDGE_CURVE('',#449,#435,#529,.T.);
#326=EDGE_CURVE('',#448,#434,#530,.T.);
#327=EDGE_CURVE('',#450,#428,#531,.T.);
#328=EDGE_CURVE('',#451,#450,#532,.T.);
#329=EDGE_CURVE('',#451,#429,#533,.T.);
#330=EDGE_CURVE('',#452,#432,#534,.T.);
#331=EDGE_CURVE('',#452,#453,#535,.T.);
#332=EDGE_CURVE('',#453,#433,#536,.T.);
#333=EDGE_CURVE('',#454,#431,#537,.T.);
#334=EDGE_CURVE('',#454,#452,#538,.T.);
#335=EDGE_CURVE('',#455,#430,#539,.T.);
#336=EDGE_CURVE('',#454,#455,#540,.T.);
#337=EDGE_CURVE('',#456,#456,#28,.T.);
#338=EDGE_CURVE('',#457,#457,#29,.T.);
#339=EDGE_CURVE('',#458,#458,#30,.T.);
#340=EDGE_CURVE('',#459,#459,#31,.T.);
#341=EDGE_CURVE('',#451,#448,#541,.T.);
#342=EDGE_CURVE('',#455,#453,#542,.T.);
#343=EDGE_CURVE('',#460,#460,#32,.T.);
#344=EDGE_CURVE('',#461,#461,#33,.T.);
#345=EDGE_CURVE('',#462,#462,#34,.T.);
#346=EDGE_CURVE('',#463,#463,#35,.T.);
#347=EDGE_CURVE('',#464,#416,#543,.T.);
#348=EDGE_CURVE('',#465,#464,#544,.T.);
#349=EDGE_CURVE('',#465,#418,#545,.T.);
#350=EDGE_CURVE('',#465,#466,#546,.T.);
#351=EDGE_CURVE('',#466,#419,#547,.T.);
#352=EDGE_CURVE('',#466,#467,#548,.T.);
#353=EDGE_CURVE('',#467,#417,#549,.T.);
#354=EDGE_CURVE('',#464,#467,#550,.T.);
#355=EDGE_CURVE('',#468,#438,#551,.T.);
#356=EDGE_CURVE('',#468,#469,#552,.T.);
#357=EDGE_CURVE('',#469,#439,#553,.T.);
#358=EDGE_CURVE('',#469,#470,#554,.T.);
#359=EDGE_CURVE('',#470,#425,#555,.T.);
#360=EDGE_CURVE('',#471,#470,#556,.T.);
#361=EDGE_CURVE('',#471,#424,#557,.T.);
#362=EDGE_CURVE('',#468,#472,#558,.T.);
#363=EDGE_CURVE('',#472,#473,#559,.T.);
#364=EDGE_CURVE('',#449,#473,#560,.T.);
#365=EDGE_CURVE('',#474,#450,#561,.T.);
#366=EDGE_CURVE('',#475,#474,#562,.T.);
#367=EDGE_CURVE('',#475,#471,#563,.T.);
#368=EDGE_CURVE('',#476,#475,#564,.T.);
#369=EDGE_CURVE('',#477,#474,#565,.T.);
#370=EDGE_CURVE('',#476,#477,#566,.T.);
#371=EDGE_CURVE('',#476,#478,#567,.T.);
#372=EDGE_CURVE('',#478,#426,#568,.T.);
#373=EDGE_CURVE('',#479,#427,#569,.T.);
#374=EDGE_CURVE('',#477,#479,#570,.T.);
#375=EDGE_CURVE('',#478,#479,#571,.T.);
#376=EDGE_CURVE('',#480,#472,#572,.T.);
#377=EDGE_CURVE('',#480,#481,#573,.T.);
#378=EDGE_CURVE('',#481,#473,#574,.T.);
#379=EDGE_CURVE('',#482,#436,#575,.T.);
#380=EDGE_CURVE('',#483,#482,#576,.T.);
#381=EDGE_CURVE('',#483,#437,#577,.T.);
#382=EDGE_CURVE('',#483,#480,#578,.T.);
#383=EDGE_CURVE('',#482,#481,#579,.T.);
#384=EDGE_CURVE('',#484,#441,#580,.T.);
#385=EDGE_CURVE('',#485,#484,#581,.T.);
#386=EDGE_CURVE('',#485,#440,#582,.T.);
#387=EDGE_CURVE('',#486,#485,#583,.T.);
#388=EDGE_CURVE('',#486,#442,#584,.T.);
#389=EDGE_CURVE('',#486,#487,#585,.T.);
#390=EDGE_CURVE('',#487,#443,#586,.T.);
#391=EDGE_CURVE('',#484,#487,#587,.T.);
#392=EDGE_CURVE('',#488,#409,#588,.T.);
#393=EDGE_CURVE('',#489,#488,#589,.T.);
#394=EDGE_CURVE('',#489,#408,#590,.T.);
#395=EDGE_CURVE('',#489,#490,#591,.T.);
#396=EDGE_CURVE('',#490,#410,#592,.T.);
#397=EDGE_CURVE('',#490,#491,#593,.T.);
#398=EDGE_CURVE('',#491,#411,#594,.T.);
#399=EDGE_CURVE('',#488,#491,#595,.T.);
#400=EDGE_CURVE('',#492,#445,#596,.T.);
#401=EDGE_CURVE('',#493,#492,#597,.T.);
#402=EDGE_CURVE('',#493,#444,#598,.T.);
#403=EDGE_CURVE('',#493,#494,#599,.T.);
#404=EDGE_CURVE('',#494,#446,#600,.T.);
#405=EDGE_CURVE('',#494,#495,#601,.T.);
#406=EDGE_CURVE('',#495,#447,#602,.T.);
#407=EDGE_CURVE('',#492,#495,#603,.T.);
#408=VERTEX_POINT('',#1286);
#409=VERTEX_POINT('',#1287);
#410=VERTEX_POINT('',#1289);
#411=VERTEX_POINT('',#1291);
#412=VERTEX_POINT('',#1294);
#413=VERTEX_POINT('',#1296);
#414=VERTEX_POINT('',#1298);
#415=VERTEX_POINT('',#1300);
#416=VERTEX_POINT('',#1302);
#417=VERTEX_POINT('',#1303);
#418=VERTEX_POINT('',#1305);
#419=VERTEX_POINT('',#1307);
#420=VERTEX_POINT('',#1310);
#421=VERTEX_POINT('',#1312);
#422=VERTEX_POINT('',#1314);
#423=VERTEX_POINT('',#1316);
#424=VERTEX_POINT('',#1318);
#425=VERTEX_POINT('',#1319);
#426=VERTEX_POINT('',#1321);
#427=VERTEX_POINT('',#1323);
#428=VERTEX_POINT('',#1325);
#429=VERTEX_POINT('',#1327);
#430=VERTEX_POINT('',#1329);
#431=VERTEX_POINT('',#1331);
#432=VERTEX_POINT('',#1333);
#433=VERTEX_POINT('',#1335);
#434=VERTEX_POINT('',#1337);
#435=VERTEX_POINT('',#1339);
#436=VERTEX_POINT('',#1341);
#437=VERTEX_POINT('',#1343);
#438=VERTEX_POINT('',#1345);
#439=VERTEX_POINT('',#1347);
#440=VERTEX_POINT('',#1350);
#441=VERTEX_POINT('',#1351);
#442=VERTEX_POINT('',#1353);
#443=VERTEX_POINT('',#1355);
#444=VERTEX_POINT('',#1358);
#445=VERTEX_POINT('',#1359);
#446=VERTEX_POINT('',#1361);
#447=VERTEX_POINT('',#1363);
#448=VERTEX_POINT('',#1367);
#449=VERTEX_POINT('',#1368);
#450=VERTEX_POINT('',#1373);
#451=VERTEX_POINT('',#1375);
#452=VERTEX_POINT('',#1379);
#453=VERTEX_POINT('',#1381);
#454=VERTEX_POINT('',#1385);
#455=VERTEX_POINT('',#1389);
#456=VERTEX_POINT('',#1393);
#457=VERTEX_POINT('',#1396);
#458=VERTEX_POINT('',#1399);
#459=VERTEX_POINT('',#1402);
#460=VERTEX_POINT('',#1408);
#461=VERTEX_POINT('',#1410);
#462=VERTEX_POINT('',#1412);
#463=VERTEX_POINT('',#1414);
#464=VERTEX_POINT('',#1417);
#465=VERTEX_POINT('',#1419);
#466=VERTEX_POINT('',#1423);
#467=VERTEX_POINT('',#1427);
#468=VERTEX_POINT('',#1438);
#469=VERTEX_POINT('',#1440);
#470=VERTEX_POINT('',#1444);
#471=VERTEX_POINT('',#1448);
#472=VERTEX_POINT('',#1452);
#473=VERTEX_POINT('',#1454);
#474=VERTEX_POINT('',#1457);
#475=VERTEX_POINT('',#1459);
#476=VERTEX_POINT('',#1463);
#477=VERTEX_POINT('',#1465);
#478=VERTEX_POINT('',#1469);
#479=VERTEX_POINT('',#1473);
#480=VERTEX_POINT('',#1480);
#481=VERTEX_POINT('',#1482);
#482=VERTEX_POINT('',#1486);
#483=VERTEX_POINT('',#1488);
#484=VERTEX_POINT('',#1497);
#485=VERTEX_POINT('',#1499);
#486=VERTEX_POINT('',#1503);
#487=VERTEX_POINT('',#1507);
#488=VERTEX_POINT('',#1514);
#489=VERTEX_POINT('',#1516);
#490=VERTEX_POINT('',#1520);
#491=VERTEX_POINT('',#1524);
#492=VERTEX_POINT('',#1531);
#493=VERTEX_POINT('',#1533);
#494=VERTEX_POINT('',#1537);
#495=VERTEX_POINT('',#1541);
#496=LINE('',#1285,#604);
#497=LINE('',#1288,#605);
#498=LINE('',#1290,#606);
#499=LINE('',#1292,#607);
#500=LINE('',#1301,#608);
#501=LINE('',#1304,#609);
#502=LINE('',#1306,#610);
#503=LINE('',#1308,#611);
#504=LINE('',#1317,#612);
#505=LINE('',#1320,#613);
#506=LINE('',#1322,#614);
#507=LINE('',#1324,#615);
#508=LINE('',#1326,#616);
#509=LINE('',#1328,#617);
#510=LINE('',#1330,#618);
#511=LINE('',#1332,#619);
#512=LINE('',#1334,#620);
#513=LINE('',#1336,#621);
#514=LINE('',#1338,#622);
#515=LINE('',#1340,#623);
#516=LINE('',#1342,#624);
#517=LINE('',#1344,#625);
#518=LINE('',#1346,#626);
#519=LINE('',#1348,#627);
#520=LINE('',#1349,#628);
#521=LINE('',#1352,#629);
#522=LINE('',#1354,#630);
#523=LINE('',#1356,#631);
#524=LINE('',#1357,#632);
#525=LINE('',#1360,#633);
#526=LINE('',#1362,#634);
#527=LINE('',#1364,#635);
#528=LINE('',#1366,#636);
#529=LINE('',#1369,#637);
#530=LINE('',#1370,#638);
#531=LINE('',#1372,#639);
#532=LINE('',#1374,#640);
#533=LINE('',#1376,#641);
#534=LINE('',#1378,#642);
#535=LINE('',#1380,#643);
#536=LINE('',#1382,#644);
#537=LINE('',#1384,#645);
#538=LINE('',#1386,#646);
#539=LINE('',#1388,#647);
#540=LINE('',#1390,#648);
#541=LINE('',#1404,#649);
#542=LINE('',#1405,#650);
#543=LINE('',#1416,#651);
#544=LINE('',#1418,#652);
#545=LINE('',#1420,#653);
#546=LINE('',#1422,#654);
#547=LINE('',#1424,#655);
#548=LINE('',#1426,#656);
#549=LINE('',#1428,#657);
#550=LINE('',#1430,#658);
#551=LINE('',#1437,#659);
#552=LINE('',#1439,#660);
#553=LINE('',#1441,#661);
#554=LINE('',#1443,#662);
#555=LINE('',#1445,#663);
#556=LINE('',#1447,#664);
#557=LINE('',#1449,#665);
#558=LINE('',#1451,#666);
#559=LINE('',#1453,#667);
#560=LINE('',#1455,#668);
#561=LINE('',#1456,#669);
#562=LINE('',#1458,#670);
#563=LINE('',#1460,#671);
#564=LINE('',#1462,#672);
#565=LINE('',#1464,#673);
#566=LINE('',#1466,#674);
#567=LINE('',#1468,#675);
#568=LINE('',#1470,#676);
#569=LINE('',#1472,#677);
#570=LINE('',#1474,#678);
#571=LINE('',#1476,#679);
#572=LINE('',#1479,#680);
#573=LINE('',#1481,#681);
#574=LINE('',#1483,#682);
#575=LINE('',#1485,#683);
#576=LINE('',#1487,#684);
#577=LINE('',#1489,#685);
#578=LINE('',#1491,#686);
#579=LINE('',#1493,#687);
#580=LINE('',#1496,#688);
#581=LINE('',#1498,#689);
#582=LINE('',#1500,#690);
#583=LINE('',#1502,#691);
#584=LINE('',#1504,#692);
#585=LINE('',#1506,#693);
#586=LINE('',#1508,#694);
#587=LINE('',#1510,#695);
#588=LINE('',#1513,#696);
#589=LINE('',#1515,#697);
#590=LINE('',#1517,#698);
#591=LINE('',#1519,#699);
#592=LINE('',#1521,#700);
#593=LINE('',#1523,#701);
#594=LINE('',#1525,#702);
#595=LINE('',#1527,#703);
#596=LINE('',#1530,#704);
#597=LINE('',#1532,#705);
#598=LINE('',#1534,#706);
#599=LINE('',#1536,#707);
#600=LINE('',#1538,#708);
#601=LINE('',#1540,#709);
#602=LINE('',#1542,#710);
#603=LINE('',#1544,#711);
#604=VECTOR('',#1045,1.);
#605=VECTOR('',#1046,1.);
#606=VECTOR('',#1047,1.);
#607=VECTOR('',#1048,1.);
#608=VECTOR('',#1057,1.);
#609=VECTOR('',#1058,1.);
#610=VECTOR('',#1059,1.);
#611=VECTOR('',#1060,1.);
#612=VECTOR('',#1069,1.);
#613=VECTOR('',#1070,1.);
#614=VECTOR('',#1071,1.);
#615=VECTOR('',#1072,1.);
#616=VECTOR('',#1073,1.);
#617=VECTOR('',#1074,1.);
#618=VECTOR('',#1075,1.);
#619=VECTOR('',#1076,1.);
#620=VECTOR('',#1077,1.);
#621=VECTOR('',#1078,1.);
#622=VECTOR('',#1079,1.);
#623=VECTOR('',#1080,1.);
#624=VECTOR('',#1081,1.);
#625=VECTOR('',#1082,1.);
#626=VECTOR('',#1083,1.);
#627=VECTOR('',#1084,1.);
#628=VECTOR('',#1085,1.);
#629=VECTOR('',#1086,1.);
#630=VECTOR('',#1087,1.);
#631=VECTOR('',#1088,1.);
#632=VECTOR('',#1089,1.);
#633=VECTOR('',#1090,1.);
#634=VECTOR('',#1091,1.);
#635=VECTOR('',#1092,1.);
#636=VECTOR('',#1095,1.);
#637=VECTOR('',#1096,1.);
#638=VECTOR('',#1097,1.);
#639=VECTOR('',#1100,1.);
#640=VECTOR('',#1101,1.);
#641=VECTOR('',#1102,1.);
#642=VECTOR('',#1105,1.);
#643=VECTOR('',#1106,1.);
#644=VECTOR('',#1107,1.);
#645=VECTOR('',#1110,1.);
#646=VECTOR('',#1111,1.);
#647=VECTOR('',#1114,1.);
#648=VECTOR('',#1115,1.);
#649=VECTOR('',#1134,1.);
#650=VECTOR('',#1135,1.);
#651=VECTOR('',#1148,1.);
#652=VECTOR('',#1149,1.);
#653=VECTOR('',#1150,1.);
#654=VECTOR('',#1153,1.);
#655=VECTOR('',#1154,1.);
#656=VECTOR('',#1157,1.);
#657=VECTOR('',#1158,1.);
#658=VECTOR('',#1161,1.);
#659=VECTOR('',#1174,1.);
#660=VECTOR('',#1175,1.);
#661=VECTOR('',#1176,1.);
#662=VECTOR('',#1179,1.);
#663=VECTOR('',#1180,1.);
#664=VECTOR('',#1183,1.);
#665=VECTOR('',#1184,1.);
#666=VECTOR('',#1187,1.);
#667=VECTOR('',#1188,1.);
#668=VECTOR('',#1189,1.);
#669=VECTOR('',#1190,1.);
#670=VECTOR('',#1191,1.);
#671=VECTOR('',#1192,1.);
#672=VECTOR('',#1195,1.);
#673=VECTOR('',#1196,1.);
#674=VECTOR('',#1197,1.);
#675=VECTOR('',#1200,1.);
#676=VECTOR('',#1201,1.);
#677=VECTOR('',#1204,1.);
#678=VECTOR('',#1205,1.);
#679=VECTOR('',#1208,1.);
#680=VECTOR('',#1213,1.);
#681=VECTOR('',#1214,1.);
#682=VECTOR('',#1215,1.);
#683=VECTOR('',#1218,1.);
#684=VECTOR('',#1219,1.);
#685=VECTOR('',#1220,1.);
#686=VECTOR('',#1223,1.);
#687=VECTOR('',#1226,1.);
#688=VECTOR('',#1231,1.);
#689=VECTOR('',#1232,1.);
#690=VECTOR('',#1233,1.);
#691=VECTOR('',#1236,1.);
#692=VECTOR('',#1237,1.);
#693=VECTOR('',#1240,1.);
#694=VECTOR('',#1241,1.);
#695=VECTOR('',#1244,1.);
#696=VECTOR('',#1249,1.);
#697=VECTOR('',#1250,1.);
#698=VECTOR('',#1251,1.);
#699=VECTOR('',#1254,1.);
#700=VECTOR('',#1255,1.);
#701=VECTOR('',#1258,1.);
#702=VECTOR('',#1259,1.);
#703=VECTOR('',#1262,1.);
#704=VECTOR('',#1267,1.);
#705=VECTOR('',#1268,1.);
#706=VECTOR('',#1269,1.);
#707=VECTOR('',#1272,1.);
#708=VECTOR('',#1273,1.);
#709=VECTOR('',#1276,1.);
#710=VECTOR('',#1277,1.);
#711=VECTOR('',#1280,1.);
#712=EDGE_LOOP('',(#36,#37,#38,#39));
#713=EDGE_LOOP('',(#40));
#714=EDGE_LOOP('',(#41));
#715=EDGE_LOOP('',(#42));
#716=EDGE_LOOP('',(#43));
#717=EDGE_LOOP('',(#44,#45,#46,#47));
#718=EDGE_LOOP('',(#48));
#719=EDGE_LOOP('',(#49));
#720=EDGE_LOOP('',(#50));
#721=EDGE_LOOP('',(#51));
#722=EDGE_LOOP('',(#52,#53,#54,#55,#56,#57,#58,#59,#60,#61,#62,#63,#64,#65,#66,#67));
#723=EDGE_LOOP('',(#68,#69,#70,#71));
#724=EDGE_LOOP('',(#72,#73,#74,#75));
#725=EDGE_LOOP('',(#76,#77,#78,#79));
#726=EDGE_LOOP('',(#80,#81,#82,#83));
#727=EDGE_LOOP('',(#84,#85,#86,#87));
#728=EDGE_LOOP('',(#88,#89,#90,#91));
#729=EDGE_LOOP('',(#92,#93,#94,#95));
#730=EDGE_LOOP('',(#96));
#731=EDGE_LOOP('',(#97));
#732=EDGE_LOOP('',(#98));
#733=EDGE_LOOP('',(#99));
#734=EDGE_LOOP('',(#100));
#735=EDGE_LOOP('',(#101));
#736=EDGE_LOOP('',(#102));
#737=EDGE_LOOP('',(#103));
#738=EDGE_LOOP('',(#104,#105,#106,#107,#108,#109,#110,#111));
#739=EDGE_LOOP('',(#112));
#740=EDGE_LOOP('',(#113));
#741=EDGE_LOOP('',(#114));
#742=EDGE_LOOP('',(#115));
#743=EDGE_LOOP('',(#116));
#744=EDGE_LOOP('',(#117));
#745=EDGE_LOOP('',(#118));
#746=EDGE_LOOP('',(#119));
#747=EDGE_LOOP('',(#120,#121,#122,#123));
#748=EDGE_LOOP('',(#124,#125,#126,#127));
#749=EDGE_LOOP('',(#128,#129,#130,#131));
#750=EDGE_LOOP('',(#132,#133,#134,#135));
#751=EDGE_LOOP('',(#136,#137,#138,#139));
#752=EDGE_LOOP('',(#140,#141,#142,#143));
#753=EDGE_LOOP('',(#144));
#754=EDGE_LOOP('',(#145));
#755=EDGE_LOOP('',(#146));
#756=EDGE_LOOP('',(#147));
#757=EDGE_LOOP('',(#148));
#758=EDGE_LOOP('',(#149));
#759=EDGE_LOOP('',(#150));
#760=EDGE_LOOP('',(#151));
#761=EDGE_LOOP('',(#152,#153,#154,#155));
#762=EDGE_LOOP('',(#156,#157,#158,#159));
#763=EDGE_LOOP('',(#160,#161,#162,#163));
#764=EDGE_LOOP('',(#164,#165,#166,#167,#168,#169,#170,#171,#172,#173,#174,#175));
#765=EDGE_LOOP('',(#176,#177,#178,#179));
#766=EDGE_LOOP('',(#180,#181,#182,#183,#184,#185));
#767=EDGE_LOOP('',(#186,#187,#188,#189,#190,#191));
#768=EDGE_LOOP('',(#192,#193,#194,#195));
#769=EDGE_LOOP('',(#196,#197,#198,#199));
#770=EDGE_LOOP('',(#200,#201,#202,#203));
#771=EDGE_LOOP('',(#204,#205,#206,#207));
#772=EDGE_LOOP('',(#208,#209,#210,#211,#212,#213));
#773=EDGE_LOOP('',(#214,#215,#216,#217,#218,#219));
#774=EDGE_LOOP('',(#220,#221,#222,#223));
#775=EDGE_LOOP('',(#224,#225,#226,#227));
#776=EDGE_LOOP('',(#228,#229,#230,#231));
#777=EDGE_LOOP('',(#232,#233,#234,#235));
#778=EDGE_LOOP('',(#236,#237,#238,#239));
#779=EDGE_LOOP('',(#240,#241,#242,#243));
#780=EDGE_LOOP('',(#244,#245,#246,#247));
#781=EDGE_LOOP('',(#248,#249,#250,#251));
#782=EDGE_LOOP('',(#252,#253,#254,#255));
#783=EDGE_LOOP('',(#256,#257,#258,#259));
#784=EDGE_LOOP('',(#260,#261,#262,#263));
#785=EDGE_LOOP('',(#264,#265,#266,#267));
#786=EDGE_LOOP('',(#268,#269,#270,#271));
#787=EDGE_LOOP('',(#272,#273,#274,#275));
#788=EDGE_LOOP('',(#276,#277,#278,#279));
#789=EDGE_LOOP('',(#280,#281,#282,#283));
#790=FACE_BOUND('',#712,.T.);
#791=FACE_BOUND('',#713,.T.);
#792=FACE_BOUND('',#714,.T.);
#793=FACE_BOUND('',#715,.T.);
#794=FACE_BOUND('',#716,.T.);
#795=FACE_BOUND('',#717,.T.);
#796=FACE_BOUND('',#718,.T.);
#797=FACE_BOUND('',#719,.T.);
#798=FACE_BOUND('',#720,.T.);
#799=FACE_BOUND('',#721,.T.);
#800=FACE_BOUND('',#722,.T.);
#801=FACE_BOUND('',#723,.T.);
#802=FACE_BOUND('',#724,.T.);
#803=FACE_BOUND('',#725,.T.);
#804=FACE_BOUND('',#726,.T.);
#805=FACE_BOUND('',#727,.T.);
#806=FACE_BOUND('',#728,.T.);
#807=FACE_BOUND('',#729,.T.);
#808=FACE_BOUND('',#730,.T.);
#809=FACE_BOUND('',#731,.T.);
#810=FACE_BOUND('',#732,.T.);
#811=FACE_BOUND('',#733,.T.);
#812=FACE_BOUND('',#734,.T.);
#813=FACE_BOUND('',#735,.T.);
#814=FACE_BOUND('',#736,.T.);
#815=FACE_BOUND('',#737,.T.);
#816=FACE_BOUND('',#738,.T.);
#817=FACE_BOUND('',#739,.T.);
#818=FACE_BOUND('',#740,.T.);
#819=FACE_BOUND('',#741,.T.);
#820=FACE_BOUND('',#742,.T.);
#821=FACE_BOUND('',#743,.T.);
#822=FACE_BOUND('',#744,.T.);
#823=FACE_BOUND('',#745,.T.);
#824=FACE_BOUND('',#746,.T.);
#825=FACE_BOUND('',#747,.T.);
#826=FACE_BOUND('',#748,.T.);
#827=FACE_BOUND('',#749,.T.);
#828=FACE_BOUND('',#750,.T.);
#829=FACE_BOUND('',#751,.T.);
#830=FACE_BOUND('',#752,.T.);
#831=FACE_BOUND('',#753,.T.);
#832=FACE_BOUND('',#754,.T.);
#833=FACE_BOUND('',#755,.T.);
#834=FACE_BOUND('',#756,.T.);
#835=FACE_BOUND('',#757,.T.);
#836=FACE_BOUND('',#758,.T.);
#837=FACE_BOUND('',#759,.T.);
#838=FACE_BOUND('',#760,.T.);
#839=FACE_BOUND('',#761,.T.);
#840=FACE_BOUND('',#762,.T.);
#841=FACE_BOUND('',#763,.T.);
#842=FACE_BOUND('',#764,.T.);
#843=FACE_BOUND('',#765,.T.);
#844=FACE_BOUND('',#766,.T.);
#845=FACE_BOUND('',#767,.T.);
#846=FACE_BOUND('',#768,.T.);
#847=FACE_BOUND('',#769,.T.);
#848=FACE_BOUND('',#770,.T.);
#849=FACE_BOUND('',#771,.T.);
#850=FACE_BOUND('',#772,.T.);
#851=FACE_BOUND('',#773,.T.);
#852=FACE_BOUND('',#774,.T.);
#853=FACE_BOUND('',#775,.T.);
#854=FACE_BOUND('',#776,.T.);
#855=FACE_BOUND('',#777,.T.);
#856=FACE_BOUND('',#778,.T.);
#857=FACE_BOUND('',#779,.T.);
#858=FACE_BOUND('',#780,.T.);
#859=FACE_BOUND('',#781,.T.);
#860=FACE_BOUND('',#782,.T.);
#861=FACE_BOUND('',#783,.T.);
#862=FACE_BOUND('',#784,.T.);
#863=FACE_BOUND('',#785,.T.);
#864=FACE_BOUND('',#786,.T.);
#865=FACE_BOUND('',#787,.T.);
#866=FACE_BOUND('',#788,.T.);
#867=FACE_BOUND('',#789,.T.);
#868=PLANE('',#975);
#869=PLANE('',#984);
#870=PLANE('',#985);
#871=PLANE('',#986);
#872=PLANE('',#987);
#873=PLANE('',#988);
#874=PLANE('',#997);
#875=PLANE('',#998);
#876=PLANE('',#1003);
#877=PLANE('',#1004);
#878=PLANE('',#1005);
#879=PLANE('',#1006);
#880=PLANE('',#1007);
#881=PLANE('',#1012);
#882=PLANE('',#1013);
#883=PLANE('',#1014);
#884=PLANE('',#1015);
#885=PLANE('',#1016);
#886=PLANE('',#1017);
#887=PLANE('',#1018);
#888=PLANE('',#1019);
#889=PLANE('',#1020);
#890=PLANE('',#1021);
#891=PLANE('',#1022);
#892=PLANE('',#1023);
#893=PLANE('',#1024);
#894=PLANE('',#1025);
#895=PLANE('',#1026);
#896=PLANE('',#1027);
#897=PLANE('',#1028);
#898=PLANE('',#1029);
#899=PLANE('',#1030);
#900=PLANE('',#1031);
#901=PLANE('',#1032);
#902=PLANE('',#1033);
#903=PLANE('',#1034);
#904=PLANE('',#1035);
#905=PLANE('',#1036);
#906=PLANE('',#1037);
#907=PLANE('',#1038);
#908=PLANE('',#1039);
#909=PLANE('',#1040);
#910=ADVANCED_FACE('',(#790,#791,#792,#793,#794,#795,#796,#797,#798,#799,#800,#801,#802),#868,.F.);
#911=ADVANCED_FACE('',(#803),#869,.T.);
#912=ADVANCED_FACE('',(#804),#870,.F.);
#913=ADVANCED_FACE('',(#805),#871,.T.);
#914=ADVANCED_FACE('',(#806),#872,.T.);
#915=ADVANCED_FACE('',(#807),#873,.F.);
#916=ADVANCED_FACE('',(#808,#809),#12,.F.);
#917=ADVANCED_FACE('',(#810,#811),#13,.F.);
#918=ADVANCED_FACE('',(#812,#813),#14,.F.);
#919=ADVANCED_FACE('',(#814,#815),#15,.F.);
#920=ADVANCED_FACE('',(#816),#874,.F.);
#921=ADVANCED_FACE('',(#817,#818,#819,#820,#821,#822,#823,#824,#825),#875,.T.);
#922=ADVANCED_FACE('',(#826),#876,.F.);
#923=ADVANCED_FACE('',(#827),#877,.T.);
#924=ADVANCED_FACE('',(#828),#878,.T.);
#925=ADVANCED_FACE('',(#829),#879,.F.);
#926=ADVANCED_FACE('',(#830),#880,.F.);
#927=ADVANCED_FACE('',(#831,#832),#16,.F.);
#928=ADVANCED_FACE('',(#833,#834),#17,.F.);
#929=ADVANCED_FACE('',(#835,#836),#18,.F.);
#930=ADVANCED_FACE('',(#837,#838),#19,.F.);
#931=ADVANCED_FACE('',(#839),#881,.T.);
#932=ADVANCED_FACE('',(#840),#882,.T.);
#933=ADVANCED_FACE('',(#841),#883,.F.);
#934=ADVANCED_FACE('',(#842),#884,.F.);
#935=ADVANCED_FACE('',(#843),#885,.F.);
#936=ADVANCED_FACE('',(#844),#886,.T.);
#937=ADVANCED_FACE('',(#845),#887,.F.);
#938=ADVANCED_FACE('',(#846),#888,.T.);
#939=ADVANCED_FACE('',(#847),#889,.F.);
#940=ADVANCED_FACE('',(#848),#890,.T.);
#941=ADVANCED_FACE('',(#849),#891,.F.);
#942=ADVANCED_FACE('',(#850),#892,.T.);
#943=ADVANCED_FACE('',(#851),#893,.F.);
#944=ADVANCED_FACE('',(#852),#894,.F.);
#945=ADVANCED_FACE('',(#853),#895,.F.);
#946=ADVANCED_FACE('',(#854),#896,.F.);
#947=ADVANCED_FACE('',(#855),#897,.T.);
#948=ADVANCED_FACE('',(#856),#898,.F.);
#949=ADVANCED_FACE('',(#857),#899,.F.);
#950=ADVANCED_FACE('',(#858),#900,.F.);
#951=ADVANCED_FACE('',(#859),#901,.T.);
#952=ADVANCED_FACE('',(#860),#902,.T.);
#953=ADVANCED_FACE('',(#861),#903,.F.);
#954=ADVANCED_FACE('',(#862),#904,.F.);
#955=ADVANCED_FACE('',(#863),#905,.F.);
#956=ADVANCED_FACE('',(#864),#906,.T.);
#957=ADVANCED_FACE('',(#865),#907,.T.);
#958=ADVANCED_FACE('',(#866),#908,.F.);
#959=ADVANCED_FACE('',(#867),#909,.F.);
#960=CLOSED_SHELL('',(#910,#911,#912,#913,#914,#915,#916,#917,#918,#919,#920,#921,#922,#923,#924,#925,#926,#927,#928,#929,#930,#931,#932,#933,#934,#935,#936,#937,#938,#939,#940,#941,#942,#943,#944,#945,#946,#947,#948,#949,#950,#951,#952,#953,#954,#955,#956,#957,#958,#959));
#961=STYLED_ITEM('',(#962),#971);
#962=PRESENTATION_STYLE_ASSIGNMENT((#963));
#963=SURFACE_STYLE_USAGE(.BOTH.,#964);
#964=SURFACE_SIDE_STYLE('',(#967,#965));
#965=SURFACE_STYLE_RENDERING_WITH_PROPERTIES(.CONSTANT_SHADING.,#970,(#966));
#966=SURFACE_STYLE_TRANSPARENT(0.552941176470588);
#967=SURFACE_STYLE_FILL_AREA(#968);
#968=FILL_AREA_STYLE('',(#969));
#969=FILL_AREA_STYLE_COLOUR('',#970);
#970=COLOUR_RGB('',0.647058823529412,0.647058823529412,0.647058823529412);
#971=MANIFOLD_SOLID_BREP('Lid',#960);
#972=SHAPE_DEFINITION_REPRESENTATION(#1552,#973);
#973=SHAPE_REPRESENTATION('Lid',(#974),#1547);
#974=AXIS2_PLACEMENT_3D('',#1283,#1041,#1042);
#975=AXIS2_PLACEMENT_3D('',#1284,#1043,#1044);
#976=AXIS2_PLACEMENT_3D('',#1293,#1049,#1050);
#977=AXIS2_PLACEMENT_3D('',#1295,#1051,#1052);
#978=AXIS2_PLACEMENT_3D('',#1297,#1053,#1054);
#979=AXIS2_PLACEMENT_3D('',#1299,#1055,#1056);
#980=AXIS2_PLACEMENT_3D('',#1309,#1061,#1062);
#981=AXIS2_PLACEMENT_3D('',#1311,#1063,#1064);
#982=AXIS2_PLACEMENT_3D('',#1313,#1065,#1066);
#983=AXIS2_PLACEMENT_3D('',#1315,#1067,#1068);
#984=AXIS2_PLACEMENT_3D('',#1365,#1093,#1094);
#985=AXIS2_PLACEMENT_3D('',#1371,#1098,#1099);
#986=AXIS2_PLACEMENT_3D('',#1377,#1103,#1104);
#987=AXIS2_PLACEMENT_3D('',#1383,#1108,#1109);
#988=AXIS2_PLACEMENT_3D('',#1387,#1112,#1113);
#989=AXIS2_PLACEMENT_3D('',#1391,#1116,#1117);
#990=AXIS2_PLACEMENT_3D('',#1392,#1118,#1119);
#991=AXIS2_PLACEMENT_3D('',#1394,#1120,#1121);
#992=AXIS2_PLACEMENT_3D('',#1395,#1122,#1123);
#993=AXIS2_PLACEMENT_3D('',#1397,#1124,#1125);
#994=AXIS2_PLACEMENT_3D('',#1398,#1126,#1127);
#995=AXIS2_PLACEMENT_3D('',#1400,#1128,#1129);
#996=AXIS2_PLACEMENT_3D('',#1401,#1130,#1131);
#997=AXIS2_PLACEMENT_3D('',#1403,#1132,#1133);
#998=AXIS2_PLACEMENT_3D('',#1406,#1136,#1137);
#999=AXIS2_PLACEMENT_3D('',#1407,#1138,#1139);
#1000=AXIS2_PLACEMENT_3D('',#1409,#1140,#1141);
#1001=AXIS2_PLACEMENT_3D('',#1411,#1142,#1143);
#1002=AXIS2_PLACEMENT_3D('',#1413,#1144,#1145);
#1003=AXIS2_PLACEMENT_3D('',#1415,#1146,#1147);
#1004=AXIS2_PLACEMENT_3D('',#1421,#1151,#1152);
#1005=AXIS2_PLACEMENT_3D('',#1425,#1155,#1156);
#1006=AXIS2_PLACEMENT_3D('',#1429,#1159,#1160);
#1007=AXIS2_PLACEMENT_3D('',#1431,#1162,#1163);
#1008=AXIS2_PLACEMENT_3D('',#1432,#1164,#1165);
#1009=AXIS2_PLACEMENT_3D('',#1433,#1166,#1167);
#1010=AXIS2_PLACEMENT_3D('',#1434,#1168,#1169);
#1011=AXIS2_PLACEMENT_3D('',#1435,#1170,#1171);
#1012=AXIS2_PLACEMENT_3D('',#1436,#1172,#1173);
#1013=AXIS2_PLACEMENT_3D('',#1442,#1177,#1178);
#1014=AXIS2_PLACEMENT_3D('',#1446,#1181,#1182);
#1015=AXIS2_PLACEMENT_3D('',#1450,#1185,#1186);
#1016=AXIS2_PLACEMENT_3D('',#1461,#1193,#1194);
#1017=AXIS2_PLACEMENT_3D('',#1467,#1198,#1199);
#1018=AXIS2_PLACEMENT_3D('',#1471,#1202,#1203);
#1019=AXIS2_PLACEMENT_3D('',#1475,#1206,#1207);
#1020=AXIS2_PLACEMENT_3D('',#1477,#1209,#1210);
#1021=AXIS2_PLACEMENT_3D('',#1478,#1211,#1212);
#1022=AXIS2_PLACEMENT_3D('',#1484,#1216,#1217);
#1023=AXIS2_PLACEMENT_3D('',#1490,#1221,#1222);
#1024=AXIS2_PLACEMENT_3D('',#1492,#1224,#1225);
#1025=AXIS2_PLACEMENT_3D('',#1494,#1227,#1228);
#1026=AXIS2_PLACEMENT_3D('',#1495,#1229,#1230);
#1027=AXIS2_PLACEMENT_3D('',#1501,#1234,#1235);
#1028=AXIS2_PLACEMENT_3D('',#1505,#1238,#1239);
#1029=AXIS2_PLACEMENT_3D('',#1509,#1242,#1243);
#1030=AXIS2_PLACEMENT_3D('',#1511,#1245,#1246);
#1031=AXIS2_PLACEMENT_3D('',#1512,#1247,#1248);
#1032=AXIS2_PLACEMENT_3D('',#1518,#1252,#1253);
#1033=AXIS2_PLACEMENT_3D('',#1522,#1256,#1257);
#1034=AXIS2_PLACEMENT_3D('',#1526,#1260,#1261);
#1035=AXIS2_PLACEMENT_3D('',#1528,#1263,#1264);
#1036=AXIS2_PLACEMENT_3D('',#1529,#1265,#1266);
#1037=AXIS2_PLACEMENT_3D('',#1535,#1270,#1271);
#1038=AXIS2_PLACEMENT_3D('',#1539,#1274,#1275);
#1039=AXIS2_PLACEMENT_3D('',#1543,#1278,#1279);
#1040=AXIS2_PLACEMENT_3D('',#1545,#1281,#1282);
#1041=DIRECTION('',(0.,0.,1.));
#1042=DIRECTION('',(1.,0.,0.));
#1043=DIRECTION('',(0.,-1.,0.));
#1044=DIRECTION('',(1.,0.,0.));
#1045=DIRECTION('',(-1.,0.,0.));
#1046=DIRECTION('',(0.,0.,1.));
#1047=DIRECTION('',(-1.,0.,0.));
#1048=DIRECTION('',(-1.38390385000144E-16,0.,1.));
#1049=DIRECTION('',(0.,-1.,0.));
#1050=DIRECTION('',(0.,0.,-1.));
#1051=DIRECTION('',(0.,-1.,0.));
#1052=DIRECTION('',(0.,0.,-1.));
#1053=DIRECTION('',(0.,-1.,0.));
#1054=DIRECTION('',(0.,0.,-1.));
#1055=DIRECTION('',(0.,-1.,0.));
#1056=DIRECTION('',(0.,0.,-1.));
#1057=DIRECTION('',(-1.,0.,4.52536558950472E-16));
#1058=DIRECTION('',(-4.83209881887692E-16,0.,-1.));
#1059=DIRECTION('',(-1.,0.,0.));
#1060=DIRECTION('',(-3.62407411415769E-16,0.,-1.));
#1061=DIRECTION('',(0.,-1.,0.));
#1062=DIRECTION('',(0.,0.,-1.));
#1063=DIRECTION('',(0.,-1.,0.));
#1064=DIRECTION('',(0.,0.,-1.));
#1065=DIRECTION('',(0.,-1.,0.));
#1066=DIRECTION('',(0.,0.,-1.));
#1067=DIRECTION('',(0.,-1.,0.));
#1068=DIRECTION('',(0.,0.,-1.));
#1069=DIRECTION('',(0.,0.,1.));
#1070=DIRECTION('',(-1.,0.,0.));
#1071=DIRECTION('',(0.,0.,-1.));
#1072=DIRECTION('',(-1.,0.,0.));
#1073=DIRECTION('',(0.,0.,1.));
#1074=DIRECTION('',(1.,0.,0.));
#1075=DIRECTION('',(0.,0.,-1.));
#1076=DIRECTION('',(1.,0.,0.));
#1077=DIRECTION('',(0.,0.,-1.));
#1078=DIRECTION('',(1.,0.,0.));
#1079=DIRECTION('',(0.,0.,1.));
#1080=DIRECTION('',(-1.,0.,0.));
#1081=DIRECTION('',(0.,0.,-1.));
#1082=DIRECTION('',(-1.,0.,0.));
#1083=DIRECTION('',(0.,0.,1.));
#1084=DIRECTION('',(-1.,0.,0.));
#1085=DIRECTION('',(0.,0.,-1.));
#1086=DIRECTION('',(1.,0.,-5.78241158658936E-17));
#1087=DIRECTION('',(0.,0.,-1.));
#1088=DIRECTION('',(-1.,0.,-1.39897054514259E-16));
#1089=DIRECTION('',(0.,0.,1.));
#1090=DIRECTION('',(1.,0.,0.));
#1091=DIRECTION('',(-1.38390385000144E-16,0.,1.));
#1092=DIRECTION('',(1.,0.,0.));
#1093=DIRECTION('',(1.,0.,0.));
#1094=DIRECTION('',(0.,0.,-1.));
#1095=DIRECTION('',(0.,0.,1.));
#1096=DIRECTION('',(0.,-1.,0.));
#1097=DIRECTION('',(0.,-1.,0.));
#1098=DIRECTION('',(1.,0.,0.));
#1099=DIRECTION('',(0.,0.,-1.));
#1100=DIRECTION('',(0.,-1.,0.));
#1101=DIRECTION('',(0.,0.,1.));
#1102=DIRECTION('',(0.,-1.,0.));
#1103=DIRECTION('',(1.,0.,0.));
#1104=DIRECTION('',(0.,0.,-1.));
#1105=DIRECTION('',(0.,1.,0.));
#1106=DIRECTION('',(0.,0.,-1.));
#1107=DIRECTION('',(0.,1.,0.));
#1108=DIRECTION('',(0.,0.,1.));
#1109=DIRECTION('',(1.,0.,0.));
#1110=DIRECTION('',(0.,1.,0.));
#1111=DIRECTION('',(1.,0.,0.));
#1112=DIRECTION('',(1.,0.,0.));
#1113=DIRECTION('',(0.,0.,-1.));
#1114=DIRECTION('',(0.,1.,0.));
#1115=DIRECTION('',(0.,0.,-1.));
#1116=DIRECTION('',(0.,1.,0.));
#1117=DIRECTION('',(0.,0.,1.));
#1118=DIRECTION('',(0.,-1.,0.));
#1119=DIRECTION('',(0.,0.,-1.));
#1120=DIRECTION('',(0.,1.,0.));
#1121=DIRECTION('',(0.,0.,1.));
#1122=DIRECTION('',(0.,-1.,0.));
#1123=DIRECTION('',(0.,0.,-1.));
#1124=DIRECTION('',(0.,1.,0.));
#1125=DIRECTION('',(0.,0.,1.));
#1126=DIRECTION('',(0.,-1.,0.));
#1127=DIRECTION('',(0.,0.,-1.));
#1128=DIRECTION('',(0.,1.,0.));
#1129=DIRECTION('',(0.,0.,1.));
#1130=DIRECTION('',(0.,-1.,0.));
#1131=DIRECTION('',(0.,0.,-1.));
#1132=DIRECTION('',(0.,0.,1.));
#1133=DIRECTION('',(1.,0.,0.));
#1134=DIRECTION('',(1.,0.,0.));
#1135=DIRECTION('',(1.,0.,0.));
#1136=DIRECTION('',(0.,-1.,0.));
#1137=DIRECTION('',(1.,0.,0.));
#1138=DIRECTION('',(0.,-1.,0.));
#1139=DIRECTION('',(0.,0.,-1.));
#1140=DIRECTION('',(0.,-1.,0.));
#1141=DIRECTION('',(0.,0.,-1.));
#1142=DIRECTION('',(0.,-1.,0.));
#1143=DIRECTION('',(0.,0.,-1.));
#1144=DIRECTION('',(0.,-1.,0.));
#1145=DIRECTION('',(0.,0.,-1.));
#1146=DIRECTION('',(1.,0.,-4.83209881887692E-16));
#1147=DIRECTION('',(-4.83209881887692E-16,0.,-1.));
#1148=DIRECTION('',(0.,1.,0.));
#1149=DIRECTION('',(-4.83209881887692E-16,0.,-1.));
#1150=DIRECTION('',(0.,1.,0.));
#1151=DIRECTION('',(0.,0.,-1.));
#1152=DIRECTION('',(-1.,0.,0.));
#1153=DIRECTION('',(-1.,0.,0.));
#1154=DIRECTION('',(0.,1.,0.));
#1155=DIRECTION('',(1.,0.,-3.62407411415769E-16));
#1156=DIRECTION('',(-3.62407411415769E-16,0.,-1.));
#1157=DIRECTION('',(-3.62407411415769E-16,0.,-1.));
#1158=DIRECTION('',(0.,1.,0.));
#1159=DIRECTION('',(-4.52536558950472E-16,0.,-1.));
#1160=DIRECTION('',(-1.,0.,4.52536558950472E-16));
#1161=DIRECTION('',(-1.,0.,4.52536558950472E-16));
#1162=DIRECTION('',(0.,-1.,0.));
#1163=DIRECTION('',(1.,0.,0.));
#1164=DIRECTION('',(0.,1.,0.));
#1165=DIRECTION('',(0.,0.,1.));
#1166=DIRECTION('',(0.,1.,0.));
#1167=DIRECTION('',(0.,0.,1.));
#1168=DIRECTION('',(0.,1.,0.));
#1169=DIRECTION('',(0.,0.,1.));
#1170=DIRECTION('',(0.,1.,0.));
#1171=DIRECTION('',(0.,0.,1.));
#1172=DIRECTION('',(1.,0.,0.));
#1173=DIRECTION('',(0.,0.,-1.));
#1174=DIRECTION('',(0.,-1.,0.));
#1175=DIRECTION('',(0.,0.,1.));
#1176=DIRECTION('',(0.,-1.,0.));
#1177=DIRECTION('',(0.,0.,1.));
#1178=DIRECTION('',(1.,0.,0.));
#1179=DIRECTION('',(-1.,0.,0.));
#1180=DIRECTION('',(0.,-1.,0.));
#1181=DIRECTION('',(1.,0.,0.));
#1182=DIRECTION('',(0.,0.,-1.));
#1183=DIRECTION('',(0.,0.,1.));
#1184=DIRECTION('',(0.,-1.,0.));
#1185=DIRECTION('',(0.,-1.,0.));
#1186=DIRECTION('',(1.,0.,0.));
#1187=DIRECTION('',(-1.,0.,0.));
#1188=DIRECTION('',(0.,0.,-1.));
#1189=DIRECTION('',(-1.,0.,0.));
#1190=DIRECTION('',(-1.,0.,0.));
#1191=DIRECTION('',(0.,0.,-1.));
#1192=DIRECTION('',(-1.,0.,0.));
#1193=DIRECTION('',(-1.,0.,0.));
#1194=DIRECTION('',(0.,0.,1.));
#1195=DIRECTION('',(0.,-1.,0.));
#1196=DIRECTION('',(0.,-1.,0.));
#1197=DIRECTION('',(0.,0.,-1.));
#1198=DIRECTION('',(0.,0.,1.));
#1199=DIRECTION('',(1.,0.,0.));
#1200=DIRECTION('',(-1.,0.,0.));
#1201=DIRECTION('',(0.,-1.,0.));
#1202=DIRECTION('',(0.,0.,1.));
#1203=DIRECTION('',(1.,0.,0.));
#1204=DIRECTION('',(0.,-1.,0.));
#1205=DIRECTION('',(-1.,0.,0.));
#1206=DIRECTION('',(-1.,0.,0.));
#1207=DIRECTION('',(0.,0.,1.));
#1208=DIRECTION('',(0.,0.,-1.));
#1209=DIRECTION('',(0.,-1.,0.));
#1210=DIRECTION('',(1.,0.,0.));
#1211=DIRECTION('',(-1.,0.,0.));
#1212=DIRECTION('',(0.,0.,1.));
#1213=DIRECTION('',(0.,-1.,0.));
#1214=DIRECTION('',(0.,0.,-1.));
#1215=DIRECTION('',(0.,-1.,0.));
#1216=DIRECTION('',(-1.,0.,0.));
#1217=DIRECTION('',(0.,0.,1.));
#1218=DIRECTION('',(0.,-1.,0.));
#1219=DIRECTION('',(0.,0.,-1.));
#1220=DIRECTION('',(0.,-1.,0.));
#1221=DIRECTION('',(0.,0.,1.));
#1222=DIRECTION('',(1.,0.,0.));
#1223=DIRECTION('',(-1.,0.,0.));
#1224=DIRECTION('',(0.,0.,1.));
#1225=DIRECTION('',(1.,0.,0.));
#1226=DIRECTION('',(-1.,0.,0.));
#1227=DIRECTION('',(0.,-1.,0.));
#1228=DIRECTION('',(1.,0.,0.));
#1229=DIRECTION('',(-1.,0.,0.));
#1230=DIRECTION('',(0.,0.,1.));
#1231=DIRECTION('',(0.,-1.,0.));
#1232=DIRECTION('',(0.,0.,-1.));
#1233=DIRECTION('',(0.,-1.,0.));
#1234=DIRECTION('',(-5.78241158658936E-17,0.,-1.));
#1235=DIRECTION('',(-1.,0.,5.78241158658936E-17));
#1236=DIRECTION('',(1.,0.,-5.78241158658936E-17));
#1237=DIRECTION('',(0.,-1.,0.));
#1238=DIRECTION('',(-1.,0.,0.));
#1239=DIRECTION('',(0.,0.,1.));
#1240=DIRECTION('',(0.,0.,-1.));
#1241=DIRECTION('',(0.,-1.,0.));
#1242=DIRECTION('',(-1.39897054514259E-16,0.,1.));
#1243=DIRECTION('',(1.,0.,1.39897054514259E-16));
#1244=DIRECTION('',(-1.,0.,-1.39897054514259E-16));
#1245=DIRECTION('',(0.,-1.,0.));
#1246=DIRECTION('',(1.,0.,0.));
#1247=DIRECTION('',(0.,0.,1.));
#1248=DIRECTION('',(1.,0.,0.));
#1249=DIRECTION('',(0.,-1.,0.));
#1250=DIRECTION('',(-1.,0.,0.));
#1251=DIRECTION('',(0.,-1.,0.));
#1252=DIRECTION('',(1.,0.,0.));
#1253=DIRECTION('',(0.,0.,-1.));
#1254=DIRECTION('',(0.,0.,1.));
#1255=DIRECTION('',(0.,-1.,0.));
#1256=DIRECTION('',(0.,0.,1.));
#1257=DIRECTION('',(1.,0.,0.));
#1258=DIRECTION('',(-1.,0.,0.));
#1259=DIRECTION('',(0.,-1.,0.));
#1260=DIRECTION('',(1.,0.,1.38390385000144E-16));
#1261=DIRECTION('',(1.38390385000144E-16,0.,-1.));
#1262=DIRECTION('',(-1.38390385000144E-16,0.,1.));
#1263=DIRECTION('',(0.,-1.,0.));
#1264=DIRECTION('',(1.,0.,0.));
#1265=DIRECTION('',(1.,0.,0.));
#1266=DIRECTION('',(0.,0.,-1.));
#1267=DIRECTION('',(0.,-1.,0.));
#1268=DIRECTION('',(0.,0.,1.));
#1269=DIRECTION('',(0.,-1.,0.));
#1270=DIRECTION('',(0.,0.,-1.));
#1271=DIRECTION('',(-1.,0.,0.));
#1272=DIRECTION('',(1.,0.,0.));
#1273=DIRECTION('',(0.,-1.,0.));
#1274=DIRECTION('',(1.,0.,1.38390385000144E-16));
#1275=DIRECTION('',(1.38390385000144E-16,0.,-1.));
#1276=DIRECTION('',(-1.38390385000144E-16,0.,1.));
#1277=DIRECTION('',(0.,-1.,0.));
#1278=DIRECTION('',(0.,0.,-1.));
#1279=DIRECTION('',(-1.,0.,0.));
#1280=DIRECTION('',(1.,0.,0.));
#1281=DIRECTION('',(0.,-1.,0.));
#1282=DIRECTION('',(1.,0.,0.));
#1283=CARTESIAN_POINT('',(0.,0.,0.));
#1284=CARTESIAN_POINT('',(-2.08166817117217E-17,-0.0225,-0.005435));
#1285=CARTESIAN_POINT('',(0.01585,-0.0225,-0.01797));
#1286=CARTESIAN_POINT('',(0.01645,-0.0225,-0.01797));
#1287=CARTESIAN_POINT('',(0.01525,-0.0225,-0.01797));
#1288=CARTESIAN_POINT('',(0.01645,-0.0225,-0.005435));
#1289=CARTESIAN_POINT('',(0.01645,-0.0225,0.0071));
#1290=CARTESIAN_POINT('',(0.01585,-0.0225,0.0071));
#1291=CARTESIAN_POINT('',(0.01525,-0.0225,0.0071));
#1292=CARTESIAN_POINT('',(0.01525,-0.0225,-0.005435));
#1293=CARTESIAN_POINT('',(0.0168,-0.0225,0.0115));
#1294=CARTESIAN_POINT('',(0.0168,-0.0225,0.0105));
#1295=CARTESIAN_POINT('',(0.0168,-0.0225,-0.02237));
#1296=CARTESIAN_POINT('',(0.0168,-0.0225,-0.02337));
#1297=CARTESIAN_POINT('',(-0.0168,-0.0225,-0.02237));
#1298=CARTESIAN_POINT('',(-0.0168,-0.0225,-0.02337));
#1299=CARTESIAN_POINT('',(-0.0168,-0.0225,0.0115));
#1300=CARTESIAN_POINT('',(-0.0168,-0.0225,0.0105));
#1301=CARTESIAN_POINT('',(-3.20923843055709E-17,-0.0225,-0.00375));
#1302=CARTESIAN_POINT('',(0.00575,-0.0225,-0.00375));
#1303=CARTESIAN_POINT('',(-0.00575,-0.0225,-0.00375));
#1304=CARTESIAN_POINT('',(0.00575,-0.0225,-0.000160000000000031));
#1305=CARTESIAN_POINT('',(0.00575,-0.0225,0.00342999999999995));
#1306=CARTESIAN_POINT('',(-2.94902990916057E-17,-0.0225,0.00342999999999995));
#1307=CARTESIAN_POINT('',(-0.00575,-0.0225,0.00342999999999995));
#1308=CARTESIAN_POINT('',(-0.00575,-0.0225,-0.000160000000000029));
#1309=CARTESIAN_POINT('',(-0.013,-0.0225,-0.01457));
#1310=CARTESIAN_POINT('',(-0.013,-0.0225,-0.01537));
#1311=CARTESIAN_POINT('',(0.013,-0.0225,0.00143));
#1312=CARTESIAN_POINT('',(0.013,-0.0225,0.00063));
#1313=CARTESIAN_POINT('',(0.013,-0.0225,-0.01457));
#1314=CARTESIAN_POINT('',(0.013,-0.0225,-0.01537));
#1315=CARTESIAN_POINT('',(-0.013,-0.0225,0.00142999999999996));
#1316=CARTESIAN_POINT('',(-0.013,-0.0225,0.000629999999999964));
#1317=CARTESIAN_POINT('',(-0.0095,-0.0225,-0.02107));
#1318=CARTESIAN_POINT('',(-0.0095,-0.0225,-0.02002));
#1319=CARTESIAN_POINT('',(-0.0095,-0.0225,-0.01757));
#1320=CARTESIAN_POINT('',(-0.0106,-0.0225,-0.02002));
#1321=CARTESIAN_POINT('',(-0.0124,-0.0225,-0.02002));
#1322=CARTESIAN_POINT('',(-0.0124,-0.0225,-0.02102));
#1323=CARTESIAN_POINT('',(-0.0124,-0.0225,-0.02202));
#1324=CARTESIAN_POINT('',(-0.0106,-0.0225,-0.02202));
#1325=CARTESIAN_POINT('',(-0.0095,-0.0225,-0.02202));
#1326=CARTESIAN_POINT('',(-0.0095,-0.0225,-0.02107));
#1327=CARTESIAN_POINT('',(-0.0095,-0.0225,-0.02457));
#1328=CARTESIAN_POINT('',(-2.08166817117217E-17,-0.0225,-0.02457));
#1329=CARTESIAN_POINT('',(-0.019,-0.0225,-0.02457));
#1330=CARTESIAN_POINT('',(-0.019,-0.0225,-0.005435));
#1331=CARTESIAN_POINT('',(-0.019,-0.0225,0.0137));
#1332=CARTESIAN_POINT('',(-2.08166817117217E-17,-0.0225,0.0137));
#1333=CARTESIAN_POINT('',(0.019,-0.0225,0.0137));
#1334=CARTESIAN_POINT('',(0.019,-0.0225,-0.005435));
#1335=CARTESIAN_POINT('',(0.019,-0.0225,-0.02457));
#1336=CARTESIAN_POINT('',(-2.08166817117217E-17,-0.0225,-0.02457));
#1337=CARTESIAN_POINT('',(0.0095,-0.0225,-0.02457));
#1338=CARTESIAN_POINT('',(0.0095,-0.0225,-0.02107));
#1339=CARTESIAN_POINT('',(0.0095,-0.0225,-0.02202));
#1340=CARTESIAN_POINT('',(0.0106,-0.0225,-0.02202));
#1341=CARTESIAN_POINT('',(0.0124,-0.0225,-0.02202));
#1342=CARTESIAN_POINT('',(0.0124,-0.0225,-0.02102));
#1343=CARTESIAN_POINT('',(0.0124,-0.0225,-0.02002));
#1344=CARTESIAN_POINT('',(0.0106,-0.0225,-0.02002));
#1345=CARTESIAN_POINT('',(0.0095,-0.0225,-0.02002));
#1346=CARTESIAN_POINT('',(0.0095,-0.0225,-0.02107));
#1347=CARTESIAN_POINT('',(0.0095,-0.0225,-0.01757));
#1348=CARTESIAN_POINT('',(0.,-0.0225,-0.01757));
#1349=CARTESIAN_POINT('',(0.0124,-0.0225,0.0102));
#1350=CARTESIAN_POINT('',(0.0124,-0.0225,0.0112));
#1351=CARTESIAN_POINT('',(0.0124,-0.0225,0.0092));
#1352=CARTESIAN_POINT('',(-1.87928376564154E-18,-0.0225,0.0112));
#1353=CARTESIAN_POINT('',(-0.0124,-0.0225,0.0112));
#1354=CARTESIAN_POINT('',(-0.0124,-0.0225,0.0102));
#1355=CARTESIAN_POINT('',(-0.0124,-0.0225,0.0092));
#1356=CARTESIAN_POINT('',(-2.08166817117217E-17,-0.0225,0.0092));
#1357=CARTESIAN_POINT('',(-0.01645,-0.0225,-0.005435));
#1358=CARTESIAN_POINT('',(-0.01645,-0.0225,-0.01797));
#1359=CARTESIAN_POINT('',(-0.01645,-0.0225,0.0071));
#1360=CARTESIAN_POINT('',(-0.01585,-0.0225,-0.01797));
#1361=CARTESIAN_POINT('',(-0.01525,-0.0225,-0.01797));
#1362=CARTESIAN_POINT('',(-0.01525,-0.0225,-0.005435));
#1363=CARTESIAN_POINT('',(-0.01525,-0.0225,0.0071));
#1364=CARTESIAN_POINT('',(-0.01585,-0.0225,0.0071));
#1365=CARTESIAN_POINT('',(0.0095,-0.0208,-0.02107));
#1366=CARTESIAN_POINT('',(0.0095,-0.0208,-0.02107));
#1367=CARTESIAN_POINT('',(0.0095,-0.0208,-0.02457));
#1368=CARTESIAN_POINT('',(0.0095,-0.0208,-0.02202));
#1369=CARTESIAN_POINT('',(0.0095,-0.0208,-0.02202));
#1370=CARTESIAN_POINT('',(0.0095,-0.0208,-0.02457));
#1371=CARTESIAN_POINT('',(-0.0095,-0.0208,-0.02107));
#1372=CARTESIAN_POINT('',(-0.0095,-0.0208,-0.02202));
#1373=CARTESIAN_POINT('',(-0.0095,-0.0208,-0.02202));
#1374=CARTESIAN_POINT('',(-0.0095,-0.0208,-0.02107));
#1375=CARTESIAN_POINT('',(-0.0095,-0.0208,-0.02457));
#1376=CARTESIAN_POINT('',(-0.0095,-0.0208,-0.02457));
#1377=CARTESIAN_POINT('',(0.019,-0.025,-0.005435));
#1378=CARTESIAN_POINT('',(0.019,-0.025,0.0137));
#1379=CARTESIAN_POINT('',(0.019,-0.025,0.0137));
#1380=CARTESIAN_POINT('',(0.019,-0.025,-0.005435));
#1381=CARTESIAN_POINT('',(0.019,-0.025,-0.02457));
#1382=CARTESIAN_POINT('',(0.019,-0.025,-0.02457));
#1383=CARTESIAN_POINT('',(-2.08166817117217E-17,-0.025,0.0137));
#1384=CARTESIAN_POINT('',(-0.019,-0.025,0.0137));
#1385=CARTESIAN_POINT('',(-0.019,-0.025,0.0137));
#1386=CARTESIAN_POINT('',(-2.08166817117217E-17,-0.025,0.0137));
#1387=CARTESIAN_POINT('',(-0.019,-0.025,-0.005435));
#1388=CARTESIAN_POINT('',(-0.019,-0.025,-0.02457));
#1389=CARTESIAN_POINT('',(-0.019,-0.025,-0.02457));
#1390=CARTESIAN_POINT('',(-0.019,-0.025,-0.005435));
#1391=CARTESIAN_POINT('',(0.0168,-0.025,0.0115));
#1392=CARTESIAN_POINT('',(0.0168,-0.025,0.0115));
#1393=CARTESIAN_POINT('',(0.0168,-0.025,0.0105));
#1394=CARTESIAN_POINT('',(0.0168,-0.025,-0.02237));
#1395=CARTESIAN_POINT('',(0.0168,-0.025,-0.02237));
#1396=CARTESIAN_POINT('',(0.0168,-0.025,-0.02337));
#1397=CARTESIAN_POINT('',(-0.0168,-0.025,-0.02237));
#1398=CARTESIAN_POINT('',(-0.0168,-0.025,-0.02237));
#1399=CARTESIAN_POINT('',(-0.0168,-0.025,-0.02337));
#1400=CARTESIAN_POINT('',(-0.0168,-0.025,0.0115));
#1401=CARTESIAN_POINT('',(-0.0168,-0.025,0.0115));
#1402=CARTESIAN_POINT('',(-0.0168,-0.025,0.0105));
#1403=CARTESIAN_POINT('',(-2.08166817117217E-17,-0.025,-0.02457));
#1404=CARTESIAN_POINT('',(-2.08166817117217E-17,-0.0208,-0.02457));
#1405=CARTESIAN_POINT('',(-2.08166817117217E-17,-0.025,-0.02457));
#1406=CARTESIAN_POINT('',(-2.08166817117217E-17,-0.025,-0.005435));
#1407=CARTESIAN_POINT('',(-0.013,-0.025,0.00142999999999996));
#1408=CARTESIAN_POINT('',(-0.013,-0.025,0.000629999999999964));
#1409=CARTESIAN_POINT('',(0.013,-0.025,-0.01457));
#1410=CARTESIAN_POINT('',(0.013,-0.025,-0.01537));
#1411=CARTESIAN_POINT('',(0.013,-0.025,0.00143));
#1412=CARTESIAN_POINT('',(0.013,-0.025,0.00063));
#1413=CARTESIAN_POINT('',(-0.013,-0.025,-0.01457));
#1414=CARTESIAN_POINT('',(-0.013,-0.025,-0.01537));
#1415=CARTESIAN_POINT('',(0.00575,-0.023,-0.000160000000000031));
#1416=CARTESIAN_POINT('',(0.00575,-0.023,-0.00375));
#1417=CARTESIAN_POINT('',(0.00575,-0.023,-0.00375));
#1418=CARTESIAN_POINT('',(0.00575,-0.023,-0.000160000000000031));
#1419=CARTESIAN_POINT('',(0.00575,-0.023,0.00342999999999995));
#1420=CARTESIAN_POINT('',(0.00575,-0.023,0.00342999999999995));
#1421=CARTESIAN_POINT('',(-2.94902990916057E-17,-0.023,0.00342999999999995));
#1422=CARTESIAN_POINT('',(-2.94902990916057E-17,-0.023,0.00342999999999995));
#1423=CARTESIAN_POINT('',(-0.00575,-0.023,0.00342999999999995));
#1424=CARTESIAN_POINT('',(-0.00575,-0.023,0.00342999999999995));
#1425=CARTESIAN_POINT('',(-0.00575,-0.023,-0.000160000000000029));
#1426=CARTESIAN_POINT('',(-0.00575,-0.023,-0.000160000000000029));
#1427=CARTESIAN_POINT('',(-0.00575,-0.023,-0.00375));
#1428=CARTESIAN_POINT('',(-0.00575,-0.023,-0.00375));
#1429=CARTESIAN_POINT('',(-3.20923843055709E-17,-0.023,-0.00375));
#1430=CARTESIAN_POINT('',(-3.20923843055709E-17,-0.023,-0.00375));
#1431=CARTESIAN_POINT('',(-2.42861286636753E-17,-0.023,-0.001835));
#1432=CARTESIAN_POINT('',(-0.013,-0.025002,-0.01457));
#1433=CARTESIAN_POINT('',(0.013,-0.025002,0.00143));
#1434=CARTESIAN_POINT('',(0.013,-0.025002,-0.01457));
#1435=CARTESIAN_POINT('',(-0.013,-0.025002,0.00142999999999996));
#1436=CARTESIAN_POINT('',(0.0095,-0.0208,-0.02107));
#1437=CARTESIAN_POINT('',(0.0095,-0.0208,-0.02002));
#1438=CARTESIAN_POINT('',(0.0095,-0.0208,-0.02002));
#1439=CARTESIAN_POINT('',(0.0095,-0.0208,-0.02107));
#1440=CARTESIAN_POINT('',(0.0095,-0.0208,-0.01757));
#1441=CARTESIAN_POINT('',(0.0095,-0.0208,-0.01757));
#1442=CARTESIAN_POINT('',(0.,-0.0208,-0.01757));
#1443=CARTESIAN_POINT('',(0.,-0.0208,-0.01757));
#1444=CARTESIAN_POINT('',(-0.0095,-0.0208,-0.01757));
#1445=CARTESIAN_POINT('',(-0.0095,-0.0208,-0.01757));
#1446=CARTESIAN_POINT('',(-0.0095,-0.0208,-0.02107));
#1447=CARTESIAN_POINT('',(-0.0095,-0.0208,-0.02107));
#1448=CARTESIAN_POINT('',(-0.0095,-0.0208,-0.02002));
#1449=CARTESIAN_POINT('',(-0.0095,-0.0208,-0.02002));
#1450=CARTESIAN_POINT('',(-2.08166817117217E-17,-0.0208,-0.005435));
#1451=CARTESIAN_POINT('',(-2.08166817117217E-17,-0.0208,-0.02002));
#1452=CARTESIAN_POINT('',(0.0088,-0.0208,-0.02002));
#1453=CARTESIAN_POINT('',(0.0088,-0.0208,-0.005435));
#1454=CARTESIAN_POINT('',(0.0088,-0.0208,-0.02202));
#1455=CARTESIAN_POINT('',(-2.08166817117217E-17,-0.0208,-0.02202));
#1456=CARTESIAN_POINT('',(-2.08166817117217E-17,-0.0208,-0.02202));
#1457=CARTESIAN_POINT('',(-0.0088,-0.0208,-0.02202));
#1458=CARTESIAN_POINT('',(-0.0088,-0.0208,-0.005435));
#1459=CARTESIAN_POINT('',(-0.0088,-0.0208,-0.02002));
#1460=CARTESIAN_POINT('',(-2.08166817117217E-17,-0.0208,-0.02002));
#1461=CARTESIAN_POINT('',(-0.0088,-0.0195,-0.02102));
#1462=CARTESIAN_POINT('',(-0.0088,-0.0195,-0.02002));
#1463=CARTESIAN_POINT('',(-0.0088,-0.0195,-0.02002));
#1464=CARTESIAN_POINT('',(-0.0088,-0.0195,-0.02202));
#1465=CARTESIAN_POINT('',(-0.0088,-0.0195,-0.02202));
#1466=CARTESIAN_POINT('',(-0.0088,-0.0195,-0.02102));
#1467=CARTESIAN_POINT('',(-0.0106,-0.0195,-0.02002));
#1468=CARTESIAN_POINT('',(-0.0106,-0.0195,-0.02002));
#1469=CARTESIAN_POINT('',(-0.0124,-0.0195,-0.02002));
#1470=CARTESIAN_POINT('',(-0.0124,-0.0195,-0.02002));
#1471=CARTESIAN_POINT('',(-0.0106,-0.0195,-0.02202));
#1472=CARTESIAN_POINT('',(-0.0124,-0.0195,-0.02202));
#1473=CARTESIAN_POINT('',(-0.0124,-0.0195,-0.02202));
#1474=CARTESIAN_POINT('',(-0.0106,-0.0195,-0.02202));
#1475=CARTESIAN_POINT('',(-0.0124,-0.0195,-0.02102));
#1476=CARTESIAN_POINT('',(-0.0124,-0.0195,-0.02102));
#1477=CARTESIAN_POINT('',(-2.08166817117217E-17,-0.0195,-0.005435));
#1478=CARTESIAN_POINT('',(0.0088,-0.0195,-0.02102));
#1479=CARTESIAN_POINT('',(0.0088,-0.0195,-0.02002));
#1480=CARTESIAN_POINT('',(0.0088,-0.0195,-0.02002));
#1481=CARTESIAN_POINT('',(0.0088,-0.0195,-0.02102));
#1482=CARTESIAN_POINT('',(0.0088,-0.0195,-0.02202));
#1483=CARTESIAN_POINT('',(0.0088,-0.0195,-0.02202));
#1484=CARTESIAN_POINT('',(0.0124,-0.0195,-0.02102));
#1485=CARTESIAN_POINT('',(0.0124,-0.0195,-0.02202));
#1486=CARTESIAN_POINT('',(0.0124,-0.0195,-0.02202));
#1487=CARTESIAN_POINT('',(0.0124,-0.0195,-0.02102));
#1488=CARTESIAN_POINT('',(0.0124,-0.0195,-0.02002));
#1489=CARTESIAN_POINT('',(0.0124,-0.0195,-0.02002));
#1490=CARTESIAN_POINT('',(0.0106,-0.0195,-0.02002));
#1491=CARTESIAN_POINT('',(0.0106,-0.0195,-0.02002));
#1492=CARTESIAN_POINT('',(0.0106,-0.0195,-0.02202));
#1493=CARTESIAN_POINT('',(0.0106,-0.0195,-0.02202));
#1494=CARTESIAN_POINT('',(-2.08166817117217E-17,-0.0195,-0.005435));
#1495=CARTESIAN_POINT('',(0.0124,-0.0195,0.0102));
#1496=CARTESIAN_POINT('',(0.0124,-0.0195,0.0092));
#1497=CARTESIAN_POINT('',(0.0124,-0.0195,0.0092));
#1498=CARTESIAN_POINT('',(0.0124,-0.0195,0.0102));
#1499=CARTESIAN_POINT('',(0.0124,-0.0195,0.0112));
#1500=CARTESIAN_POINT('',(0.0124,-0.0195,0.0112));
#1501=CARTESIAN_POINT('',(-1.87928376564154E-18,-0.0195,0.0112));
#1502=CARTESIAN_POINT('',(-1.87928376564154E-18,-0.0195,0.0112));
#1503=CARTESIAN_POINT('',(-0.0124,-0.0195,0.0112));
#1504=CARTESIAN_POINT('',(-0.0124,-0.0195,0.0112));
#1505=CARTESIAN_POINT('',(-0.0124,-0.0195,0.0102));
#1506=CARTESIAN_POINT('',(-0.0124,-0.0195,0.0102));
#1507=CARTESIAN_POINT('',(-0.0124,-0.0195,0.0092));
#1508=CARTESIAN_POINT('',(-0.0124,-0.0195,0.0092));
#1509=CARTESIAN_POINT('',(-2.08166817117217E-17,-0.0195,0.0092));
#1510=CARTESIAN_POINT('',(-2.08166817117217E-17,-0.0195,0.0092));
#1511=CARTESIAN_POINT('',(-2.08166817117217E-17,-0.0195,-0.005435));
#1512=CARTESIAN_POINT('',(0.01585,-0.0195,-0.01797));
#1513=CARTESIAN_POINT('',(0.01525,-0.0195,-0.01797));
#1514=CARTESIAN_POINT('',(0.01525,-0.0195,-0.01797));
#1515=CARTESIAN_POINT('',(0.01585,-0.0195,-0.01797));
#1516=CARTESIAN_POINT('',(0.01645,-0.0195,-0.01797));
#1517=CARTESIAN_POINT('',(0.01645,-0.0195,-0.01797));
#1518=CARTESIAN_POINT('',(0.01645,-0.0195,-0.005435));
#1519=CARTESIAN_POINT('',(0.01645,-0.0195,-0.005435));
#1520=CARTESIAN_POINT('',(0.01645,-0.0195,0.0071));
#1521=CARTESIAN_POINT('',(0.01645,-0.0195,0.0071));
#1522=CARTESIAN_POINT('',(0.01585,-0.0195,0.0071));
#1523=CARTESIAN_POINT('',(0.01585,-0.0195,0.0071));
#1524=CARTESIAN_POINT('',(0.01525,-0.0195,0.0071));
#1525=CARTESIAN_POINT('',(0.01525,-0.0195,0.0071));
#1526=CARTESIAN_POINT('',(0.01525,-0.0195,-0.005435));
#1527=CARTESIAN_POINT('',(0.01525,-0.0195,-0.005435));
#1528=CARTESIAN_POINT('',(-2.08166817117217E-17,-0.0195,-0.005435));
#1529=CARTESIAN_POINT('',(-0.01645,-0.0195,-0.005435));
#1530=CARTESIAN_POINT('',(-0.01645,-0.0195,0.0071));
#1531=CARTESIAN_POINT('',(-0.01645,-0.0195,0.0071));
#1532=CARTESIAN_POINT('',(-0.01645,-0.0195,-0.005435));
#1533=CARTESIAN_POINT('',(-0.01645,-0.0195,-0.01797));
#1534=CARTESIAN_POINT('',(-0.01645,-0.0195,-0.01797));
#1535=CARTESIAN_POINT('',(-0.01585,-0.0195,-0.01797));
#1536=CARTESIAN_POINT('',(-0.01585,-0.0195,-0.01797));
#1537=CARTESIAN_POINT('',(-0.01525,-0.0195,-0.01797));
#1538=CARTESIAN_POINT('',(-0.01525,-0.0195,-0.01797));
#1539=CARTESIAN_POINT('',(-0.01525,-0.0195,-0.005435));
#1540=CARTESIAN_POINT('',(-0.01525,-0.0195,-0.005435));
#1541=CARTESIAN_POINT('',(-0.01525,-0.0195,0.0071));
#1542=CARTESIAN_POINT('',(-0.01525,-0.0195,0.0071));
#1543=CARTESIAN_POINT('',(-0.01585,-0.0195,0.0071));
#1544=CARTESIAN_POINT('',(-0.01585,-0.0195,0.0071));
#1545=CARTESIAN_POINT('',(-2.08166817117217E-17,-0.0195,-0.005435));
#1546=MECHANICAL_DESIGN_GEOMETRIC_PRESENTATION_REPRESENTATION('',(#961),#1547);
#1547=(
GEOMETRIC_REPRESENTATION_CONTEXT(3)
GLOBAL_UNCERTAINTY_ASSIGNED_CONTEXT((#1548))
GLOBAL_UNIT_ASSIGNED_CONTEXT((#1551,#1550,#1549))
REPRESENTATION_CONTEXT('Lid','TOP_LEVEL_ASSEMBLY_PART')
);
#1548=UNCERTAINTY_MEASURE_WITH_UNIT(LENGTH_MEASURE(1.E-08),#1551,'DISTANCE_ACCURACY_VALUE','Maximum Tolerance applied to model');
#1549=(
NAMED_UNIT(*)
SI_UNIT($,.STERADIAN.)
SOLID_ANGLE_UNIT()
);
#1550=(
NAMED_UNIT(*)
PLANE_ANGLE_UNIT()
SI_UNIT($,.RADIAN.)
);
#1551=(
LENGTH_UNIT()
NAMED_UNIT(*)
SI_UNIT($,.METRE.)
);
#1552=PRODUCT_DEFINITION_SHAPE('','',#1553);
#1553=PRODUCT_DEFINITION('','',#1555,#1554);
#1554=PRODUCT_DEFINITION_CONTEXT('',#1561,'design');
#1555=PRODUCT_DEFINITION_FORMATION_WITH_SPECIFIED_SOURCE('','',#1557,.NOT_KNOWN.);
#1556=PRODUCT_RELATED_PRODUCT_CATEGORY('','',(#1557));
#1557=PRODUCT('Lid','Lid','Lid',(#1559));
#1558=PRODUCT_CATEGORY('','');
#1559=PRODUCT_CONTEXT('',#1561,'mechanical');
#1560=APPLICATION_PROTOCOL_DEFINITION('international standard','ap242_managed_model_based_3d_engineering',2020,#1561);
#1561=APPLICATION_CONTEXT('managed model based 3d engineering');
ENDSEC;
END-ISO-10303-21;
