M48
; DRILL file {KiCad 8.0.4-8.0.4-0~ubuntu20.04.1} date 2024-12-05T04:52:34-0500
; FORMAT={-:-/ absolute / inch / decimal}
; #@! TF.CreationDate,2024-12-05T04:52:34-05:00
; #@! TF.GenerationSoftware,Kicad,Pcbnew,8.0.4-8.0.4-0~ubuntu20.04.1
; #@! TF.FileFunction,Plated,1,4,PTH
FMAT,2
INCH
; #@! TA.AperFunction,Plated,PTH,ViaDrill
T1C0.0098
; #@! TA.AperFunction,Plated,PTH,ComponentDrill
T2C0.0394
%
G90
G05
T1
X4.5276Y-1.4173
X4.5413Y-3.8494
X4.5748Y-1.6752
X4.6398Y-2.4508
X4.6398Y-2.8071
X4.6427Y-2.1447
X4.6437Y-2.5354
X4.6437Y-2.6191
X4.6437Y-2.7136
X4.6594Y-3.752
X4.6673Y-1.9183
X4.686Y-1.7234
X4.686Y-1.8258
X4.69Y-2.5246
X4.6909Y-2.7264
X4.6919Y-2.8268
X4.6929Y-2.4262
X4.6939Y-2.127
X4.7008Y-3.7185
X4.7736Y-2.3248
X4.7736Y-3.8091
X4.7766Y-2.122
X4.7844Y-3.6968
X4.8524Y-3.8067
X4.8701Y-3.1909
X4.873Y-2.4291
X4.874Y-2.3327
X4.9065Y-1.8228
X4.9094Y-1.9173
X4.9114Y-3.7205
X4.9114Y-3.8057
X4.9409Y-2.2382
X4.9478Y-1.8317
X4.9715Y-3.8057
X4.9764Y-2.2323
X4.9783Y-1.8839
X4.9783Y-3.6378
X4.9862Y-3.6063
X5.0295Y-3.7067
X5.0295Y-3.8057
X5.0886Y-3.8057
X5.0906Y-3.7224
X5.1634Y-2.0098
X5.1654Y-2.2559
X5.1693Y-1.7483
X5.1772Y-1.4409
X5.1811Y-2.8622
X5.1811Y-2.9646
X5.1811Y-3.0689
X5.1831Y-2.7579
X5.189Y-3.5669
X5.1969Y-1.7247
X5.2003Y-3.7068
X5.2126Y-3.8248
X5.2362Y-2.3484
X5.2461Y-3.8346
X5.2717Y-1.9156
X5.2756Y-1.4961
X5.2894Y-3.7638
X5.2913Y-3.1319
X5.3583Y-2.5098
X5.3701Y-1.8937
X5.3701Y-1.9213
X5.3721Y-2.0091
X5.3799Y-2.2835
X5.3957Y-2.1732
X5.4213Y-1.703
X5.4291Y-2.2283
X5.4311Y-1.4409
X5.4398Y-2.3379
X5.4508Y-2.2087
X5.5177Y-1.4409
X5.5265Y-2.3772
X5.5265Y-2.4087
X5.5517Y-1.7505
X5.5551Y-2.0138
X5.5706Y-3.7161
X5.5787Y-1.9705
X5.5812Y-1.7249
X5.5844Y-2.3698
X5.6004Y-3.7067
X5.6161Y-1.4961
X5.6299Y-3.7283
X5.689Y-3.7264
X5.7106Y-1.9803
X5.748Y-3.7264
X5.75Y-3.8038
X5.8051Y-3.7264
X5.8642Y-3.7244
X5.9213Y-2.6476
X5.9232Y-3.7244
X5.9252Y-2.7205
X5.9252Y-3.8067
X5.9291Y-2.8287
X5.9291Y-3.0276
X5.9823Y-3.7224
X5.9843Y-3.8067
X6.0413Y-3.7224
X6.0433Y-3.8287
X6.063Y-3.6063
X6.1063Y-3.8169
X6.1319Y-3.6988
X6.1673Y-3.5669
X6.188Y-3.8953
X6.2067Y-1.4665
X6.2717Y-1.628
X6.2776Y-1.7047
X6.2874Y-2.0374
X6.2894Y-2.2756
X6.2933Y-2.1969
X6.3031Y-1.7756
X6.3031Y-2.0118
X6.315Y-3.9705
T2
X4.7244Y-1.5748
X4.7244Y-1.6748
X4.7244Y-1.7748
X4.7244Y-1.8748
X4.7244Y-1.9748
X4.7244Y-2.0748
X4.7244Y-2.1748
X4.7244Y-2.2748
X4.7244Y-2.3748
X4.7244Y-2.4748
X4.7244Y-2.5748
X4.7244Y-2.6748
X4.7244Y-2.7748
X4.7244Y-2.8748
X4.7244Y-2.9748
X4.7244Y-3.0748
X4.7244Y-3.1748
X4.7244Y-3.2748
X4.7244Y-3.3748
X4.7244Y-3.4748
X4.8244Y-1.5748
X4.8244Y-1.6748
X4.8244Y-1.7748
X4.8244Y-1.8748
X4.8244Y-1.9748
X4.8244Y-2.0748
X4.8244Y-2.1748
X4.8244Y-2.2748
X4.8244Y-2.3748
X4.8244Y-2.4748
X4.8244Y-2.5748
X4.8244Y-2.6748
X4.8244Y-2.7748
X4.8244Y-2.8748
X4.8244Y-2.9748
X4.8244Y-3.0748
X4.8244Y-3.1748
X4.8244Y-3.2748
X4.8244Y-3.3748
X4.8244Y-3.4748
X5.1884Y-2.1174
X5.2884Y-2.1174
X5.3616Y-2.6181
X5.4616Y-2.6181
X5.5806Y-2.1205
X5.6806Y-2.1205
X6.0236Y-1.5748
X6.0236Y-1.6748
X6.0236Y-1.7748
X6.0236Y-1.8748
X6.0236Y-1.9748
X6.0236Y-2.0748
X6.0236Y-2.1748
X6.0236Y-2.2748
X6.0236Y-2.3748
X6.0236Y-2.4748
X6.0236Y-2.5748
X6.0236Y-2.6748
X6.0236Y-2.7748
X6.0236Y-2.8748
X6.0236Y-2.9748
X6.0236Y-3.0748
X6.0236Y-3.1748
X6.0236Y-3.2748
X6.0236Y-3.3748
X6.0236Y-3.4748
X6.1236Y-1.5748
X6.1236Y-1.6748
X6.1236Y-1.7748
X6.1236Y-1.8748
X6.1236Y-1.9748
X6.1236Y-2.0748
X6.1236Y-2.1748
X6.1236Y-2.2748
X6.1236Y-2.3748
X6.1236Y-2.4748
X6.1236Y-2.5748
X6.1236Y-2.6748
X6.1236Y-2.7748
X6.1236Y-2.8748
X6.1236Y-2.9748
X6.1236Y-3.0748
X6.1236Y-3.1748
X6.1236Y-3.2748
X6.1236Y-3.3748
X6.1236Y-3.4748
M30
